<?xml version="1.0" standalone="no"?>
<!DOCTYPE svg PUBLIC "-//W3C//DTD SVG 1.1//EN" "http://www.w3.org/Graphics/SVG/1.1/DTD/svg11.dtd" >
<svg xmlns="http://www.w3.org/2000/svg" xmlns:xlink="http://www.w3.org/1999/xlink" version="1.1">
<metadata>
Created by FontForge 20150913 at Wed May  4 09:49:19 2016
 By Jimmy Wärting
Copyright (c) 2006-2007 by Jose Scaglione, Veronika Burian. All rights reserved.
</metadata>
<defs>
<font id="Karmina-Italic" horiz-adv-x="530" >
  <font-face 
    font-family="Karmina"
    font-weight="400"
    font-style="italic"
    font-stretch="normal"
    units-per-em="1000"
    panose-1="2 0 5 3 0 0 0 9 0 4"
    ascent="752"
    descent="-248"
    x-height="480"
    cap-height="650"
    bbox="-129 -261 1229 876"
    underline-thickness="50"
    underline-position="-100"
    slope="-9"
    stemh="48"
    stemv="76"
    unicode-range="U+000D-FB06"
  />
<missing-glyph horiz-adv-x="500" 
 />
    <glyph glyph-name="ff" unicode="ff" horiz-adv-x="652" 
d="M387 -55l68 470h-231l-57 -398c-6 -40 -19 -90 -33 -116c-40 -72 -104 -110 -166 -110c-37 0 -66 9 -88 20l24 93h19c16 -34 41 -60 77 -60c37 0 65 33 76 101l68 470h-63l7 40l68 15c7 43 13 77 28 105c40 72 118 109 175 109c38 0 73 -12 103 -30l-54 -79h-19
c-16 35 -32 58 -62 58c-27 0 -62 -9 -84 -99c-3 -15 -8 -42 -10 -63c39 1 171 3 235 6c6 40 13 71 27 98c40 72 118 109 189 109c38 0 73 -12 103 -30l-54 -79h-19c-16 34 -40 58 -76 58c-27 0 -62 -9 -84 -99c-3 -15 -8 -42 -10 -63c44 1 100 4 147 8
c-9 -21 -17 -45 -22 -64h-134l-57 -398c-6 -40 -19 -90 -33 -116c-40 -72 -104 -110 -166 -110c-37 0 -66 9 -88 20l24 93h19c16 -34 41 -60 77 -60c37 0 65 33 76 101z" />
    <glyph glyph-name="fi" unicode="fi" horiz-adv-x="569" 
d="M383 43l53 300c4 21 7 53 6 75h-207l-64 -401c-6 -40 -19 -90 -33 -116c-40 -72 -108 -110 -170 -110c-37 0 -66 9 -88 20l24 93h19c16 -34 41 -60 77 -60c44 0 77 45 87 113l71 461h-61l7 37l62 15c7 40 16 78 31 104c38 67 126 110 208 110c61 0 108 -21 137 -40
l-52 -85h-12c-16 34 -50 77 -117 77c-41 0 -91 -8 -107 -102l-11 -64c43 0 239 5 288 10l15 -9c-8 -19 -17 -55 -24 -84l-47 -260c-3 -33 -4 -44 -1 -60c10 -5 46 21 78 51l22 -23c-56 -63 -114 -107 -146 -107c-19 0 -40 32 -45 55z" />
    <glyph glyph-name="fl" unicode="fl" horiz-adv-x="570" 
d="M551 609l-75 -482c-3 -33 -4 -44 -1 -60c10 -5 46 21 78 51l22 -23c-56 -63 -114 -107 -146 -107c-19 0 -40 32 -45 55l83 538c-33 31 -74 57 -122 57c-39 0 -84 -12 -101 -106l-11 -62c42 0 81 3 125 8c-8 -20 -14 -41 -19 -60h-114l-58 -399c-6 -40 -19 -90 -33 -116
c-40 -72 -104 -110 -166 -110c-37 0 -66 9 -88 20l24 93h19c16 -34 41 -60 77 -60c37 0 66 33 76 101l69 471h-66l8 37l69 15c7 40 16 80 31 106c38 67 120 110 186 110c27 0 60 -10 87 -19c32 6 55 15 79 25c4 1 6 3 10 4l22 -9c-9 -23 -15 -46 -20 -78z" />
    <glyph glyph-name="ffi" unicode="ffi" horiz-adv-x="865" 
d="M679 43l53 300c4 21 7 53 6 75h-207l-64 -401c-6 -40 -19 -90 -33 -116c-40 -72 -108 -110 -170 -110c-37 0 -66 9 -88 20l24 93h19c16 -34 41 -60 77 -60c44 0 77 45 87 113l70 458h-229l-57 -398c-6 -40 -19 -90 -33 -116c-40 -72 -104 -110 -166 -110
c-37 0 -66 9 -88 20l24 93h19c16 -34 41 -60 77 -60c37 0 65 33 76 101l68 470h-63l7 40l68 15c7 43 13 77 28 105c40 72 118 109 175 109c38 0 73 -12 103 -30l-54 -79h-19c-16 35 -32 58 -62 58c-27 0 -62 -9 -84 -99c-3 -15 -8 -42 -10 -63c38 1 164 3 230 6
c7 37 16 72 30 97c38 67 126 110 208 110c61 0 108 -21 137 -40l-52 -85h-12c-16 34 -50 77 -117 77c-41 0 -91 -8 -107 -102l-11 -64c43 0 239 5 288 10l15 -9c-8 -19 -17 -55 -24 -84l-47 -260c-3 -33 -4 -44 -1 -60c10 -5 46 21 78 51l22 -23
c-56 -63 -114 -107 -146 -107c-19 0 -40 32 -45 55z" />
    <glyph glyph-name="ffl" unicode="ffl" horiz-adv-x="878" 
d="M859 609l-75 -482c-3 -33 -4 -44 -1 -60c10 -5 46 21 78 51l22 -23c-56 -63 -114 -107 -146 -107c-19 0 -40 32 -45 55l83 538c-33 31 -74 57 -122 57c-39 0 -84 -12 -101 -106l-11 -62c42 0 81 3 125 8c-8 -20 -14 -41 -19 -60h-114l-58 -399c-6 -40 -19 -90 -33 -116
c-40 -72 -104 -110 -166 -110c-37 0 -66 9 -88 20l24 93h19c16 -34 41 -60 77 -60c37 0 66 33 76 101l68 468h-228l-57 -398c-6 -40 -19 -90 -33 -116c-40 -72 -104 -110 -166 -110c-37 0 -66 9 -88 20l24 93h19c16 -34 41 -60 77 -60c37 0 65 33 76 101l68 470h-63l7 40
l68 15c7 43 13 77 28 105c40 72 118 109 175 109c38 0 73 -12 103 -30l-54 -79h-19c-16 35 -32 58 -62 58c-27 0 -62 -9 -84 -99c-3 -15 -8 -42 -10 -63c38 1 167 3 232 6c7 37 16 74 30 99c38 67 120 110 186 110c27 0 60 -10 87 -19c32 6 55 15 79 25c4 1 6 3 10 4l22 -9
c-9 -23 -15 -46 -20 -78z" />
    <glyph glyph-name=".notdef" horiz-adv-x="500" 
 />
    <glyph glyph-name=".null" horiz-adv-x="0" 
 />
    <glyph glyph-name=".null" horiz-adv-x="0" 
 />
    <glyph glyph-name="CR" unicode="&#xd;" horiz-adv-x="195" 
 />
    <glyph glyph-name="space" unicode=" " horiz-adv-x="195" 
 />
    <glyph glyph-name="quotesingle" unicode="'" horiz-adv-x="233" 
d="M149 435l31 251h84l-54 -251h-61z" />
    <glyph glyph-name="quotedbl" unicode="&#x22;" horiz-adv-x="385" 
d="M149 435l31 251h84l-54 -251h-61zM302 435l31 251h84l-54 -251h-61z" />
    <glyph glyph-name="numbersign" unicode="#" horiz-adv-x="575" 
d="M186 0h-45l36 127h-119l26 69h115l45 147h-119l25 69h115l39 132h47l-41 -132h137l40 132h46l-39 -132h118l-24 -69h-116l-42 -147h116l-24 -69h-114l-37 -127h-46l38 127h-140zM426 343h-137l-44 -147h139z" />
    <glyph glyph-name="ampersand" unicode="&#x26;" horiz-adv-x="651" 
d="M282 515c0 -112 113 -122 212 -122h177l-2 -34c-20 -2 -48 -8 -66 -14c-27 -183 -114 -357 -317 -357c-132 0 -192 71 -192 167c0 115 93 194 196 209l1 11c-72 27 -97 79 -97 129c0 97 85 163 200 163c43 0 101 -9 146 -23c-10 -38 -22 -73 -27 -122h-34
c-8 60 -34 101 -98 101c-61 0 -99 -41 -99 -108zM517 347c-99 0 -173 -8 -208 -18c-75 -22 -124 -72 -124 -153c0 -70 40 -122 127 -122c147 0 215 133 205 293z" />
    <glyph glyph-name="asterisk" unicode="*" horiz-adv-x="387" 
d="M407 562l-110 -42l98 -44c9 -4 12 -11 12 -19c0 -16 -16 -35 -32 -35c-5 0 -10 1 -15 6l-78 71v-118c0 -21 -18 -29 -33 -29c-19 0 -28 12 -23 31l33 116l-98 -72c-7 -5 -13 -7 -17 -7c-13 0 -26 15 -26 29c0 13 9 21 22 26l110 44l-96 43c-11 5 -16 13 -16 22
c0 14 14 35 31 35c5 0 11 -2 18 -8l81 -72l-2 119c0 22 18 31 33 31c19 0 29 -12 23 -32l-34 -119l99 72c7 5 14 8 19 8c12 0 25 -15 25 -30c0 -13 -10 -21 -24 -26z" />
    <glyph glyph-name="comma" unicode="," horiz-adv-x="232" 
d="M51 -144l-18 27c23 17 65 55 65 94c0 27 -25 42 -25 71c0 34 27 56 61 56c31 0 52 -21 52 -58c0 -81 -68 -147 -135 -190z" />
    <glyph glyph-name="hyphen" unicode="-" horiz-adv-x="326" 
d="M79 249l11 71h248l-12 -71h-247z" />
    <glyph glyph-name="period" unicode="." horiz-adv-x="219" 
d="M66 41c0 35 26 64 65 64c32 0 51 -23 51 -50c0 -34 -28 -62 -65 -62c-33 0 -51 23 -51 48z" />
    <glyph glyph-name="colon" unicode=":" horiz-adv-x="219" 
d="M66 41c0 35 26 64 65 64c32 0 51 -23 51 -50c0 -34 -28 -62 -65 -62c-33 0 -51 23 -51 48zM119 393c0 35 26 64 65 64c32 0 51 -23 51 -50c0 -34 -28 -62 -65 -62c-33 0 -51 23 -51 48z" />
    <glyph glyph-name="semicolon" unicode=";" horiz-adv-x="234" 
d="M51 -144l-18 27c23 17 65 55 65 94c0 27 -25 42 -25 71c0 34 27 56 61 56c31 0 52 -21 52 -58c0 -81 -68 -147 -135 -190zM127 393c0 35 26 64 65 64c32 0 51 -23 51 -50c0 -34 -28 -62 -65 -62c-33 0 -51 23 -51 48z" />
    <glyph glyph-name="question" unicode="?" horiz-adv-x="410" 
d="M326 359c-73 -48 -90 -70 -101 -145l-7 -48h-45l10 71c9 62 16 90 92 156c48 41 88 84 88 147c0 45 -22 74 -85 74c-38 0 -68 -9 -68 -9c-15 -27 -20 -53 -24 -85l-33 -11h-15c4 36 5 74 6 114c48 21 132 44 170 44c95 0 144 -49 144 -121c0 -89 -65 -143 -132 -187z
M123 39c0 33 22 61 60 61c30 0 48 -21 48 -47c0 -33 -24 -60 -61 -60c-32 0 -47 18 -47 46z" />
    <glyph glyph-name="exclam" unicode="!" horiz-adv-x="257" 
d="M135 166l43 451c3 28 22 44 52 44c22 0 47 -15 40 -48l-95 -447h-40zM82 39c0 33 22 61 60 61c30 0 48 -21 48 -47c0 -33 -24 -60 -61 -60c-32 0 -47 18 -47 46z" />
    <glyph glyph-name="exclamdown" unicode="&#xa1;" horiz-adv-x="257" 
d="M211 308l-43 -451c-3 -28 -22 -44 -52 -44c-22 0 -47 15 -40 48l95 447h40zM264 435c0 -33 -22 -61 -60 -61c-30 0 -48 21 -48 47c0 33 24 60 61 60c32 0 47 -18 47 -46z" />
    <glyph glyph-name="questiondown" unicode="&#xbf;" horiz-adv-x="401" 
d="M181 114c-67 -44 -132 -98 -132 -187c0 -72 49 -121 144 -121c38 0 122 23 170 44c1 40 2 78 6 114h-15l-33 -11c-4 -32 -9 -58 -24 -85c0 0 -30 -9 -68 -9c-63 0 -85 29 -85 74c0 63 40 106 88 147c76 66 83 94 92 156l10 71h-45l-7 -48c-11 -75 -28 -97 -101 -145z
M384 434c0 -33 -22 -61 -60 -61c-30 0 -48 21 -48 47c0 33 24 60 61 60c32 0 47 -18 47 -46z" />
    <glyph glyph-name="at" unicode="@" horiz-adv-x="814" 
d="M641 381l-61 -195c-10 -32 -22 -68 -22 -108c0 -32 14 -44 48 -44c102 0 140 198 140 280c0 147 -80 224 -243 224c-227 0 -370 -195 -370 -402c0 -181 117 -259 271 -259c29 0 54 1 80 4l-3 -49c-35 -4 -66 -5 -100 -5c-181 0 -311 100 -311 304c0 249 167 462 449 462
c171 0 290 -91 290 -269c0 -121 -65 -341 -232 -341c-63 0 -90 34 -90 87c0 6 0 12 1 19c-29 -28 -60 -53 -97 -79c-18 -12 -40 -22 -60 -22c-59 0 -88 35 -88 107c0 143 111 320 264 320c48 0 94 -12 134 -34zM498 136l63 206c-15 14 -40 28 -71 28
c-112 0 -171 -158 -171 -253c0 -39 12 -67 45 -67c43 0 96 47 134 86z" />
    <glyph glyph-name="A" unicode="A" horiz-adv-x="621" 
d="M466 62l-27 173h-208l-84 -172l2 -10c19 -9 39 -18 62 -24l-5 -31c-25 1 -51 2 -98 2c-36 0 -71 -1 -102 -2l6 32c28 8 44 15 67 27l301 593h69l106 -589c17 -11 41 -21 68 -30l-6 -33c-52 2 -81 2 -116 2c-39 0 -79 -1 -119 -2l5 31c28 5 49 12 75 24zM378 534
l-125 -251h178l-40 251h-13z" />
    <glyph glyph-name="B" unicode="B" horiz-adv-x="519" 
d="M283 0h-126c-36 0 -65 0 -117 -2l6 32c23 5 37 10 60 23c12 32 19 61 30 113l53 348c2 27 4 49 2 75c-20 14 -35 22 -61 29l5 32c36 -2 75 -3 114 -3h132c96 0 162 -41 162 -130c0 -103 -74 -157 -166 -177l-1 -5c81 -3 146 -57 146 -141c0 -124 -92 -194 -239 -194z
M210 46h69c93 4 153 64 153 151c0 77 -49 114 -135 114h-57l-28 -179c-3 -33 -5 -61 -2 -86zM248 358h52c95 3 152 53 152 143c0 60 -35 100 -105 100h-63z" />
    <glyph glyph-name="C" unicode="C" horiz-adv-x="570" 
d="M453 664c65 0 123 -10 179 -24c-10 -38 -24 -102 -29 -151h-15l-38 5c3 33 6 69 -3 100c-38 15 -64 21 -116 21c-186 0 -251 -195 -251 -340c0 -118 43 -239 184 -239c51 0 75 8 97 17c21 30 51 94 66 129l44 -7c-11 -38 -29 -113 -37 -161c-56 -23 -124 -31 -185 -31
c-191 0 -267 127 -267 278c0 213 132 403 371 403z" />
    <glyph glyph-name="D" unicode="D" horiz-adv-x="627" 
d="M550 391c0 147 -76 210 -194 210h-72l-72 -469c-2 -16 -4 -33 -4 -49c0 -14 1 -27 3 -36h79c204 0 260 171 260 344zM308 0h-152c-39 0 -89 -1 -116 -2l6 32c22 5 35 10 59 23c13 32 20 61 31 113l53 348c2 26 4 51 1 75c-20 14 -35 22 -61 29l5 32c37 -2 75 -3 114 -3
h142c132 0 258 -60 258 -248c0 -204 -121 -399 -340 -399z" />
    <glyph glyph-name="E" unicode="E" horiz-adv-x="521" 
d="M481 599h-190c-8 -24 -15 -53 -19 -83l-25 -163h121c23 1 35 4 42 8c20 25 32 48 42 72h29c-13 -68 -24 -138 -32 -207h-29c-1 24 -5 51 -11 68c-19 7 -36 10 -65 10h-105l-24 -150c-2 -30 -6 -66 -8 -105h209c19 27 54 94 65 124l44 -7c-16 -42 -40 -124 -47 -166h-329
c-35 0 -70 0 -109 -2l6 32c22 5 37 10 60 23c12 32 19 61 30 113l52 346c4 27 4 49 3 75c-20 13 -36 22 -62 29l6 31h426c-10 -35 -23 -101 -28 -145h-15l-37 5c2 14 3 33 3 50c0 16 -1 31 -3 42z" />
    <glyph glyph-name="F" unicode="F" horiz-adv-x="480" 
d="M479 601h-188c-8 -24 -14 -51 -18 -79l-27 -172h116c28 2 39 4 45 8c17 24 29 47 40 72h29c-14 -68 -25 -139 -32 -207h-29c-2 26 -6 51 -11 70c-18 5 -28 7 -60 8h-105l-26 -157c-2 -27 -3 -54 1 -85c25 -12 58 -25 83 -30l-6 -31c-40 1 -95 2 -134 2
c-36 0 -66 0 -117 -2l6 32c23 5 37 10 60 23c12 32 19 61 30 113l53 348c2 27 4 49 2 75c-20 14 -35 22 -61 29l5 32c36 -2 75 -3 114 -3h310c-10 -35 -23 -99 -27 -143h-16l-36 6c3 29 3 58 -1 91z" />
    <glyph glyph-name="G" unicode="G" horiz-adv-x="623" 
d="M368 37c42 0 74 9 107 18l15 97c3 29 4 58 3 83c-23 15 -53 27 -82 32l6 31c40 -1 86 -2 125 -2c36 0 66 0 117 2l-6 -32c-22 -5 -39 -12 -61 -24c-10 -33 -17 -59 -26 -106l-15 -112c-63 -24 -126 -41 -210 -41c-173 0 -259 118 -259 280c0 204 123 401 378 401
c63 0 131 -9 186 -22c-11 -39 -24 -104 -29 -153h-16l-37 6c1 11 2 24 2 38c0 22 -1 45 -5 60c-34 14 -65 21 -116 21c-192 0 -266 -173 -266 -339c0 -118 45 -238 189 -238z" />
    <glyph glyph-name="H" unicode="H" horiz-adv-x="683" 
d="M549 365l22 149v5c2 26 4 48 1 70c-19 13 -35 20 -61 28l5 33c37 -2 78 -3 117 -3c42 0 73 1 114 3l-5 -32c-22 -6 -41 -14 -64 -27c-11 -32 -18 -60 -30 -112l-53 -345c-2 -26 -3 -51 1 -75c21 -14 42 -23 68 -30l-5 -31c-40 1 -79 2 -118 2c-37 0 -69 -1 -119 -2l6 32
c25 6 40 11 59 22c13 31 19 60 31 114l22 149h-301l-27 -181c-2 -25 -1 -51 2 -75c21 -15 41 -24 68 -30l-7 -31c-38 1 -76 2 -116 2c-37 0 -70 -1 -119 -2l6 32c22 5 36 10 59 23c13 32 20 61 31 113l53 347c3 26 3 48 2 74c-20 15 -37 24 -63 30l5 32c40 -2 70 -3 109 -3
c43 0 80 1 121 3l-5 -32c-24 -6 -43 -12 -61 -23c-12 -30 -19 -58 -32 -114l-17 -115h301z" />
    <glyph glyph-name="I" unicode="I" horiz-adv-x="303" 
d="M136 166l54 348c3 27 4 49 2 75c-21 14 -36 22 -62 29l5 32c36 -2 78 -3 117 -3c42 0 72 1 115 3l-5 -32c-26 -6 -45 -14 -65 -26c-11 -32 -20 -58 -31 -113l-53 -345c-2 -25 -1 -51 2 -75c21 -15 41 -24 67 -30l-6 -31c-38 1 -76 2 -116 2c-38 0 -70 0 -119 -2l6 32
c22 5 36 10 59 23c12 32 19 61 30 113z" />
    <glyph glyph-name="J" unicode="J" horiz-adv-x="291" 
d="M118 90l65 421c3 29 5 54 2 78c-21 13 -43 23 -70 29l4 32c37 -2 86 -3 125 -3c42 0 74 1 117 3l-5 -32c-26 -6 -45 -14 -65 -26c-11 -31 -19 -58 -31 -113l-55 -364c-10 -63 -22 -121 -36 -168l-149 -151l-26 24c65 82 109 170 124 270z" />
    <glyph glyph-name="K" unicode="K" horiz-adv-x="569" 
d="M334 351l176 -278l55 -44l-5 -29h-114c-11 23 -24 46 -37 70l-158 257h-10l-29 -193c-2 -25 -1 -51 2 -75c21 -15 42 -24 68 -30l-6 -31c-39 1 -77 2 -117 2c-37 0 -70 0 -119 -2l6 32c22 5 36 10 60 23c12 32 19 61 30 113c17 115 36 232 53 347c4 25 2 49 -2 74
c-20 15 -41 24 -67 30l5 32c40 -2 78 -3 117 -3c43 0 78 1 119 3l-5 -32c-24 -7 -40 -12 -59 -23c-12 -30 -19 -58 -31 -114l-23 -147h8l262 257l-1 12c-7 4 -34 12 -49 15l5 32c36 -2 71 -2 107 -2c26 0 50 0 74 2l-5 -31c-15 -3 -37 -13 -46 -19z" />
    <glyph glyph-name="L" unicode="L" horiz-adv-x="499" 
d="M208 50h190c23 33 50 92 76 152l40 -5c-17 -54 -42 -148 -48 -197h-314c-58 0 -85 -1 -112 -2l6 32c23 5 37 10 60 23c12 32 19 61 30 113l53 348c3 27 4 49 2 75c-20 14 -35 22 -61 29l5 32c36 -2 77 -3 117 -3c55 0 97 3 140 3l-5 -31c-29 -5 -63 -16 -91 -31
c-12 -25 -20 -54 -25 -84l-55 -350c-4 -34 -8 -68 -8 -104z" />
    <glyph glyph-name="M" unicode="M" horiz-adv-x="807" 
d="M776 504l-56 -369c-2 -24 -2 -50 1 -76c20 -15 38 -22 64 -28l-6 -33h-5c-36 2 -70 2 -107 2c-42 0 -81 0 -123 -2l6 32c23 5 43 10 63 23c12 32 21 60 32 113l57 373l-6 1l-265 -513h-58l-111 526h-6l-63 -412c-2 -19 -3 -35 -3 -50c0 -12 0 -22 2 -32
c20 -15 42 -24 69 -30l-6 -31c-38 2 -58 2 -98 2c-38 0 -68 0 -117 -2l6 32c22 5 35 10 58 23c12 32 20 60 31 113l52 338c4 28 5 56 5 83c-19 14 -40 22 -62 27l6 35c36 -1 67 -3 104 -3c31 0 56 1 88 3l98 -503h11l252 503c24 -1 59 -2 92 -2c39 0 72 1 90 2l-5 -34
c-26 -5 -47 -14 -70 -27l-5 -18z" />
    <glyph glyph-name="N" unicode="N" horiz-adv-x="698" 
d="M668 510l-78 -500l-65 -21l-263 592l-67 -440c-2 -26 -6 -54 -1 -82c20 -15 42 -24 69 -30l-6 -31c-38 2 -58 2 -98 2c-37 0 -70 0 -119 -2l6 32c22 5 36 10 59 23c12 32 20 61 31 113l51 335c4 27 4 58 5 86c-19 14 -40 22 -60 27l6 35c34 -1 67 -2 104 -2
c27 0 50 0 87 2l221 -520l58 376c2 14 3 31 3 47c0 15 -1 28 -3 37c-22 13 -50 25 -76 30l5 31c39 -3 71 -3 111 -3c38 0 86 1 122 3l-6 -32c-28 -7 -52 -15 -76 -29c-8 -24 -15 -50 -20 -79z" />
    <glyph glyph-name="O" unicode="O" horiz-adv-x="659" 
d="M331 -17c-166 0 -248 117 -248 281c0 186 119 400 358 400c148 0 238 -100 238 -254c0 -213 -128 -427 -348 -427zM405 615c-182 0 -224 -190 -224 -336c0 -132 36 -246 169 -246c169 0 229 195 229 348c0 134 -52 234 -174 234z" />
    <glyph glyph-name="P" unicode="P" horiz-adv-x="511" 
d="M252 647h121c111 0 188 -44 188 -160c0 -155 -125 -229 -274 -229c-14 0 -42 0 -55 1l-18 -114c-1 -28 -3 -57 1 -85c25 -13 61 -26 87 -31l-6 -31c-40 1 -97 2 -137 2c-37 0 -69 0 -119 -2l6 32c22 5 37 10 60 23c12 32 19 61 30 113l53 348c3 27 4 49 2 75
c-20 14 -35 22 -61 29l5 32c36 -2 76 -3 117 -3zM288 303c122 0 181 73 181 175c0 87 -45 123 -119 123h-59c-8 -24 -14 -51 -18 -79l-33 -218c11 -1 35 -1 48 -1z" />
    <glyph glyph-name="Q" unicode="Q" horiz-adv-x="659" 
d="M214 -69l-6 25c40 10 73 22 103 28c-153 9 -228 122 -228 280c0 186 119 400 358 400c148 0 238 -100 238 -254c0 -199 -112 -399 -306 -424c75 -13 146 -85 221 -85c24 0 44 5 72 17l13 -20c-33 -28 -106 -61 -137 -61c-83 0 -169 101 -258 101c-27 0 -45 -3 -70 -7z
M405 615c-182 0 -224 -190 -224 -336c0 -132 36 -246 169 -246c169 0 229 195 229 348c0 134 -52 234 -174 234z" />
    <glyph glyph-name="R" unicode="R" horiz-adv-x="549" 
d="M292 343h26c106 0 154 75 154 145c0 79 -38 113 -108 113h-71c-8 -26 -14 -56 -20 -83l-59 -384c-3 -26 -3 -51 1 -75c22 -15 43 -24 69 -30l-6 -31c-39 2 -76 2 -116 2c-42 0 -79 0 -122 -2l6 32c22 5 37 10 60 23c12 32 19 61 30 113l53 348c3 27 4 49 2 75
c-20 14 -35 22 -61 29l5 32c36 -2 79 -3 120 -3h136c89 0 178 -42 178 -148c0 -103 -80 -173 -187 -194l111 -232l55 -44l-5 -29h-111c-10 23 -19 45 -31 70l-119 256z" />
    <glyph glyph-name="S" unicode="S" horiz-adv-x="486" 
d="M367 664c52 0 112 -11 153 -33c-9 -37 -23 -103 -29 -151h-15l-37 5c1 12 2 30 2 45c0 20 -1 40 -4 54c-17 20 -47 34 -87 34c-70 0 -127 -51 -127 -116c0 -67 29 -89 103 -123c76 -35 158 -66 158 -169c0 -148 -132 -222 -260 -222c-69 0 -133 11 -184 40
c16 44 35 123 47 177l52 -8c-5 -42 -8 -80 -3 -118c22 -25 60 -41 112 -41c92 0 146 58 146 127c0 84 -50 110 -125 140c-73 29 -134 62 -134 155c0 118 106 204 232 204z" />
    <glyph glyph-name="T" unicode="T" horiz-adv-x="571" 
d="M328 599h-132c-14 -27 -41 -109 -46 -136l-39 -6h-16c11 48 24 149 24 190h533c-11 -43 -31 -142 -36 -189h-15l-38 5c5 43 3 92 -3 136h-132c-10 -25 -15 -56 -22 -86l-57 -369c-3 -27 -3 -54 1 -85c23 -12 56 -25 83 -30l-7 -31c-40 1 -91 3 -130 3
c-43 0 -101 -2 -144 -3l4 34c27 5 61 13 85 26c13 32 19 58 31 110l52 344c4 33 5 64 4 87z" />
    <glyph glyph-name="U" unicode="U" horiz-adv-x="677" 
d="M563 279l36 235c2 28 3 50 1 75c-21 14 -35 22 -62 29l5 32c37 -2 55 -3 95 -3c42 0 72 1 114 3l-5 -33c-24 -6 -46 -15 -68 -26c-12 -32 -19 -59 -23 -86l-28 -186c-3 -22 -14 -83 -31 -142c-38 -134 -121 -189 -246 -189c-146 0 -212 65 -212 185c0 34 5 85 10 118
l34 224c3 25 3 46 0 72c-20 15 -42 24 -69 30l4 32c41 -2 69 -3 109 -3c42 0 87 1 130 3l-5 -32c-22 -6 -39 -11 -61 -24c-13 -32 -16 -44 -26 -97l-28 -185c-3 -23 -13 -86 -13 -129c0 -96 41 -138 143 -138c86 0 142 42 170 123c11 34 24 97 26 112z" />
    <glyph glyph-name="V" unicode="V" horiz-adv-x="608" 
d="M256 586l75 -477h13l218 475l-2 11c-19 10 -38 17 -62 23l4 32c40 -2 71 -3 110 -3c24 0 60 1 90 3l-5 -32c-29 -8 -45 -15 -66 -27l-293 -597h-68l-105 593c-16 10 -41 21 -67 30l5 33c44 -2 76 -3 118 -3c39 0 79 1 118 3l-4 -32c-30 -5 -49 -12 -76 -23z" />
    <glyph glyph-name="W" unicode="W" horiz-adv-x="893" 
d="M581 586l74 -461h12l187 460l-2 10c-20 10 -39 17 -63 23l5 32c39 -2 66 -3 103 -3c25 0 61 1 91 3l-4 -32c-29 -7 -48 -15 -67 -27l-256 -603h-67l-77 446l-219 -446h-59l-72 598c-18 11 -42 23 -66 31l5 33c42 -2 72 -3 115 -3c39 0 76 1 115 3l-5 -32
c-28 -5 -50 -11 -76 -23l-2 -10l49 -455h11l188 390l-15 80c-8 5 -38 13 -54 16l6 33c41 -2 80 -2 120 -2s62 0 103 2l-5 -36c-25 -1 -48 -6 -68 -14z" />
    <glyph glyph-name="X" unicode="X" horiz-adv-x="630" 
d="M379 387l174 206l-1 11c-16 6 -50 11 -73 12l6 34c40 -2 76 -3 116 -3c31 0 64 1 98 3l-5 -34c-20 -4 -46 -11 -62 -20l-228 -253l151 -282c14 -14 38 -27 54 -33l-5 -30c-45 2 -65 2 -109 2c-41 0 -79 0 -122 -2l5 28c20 4 49 11 69 23l5 15l-110 215l-180 -217l2 -13
c17 -9 54 -20 75 -24l-4 -27c-42 2 -70 2 -111 2c-36 0 -68 0 -104 -2l5 29c20 8 46 20 54 28l237 271l-137 268c-13 9 -39 19 -55 23l5 33c44 -2 77 -2 119 -2c40 0 78 0 118 2l-5 -33c-24 -2 -50 -10 -70 -20l-4 -14z" />
    <glyph glyph-name="Y" unicode="Y" horiz-adv-x="558" 
d="M266 166l14 90l-112 330c-18 11 -42 23 -67 31l5 33c43 -2 73 -3 115 -3c39 0 79 1 118 3l-4 -32c-30 -5 -49 -12 -76 -23l-3 -10l81 -263h11l170 263l-3 10c-18 10 -38 17 -61 23l5 32c39 -2 64 -3 102 -3c24 0 61 1 91 3l-5 -33c-30 -10 -49 -16 -65 -24l-220 -329
l-20 -130c-2 -24 -1 -49 2 -75c21 -14 42 -24 67 -30l-6 -31c-38 1 -76 2 -115 2c-44 0 -87 -1 -130 -2l6 33c24 5 46 11 69 24c13 32 20 59 31 111z" />
    <glyph glyph-name="Z" unicode="Z" horiz-adv-x="549" 
d="M503 602h-284c-12 -26 -39 -106 -44 -133l-43 -7h-14c9 43 22 129 25 172l14 13h455l-7 -44l-464 -556h292c34 54 64 115 83 159l47 -8c-22 -63 -41 -132 -56 -198h-472l6 46z" />
    <glyph glyph-name="a" unicode="a" horiz-adv-x="521" 
d="M386 366l7 42c-27 17 -58 25 -86 25c-95 0 -159 -146 -159 -285c0 -51 10 -84 44 -84c68 0 173 170 194 302zM393 251l-9 1c-51 -148 -139 -264 -228 -264c-64 0 -91 53 -91 131c0 252 151 361 262 361c37 0 69 -10 90 -18c22 3 38 7 67 18l12 -14
c-12 -36 -22 -69 -30 -105l-35 -225c-7 -45 -7 -64 -3 -72c11 -5 55 30 85 58l22 -23c-58 -68 -133 -111 -158 -111c-14 0 -38 38 -32 70c3 18 43 177 48 193z" />
    <glyph glyph-name="b" unicode="b" horiz-adv-x="502" 
d="M176 124l-10 -65c23 -12 62 -24 90 -24c118 0 151 201 151 291c0 64 -18 78 -41 78c-61 0 -170 -146 -190 -280zM70 17c10 30 18 60 23 90l72 455c2 25 2 41 -1 57c-14 5 -54 6 -88 5l-6 33c57 7 137 22 179 38l20 -15c-7 -18 -12 -41 -19 -82l-30 -187
c-3 -19 -30 -122 -35 -138l6 -5c55 139 125 212 196 212s109 -41 109 -140c0 -215 -142 -352 -264 -352c-42 0 -114 9 -162 29z" />
    <glyph glyph-name="c" unicode="c" horiz-adv-x="424" 
d="M439 445l-44 -116l-27 1c-6 63 -12 107 -74 107c-107 0 -141 -156 -141 -240c0 -79 22 -138 90 -138c57 0 95 41 131 79l26 -29c-39 -44 -106 -121 -188 -121c-105 0 -147 88 -147 180c0 154 87 312 243 312c48 0 93 -12 131 -35z" />
    <glyph glyph-name="d" unicode="d" horiz-adv-x="523" 
d="M406 467l15 95c2 25 2 41 -1 57c-14 5 -54 6 -88 5l-6 33c57 7 137 22 179 38l20 -15c-7 -18 -13 -41 -19 -82l-73 -462c-7 -45 -7 -64 -3 -72c11 -5 55 30 85 58l22 -23c-58 -68 -130 -111 -154 -111c-23 0 -39 41 -36 68c2 19 43 178 48 194l-9 1
c-45 -136 -139 -263 -225 -263c-60 0 -96 45 -96 129c0 261 154 363 265 363c30 0 55 -6 76 -13zM389 366l7 42c-27 17 -58 25 -86 25c-95 0 -160 -146 -160 -285c0 -51 10 -84 44 -84c68 0 174 170 195 302z" />
    <glyph glyph-name="e" unicode="e" horiz-adv-x="421" 
d="M376 136l25 -28c-67 -72 -140 -120 -209 -120c-96 0 -127 80 -127 161c0 154 88 331 253 331c76 0 113 -43 113 -98c0 -137 -172 -157 -277 -173c-1 -18 -2 -27 -2 -38c0 -81 25 -114 71 -115c44 0 97 27 153 80zM347 374c0 36 -18 59 -57 59c-81 0 -115 -95 -130 -178
c86 13 187 29 187 119z" />
    <glyph glyph-name="f" unicode="f" horiz-adv-x="341" 
d="M76 -55l66 458h-63l7 40l68 15c7 43 15 89 30 117c40 72 118 109 189 109c38 0 73 -12 103 -30l-54 -79h-19c-16 34 -40 58 -76 58c-27 0 -62 -9 -84 -99c-3 -15 -10 -54 -12 -75c44 1 100 4 147 8c-9 -21 -17 -45 -22 -64h-134l-55 -386c-6 -40 -19 -90 -33 -116
c-40 -72 -104 -110 -166 -110c-37 0 -66 9 -88 20l24 93h19c16 -34 41 -60 77 -60c37 0 65 33 76 101z" />
    <glyph glyph-name="g" unicode="g" horiz-adv-x="483" 
d="M312 -48c21 68 62 245 81 311l-9 1c-36 -126 -133 -265 -219 -265c-62 0 -100 42 -100 136c0 255 160 345 262 345c37 0 69 -10 90 -18c22 3 38 7 67 18l12 -14c-12 -36 -22 -69 -30 -105l-33 -200c-9 -52 -16 -96 -26 -147c-8 -39 -19 -77 -38 -107
c-44 -70 -139 -116 -201 -116c-43 0 -76 8 -98 19l24 94h19c16 -34 51 -60 91 -60c42 0 81 22 108 108zM386 366l7 42c-27 17 -58 25 -86 25c-95 0 -160 -146 -160 -285c0 -51 15 -72 49 -72c68 0 170 170 190 290z" />
    <glyph glyph-name="h" unicode="h" 
d="M250 598l-28 -180c-9 -62 -32 -129 -42 -158l6 -5c86 200 178 225 232 225c48 0 70 -21 70 -75c0 -20 -3 -45 -9 -75l-42 -206c-3 -33 -5 -41 -2 -57c10 -5 46 21 78 51l22 -23c-56 -63 -114 -107 -146 -107c-19 0 -36 30 -41 53l50 275c4 23 6 41 6 55
c0 28 -9 38 -27 38c-53 0 -173 -132 -195 -266l-6 -37c-2 -26 -6 -66 1 -99c-33 -4 -60 -10 -94 -20l-9 13c10 36 18 71 23 107l68 455c2 25 2 41 -1 57c-14 5 -54 6 -88 5l-6 33c57 7 137 22 179 38l20 -15c-7 -18 -13 -41 -19 -82z" />
    <glyph glyph-name="i" unicode="i" horiz-adv-x="271" 
d="M233 699c29 0 41 -23 41 -45c0 -46 -21 -73 -67 -73c-24 0 -42 18 -42 44c0 40 19 74 68 74zM85 43l53 300c2 25 3 45 0 61c-14 6 -39 10 -71 11l-6 33c54 5 120 19 162 35l20 -18c-7 -18 -12 -41 -19 -82l-47 -256c-3 -33 -4 -44 -1 -60c10 -5 46 21 78 51l22 -23
c-56 -63 -114 -107 -146 -107c-19 0 -40 32 -45 55z" />
    <glyph glyph-name="j" unicode="j" horiz-adv-x="260" 
d="M172 78c-10 -64 -18 -107 -29 -152c-28 -24 -112 -103 -142 -130l-21 22c61 76 92 143 108 237l49 285c2 25 4 46 1 62c-14 6 -49 10 -81 11l-6 34c54 5 130 20 172 36l20 -18c-7 -18 -13 -42 -20 -83zM234 699c29 0 41 -23 41 -45c0 -46 -21 -73 -67 -73
c-24 0 -42 18 -42 44c0 40 19 74 68 74z" />
    <glyph glyph-name="k" unicode="k" horiz-adv-x="480" 
d="M250 598l-73 -468c-4 -26 -10 -91 -3 -123c-33 -4 -60 -10 -94 -20l-9 13c10 36 18 71 23 107l71 458c2 23 2 38 -1 54c-14 5 -54 6 -88 5l-6 33c57 7 137 22 179 38l20 -15c-7 -18 -12 -41 -19 -82zM366 389c0 28 -16 42 -39 62l8 17l74 12c24 -15 46 -38 46 -75
c0 -67 -97 -106 -161 -138l82 -166c5 -13 11 -24 21 -32c15 5 54 28 81 49l22 -23c-56 -63 -101 -107 -126 -107c-14 0 -47 21 -56 32l-109 230l4 15c35 15 153 70 153 124z" />
    <glyph glyph-name="l" unicode="l" horiz-adv-x="271" 
d="M85 43l80 519c2 25 2 41 -1 57c-14 5 -54 6 -88 5l-6 33c57 7 137 22 179 38l20 -15c-7 -18 -13 -41 -19 -82l-73 -471c-3 -33 -4 -44 -1 -60c10 -5 46 21 78 51l22 -23c-56 -63 -114 -107 -146 -107c-19 0 -40 32 -45 55z" />
    <glyph glyph-name="m" unicode="m" horiz-adv-x="783" 
d="M185 256l6 -5c65 176 167 229 222 229c46 0 66 -25 66 -65c0 -46 -33 -140 -39 -157l5 -3c90 207 174 225 220 225c50 0 76 -22 76 -79c0 -19 -3 -41 -9 -68l-45 -214c-2 -24 -2 -37 1 -52c10 -5 46 21 78 51l22 -23c-56 -63 -114 -107 -146 -107c-19 0 -35 29 -41 52
l49 276c4 20 5 36 5 49c0 33 -11 44 -28 44c-38 0 -169 -144 -189 -282l-3 -21c-1 -17 -6 -66 1 -99c-33 -4 -60 -10 -94 -20l-9 13c10 36 17 71 23 107l34 209c3 22 5 40 5 53c0 30 -8 40 -24 40c-50 0 -166 -155 -189 -281l-4 -22c-1 -17 -6 -66 1 -99
c-33 -4 -60 -10 -94 -20l-9 13c10 36 18 71 23 107l36 236c3 26 4 50 1 66c-14 5 -35 6 -69 5l-6 33c57 7 121 22 163 38l20 -15c-17 -33 -48 -143 -59 -214z" />
    <glyph glyph-name="n" unicode="n" horiz-adv-x="533" 
d="M182 260l6 -5c86 201 178 225 232 225c48 0 71 -20 71 -74c0 -20 -3 -44 -9 -73l-43 -210c-3 -33 -4 -40 -1 -56c10 -5 46 21 78 51l22 -23c-56 -63 -114 -107 -146 -107c-19 0 -35 30 -41 53l49 275c4 23 6 41 6 55c0 28 -9 38 -27 38c-53 0 -178 -136 -197 -274l-4 -29
c-2 -26 -6 -66 1 -99c-33 -4 -60 -10 -94 -20l-9 13c10 36 18 71 23 107l36 236c3 26 4 50 1 66c-14 5 -35 6 -69 5l-6 33c57 7 121 22 163 38l20 -15c-14 -32 -45 -128 -62 -210z" />
    <glyph glyph-name="o" unicode="o" horiz-adv-x="473" 
d="M65 161c0 228 143 319 255 319c96 0 148 -68 148 -176c0 -162 -74 -316 -251 -316c-114 0 -152 84 -152 173zM296 437c-77 0 -142 -99 -142 -263c0 -95 32 -144 89 -144c91 0 136 136 136 282c0 90 -35 125 -83 125z" />
    <glyph glyph-name="p" unicode="p" horiz-adv-x="505" 
d="M185 134l-13 -74c27 -17 58 -25 86 -25c86 0 155 116 155 266c0 84 -12 105 -45 105c-65 0 -164 -163 -183 -272zM64 -118l73 450c3 26 7 61 4 77c-14 5 -35 6 -69 5l-6 33c57 7 121 22 163 38l20 -15c-17 -33 -46 -126 -57 -197l6 -5c49 121 114 212 197 212
c69 0 107 -45 107 -166c0 -208 -162 -326 -264 -326c-30 0 -55 6 -76 13l-14 -92c-2 -25 -2 -41 1 -57c11 -5 41 -10 77 -10l6 -33c-57 -3 -118 -11 -167 -24l-20 15c7 18 13 41 19 82z" />
    <glyph glyph-name="q" unicode="q" horiz-adv-x="484" 
d="M334 480c32 0 63 -10 84 -18c22 3 38 7 67 18l12 -14c-12 -36 -22 -69 -30 -105l-69 -447c-4 -43 -5 -88 0 -114c-27 -1 -51 -5 -85 -15l-20 15c7 18 12 41 19 82l30 187c3 19 44 163 51 182l-9 1c-42 -125 -133 -264 -226 -264c-63 0 -93 47 -93 131
c0 194 104 361 269 361zM387 366l7 42c-27 17 -58 25 -86 25c-95 0 -160 -146 -160 -285c0 -51 10 -84 44 -84c68 0 174 170 195 302z" />
    <glyph glyph-name="r" unicode="r" horiz-adv-x="415" 
d="M424 380l-19 -8c-9 14 -22 23 -42 23c-88 0 -169 -166 -185 -292c-2 -14 -3 -30 -3 -49c0 -16 1 -32 4 -47c-33 -4 -60 -10 -94 -20l-9 13c10 36 17 71 23 107l36 236c3 26 4 50 1 66c-14 5 -35 6 -69 5l-6 33c57 7 121 22 163 38l20 -15c-14 -32 -51 -140 -62 -211l6 -5
c45 131 106 226 203 226c11 0 32 -3 47 -11z" />
    <glyph glyph-name="s" unicode="s" horiz-adv-x="373" 
d="M388 453l-27 -96h-23c-14 47 -34 83 -93 83c-46 0 -83 -27 -83 -76c0 -38 27 -61 63 -77c60 -26 128 -48 128 -131c0 -108 -94 -168 -192 -168c-45 0 -97 9 -131 28l33 102h23c5 -48 33 -85 98 -85c55 0 92 32 92 85c0 55 -43 73 -98 95c-46 18 -91 47 -91 109
c0 105 94 158 183 158c35 0 89 -10 118 -27z" />
    <glyph glyph-name="t" unicode="t" horiz-adv-x="333" 
d="M319 100l23 -34c-52 -37 -121 -78 -181 -78c-22 0 -56 20 -69 51c-2 17 1 54 4 72l49 294h-57l7 42c50 22 89 65 116 103h43c-9 -24 -17 -62 -23 -93c37 1 86 3 125 8c-5 -16 -13 -47 -16 -62h-117l-48 -284c-1 -9 -2 -17 -2 -27c0 -27 11 -39 39 -39c32 0 74 24 107 47z
" />
    <glyph glyph-name="u" unicode="u" horiz-adv-x="544" 
d="M206 310l-29 -158c-13 -72 -4 -93 25 -93c59 0 179 144 200 289l2 14c1 17 6 66 -1 99c33 4 60 10 94 20l9 -13c-10 -36 -17 -71 -23 -107l-38 -225c-7 -45 -7 -64 -3 -72c11 -5 55 30 85 58l22 -23c-58 -68 -129 -111 -150 -111c-36 0 -45 47 -42 65s48 172 53 188l-9 2
c-44 -120 -131 -255 -228 -255c-56 0 -96 31 -77 141l38 214c3 26 5 50 2 66c-14 5 -35 6 -69 5l-6 33c57 7 121 22 163 38l20 -15c-14 -32 -26 -89 -38 -160z" />
    <glyph glyph-name="v" unicode="v" horiz-adv-x="454" 
d="M353 451l10 17l100 12c6 -27 6 -56 -8 -108c-40 -147 -132 -269 -231 -384h-56l-62 416c-14 14 -58 23 -68 24l5 32c52 0 90 7 128 14l13 -13l47 -381h7c66 82 135 194 135 298c0 31 -8 53 -20 73z" />
    <glyph glyph-name="w" unicode="w" horiz-adv-x="696" 
d="M352 451l10 17l100 12c6 -27 6 -69 -21 -150l38 -249h7c66 81 127 203 127 298c0 27 -6 52 -18 72l10 17l100 12c6 -27 6 -56 -8 -108c-40 -147 -124 -269 -228 -384h-56l-34 230c-40 -83 -103 -166 -158 -230h-56l-61 418c-20 14 -56 21 -66 22l6 33c55 -1 89 5 127 13
l13 -13l45 -378h7c60 81 133 201 133 296c0 27 -5 52 -17 72z" />
    <glyph glyph-name="x" unicode="x" horiz-adv-x="460" 
d="M140 16l-13 -19l-101 -9c-2 68 50 135 179 251l-70 169c-9 6 -50 13 -68 17l5 29c35 0 72 6 113 18l16 -12l67 -177c101 90 104 142 90 169l13 19l101 9c3 -63 -53 -125 -183 -242l59 -126c9 -15 25 -35 35 -42c15 5 53 27 80 48l22 -23c-32 -37 -99 -107 -131 -107
c-17 0 -35 18 -51 36l-77 169c-98 -89 -100 -150 -86 -177z" />
    <glyph glyph-name="y" unicode="y" horiz-adv-x="455" 
d="M354 451l10 17l100 12c6 -27 6 -56 -8 -108c-39 -143 -115 -252 -193 -367c-77 -114 -160 -207 -251 -207c-11 0 -28 2 -37 6l11 91l14 5c9 -9 24 -16 46 -16c55 0 103 45 132 112l-71 405c-14 14 -58 26 -68 27l7 39c55 -1 91 1 127 7l13 -13l60 -382h7
c60 81 119 205 119 300c0 27 -6 52 -18 72z" />
    <glyph glyph-name="z" unicode="z" horiz-adv-x="441" 
d="M413 396l-285 -322c38 12 55 15 83 15c35 0 67 -11 99 -11c40 0 58 26 81 87h36l-28 -154c-15 -9 -33 -14 -54 -14c-73 0 -172 45 -226 39c-20 -8 -40 -23 -75 -48l-29 37c18 17 40 37 55 56l262 317c-27 -7 -40 -7 -56 -7c-35 0 -60 12 -94 12s-41 -16 -77 -92h-34
l29 156c15 9 33 14 56 14c71 0 154 -46 208 -40c20 8 40 23 75 48l30 -34c-18 -17 -37 -38 -56 -59z" />
    <glyph glyph-name="bracketleft" unicode="[" horiz-adv-x="258" 
d="M66 -143l133 866h160l-7 -52h-100l-118 -762h100l-7 -52h-161z" />
    <glyph glyph-name="bracketright" unicode="]" horiz-adv-x="258" 
d="M282 723l-133 -866h-160l7 52h100l118 762h-100l7 52h161z" />
    <glyph glyph-name="parenleft" unicode="(" horiz-adv-x="270" 
d="M102 192c0 202 88 384 227 522l26 -21c-115 -138 -190 -322 -190 -503c0 -136 23 -236 61 -310l-33 -21c-42 66 -91 197 -91 333z" />
    <glyph glyph-name="parenright" unicode=")" horiz-adv-x="276" 
d="M254 381c0 -202 -88 -384 -227 -522l-26 21c115 138 190 322 190 503c0 136 -23 236 -61 310l33 21c42 -66 91 -197 91 -333z" />
    <glyph glyph-name="braceleft" unicode="{" horiz-adv-x="256" 
d="M64 327c47 1 90 11 102 91c10 60 8 132 18 199c10 61 51 105 112 105c26 0 43 -6 55 -12l-18 -39c-10 3 -21 5 -29 5c-28 0 -49 -15 -55 -55c-9 -60 -9 -137 -20 -205c-13 -82 -51 -104 -87 -118c27 -12 54 -29 54 -83c0 -72 -50 -198 -50 -270c0 -29 16 -40 39 -40
c9 0 21 2 30 5l7 -39c-14 -6 -33 -13 -59 -13c-54 0 -81 35 -81 85c0 74 50 188 50 262c0 56 -36 69 -77 70z" />
    <glyph glyph-name="braceright" unicode="}" horiz-adv-x="271" 
d="M287 253c-47 -1 -90 -11 -102 -91c-10 -60 -8 -132 -18 -199c-10 -61 -51 -105 -112 -105c-26 0 -43 6 -55 12l18 39c10 -3 21 -5 29 -5c28 0 49 15 55 55c9 60 9 137 20 205c13 82 51 104 87 118c-27 12 -54 29 -54 83c0 72 50 198 50 270c0 29 -16 40 -39 40
c-9 0 -21 -2 -30 -5l-7 39c14 6 33 13 59 13c54 0 81 -35 81 -85c0 -74 -50 -188 -50 -262c0 -56 36 -69 77 -70z" />
    <glyph glyph-name="backslash" unicode="\" horiz-adv-x="409" 
d="M155 733l204 -826h-50l-204 826h50z" />
    <glyph glyph-name="slash" unicode="/" horiz-adv-x="353" 
d="M10 -93l392 826h52c-129 -273 -263 -552 -392 -826h-52z" />
    <glyph glyph-name="brokenbar" unicode="&#xa6;" horiz-adv-x="261" 
d="M78 -113l66 415h59l-66 -415h-59zM274 753l-56 -355h-59l56 355h59z" />
    <glyph glyph-name="bar" unicode="|" horiz-adv-x="261" 
d="M80 -113l132 866h59l-133 -866h-58z" />
    <glyph glyph-name="asciicircum" unicode="^" horiz-adv-x="510" 
d="M527 299l-55 -20l-123 334l-222 -339l-52 25l238 365h82z" />
    <glyph glyph-name="underscore" unicode="_" horiz-adv-x="485" 
d="M457 -181h-484l8 52h484z" />
    <glyph glyph-name="asciitilde" unicode="~" horiz-adv-x="451" 
d="M95 290l-32 16c10 33 61 98 140 98c72 0 139 -42 201 -42c32 0 43 14 54 38l34 -13c-7 -40 -42 -99 -115 -99c-82 0 -150 40 -212 40c-26 0 -52 -9 -70 -38z" />
    <glyph glyph-name="uni00A0" unicode="&#xa0;" horiz-adv-x="195" 
 />
    <glyph glyph-name="zero" unicode="0" 
d="M341 480c-140 0 -182 -169 -182 -279c0 -97 28 -171 112 -171c131 0 186 186 186 295c0 96 -33 155 -116 155zM64 205c0 152 95 317 289 317c139 0 195 -97 195 -218c0 -153 -108 -315 -284 -315c-105 0 -200 63 -200 216z" />
    <glyph glyph-name="one" unicode="1" horiz-adv-x="375" 
d="M193 148l31 197c4 29 6 67 2 83c-33 -1 -70 -4 -104 -5l6 36c106 28 155 49 199 75l16 -10c-9 -23 -21 -61 -26 -96l-44 -289c-1 -14 -2 -29 -2 -43c0 -13 1 -25 2 -37c26 -14 65 -23 97 -29l-5 -32c-39 1 -107 2 -146 2c-41 0 -118 -3 -161 -5l5 32c40 7 84 17 106 31
c11 28 15 50 24 90z" />
    <glyph glyph-name="two" unicode="2" horiz-adv-x="482" 
d="M38 0l8 54c121 71 320 186 320 322c0 55 -27 95 -98 95c-72 0 -98 -25 -120 -103h-33c2 30 3 81 3 111c58 25 129 43 199 43c86 0 146 -42 146 -131c0 -155 -213 -266 -328 -326l2 -10c31 7 77 12 118 12h100c35 42 56 73 66 96l45 -8c-24 -48 -42 -104 -54 -155h-374z
" />
    <glyph glyph-name="three" unicode="3" horiz-adv-x="432" 
d="M42 -121l-9 41c43 5 278 33 278 178c0 66 -30 104 -107 104c-19 0 -37 0 -60 -6l-12 11l27 41c71 4 186 53 186 142c0 43 -26 84 -88 84c-70 0 -91 -33 -118 -101h-32c3 28 4 81 4 108c53 23 128 41 174 41c93 0 145 -46 145 -116c0 -91 -85 -138 -160 -161l2 -10
c78 -7 131 -52 131 -135c0 -168 -212 -205 -361 -221z" />
    <glyph glyph-name="four" unicode="4" horiz-adv-x="486" 
d="M302 -9l10 73h-253l-12 51l321 392l89 14l3 -10l-61 -398h77l-8 -49h-78l-5 -44c-5 -42 -5 -85 0 -111c-27 -1 -51 -5 -85 -15l-18 15c7 18 13 41 20 82zM321 115l28 184c6 37 18 97 30 131l-6 7l-266 -322h214z" />
    <glyph glyph-name="five" unicode="5" horiz-adv-x="464" 
d="M54 -120l-10 39c112 13 295 50 295 209c0 79 -40 117 -111 117c-37 0 -67 -8 -112 -27l-12 7l60 285h310l-12 -53l-22 -15h-237l-41 -160l7 -7c48 19 74 25 111 25c73 0 154 -42 154 -153c0 -181 -164 -250 -380 -267z" />
    <glyph glyph-name="six" unicode="6" horiz-adv-x="515" 
d="M95 196c0 215 180 384 400 438l9 -28c-157 -61 -253 -150 -299 -271l6 -4c57 45 98 53 138 53c94 0 144 -74 144 -160c0 -133 -91 -236 -223 -236c-111 0 -175 87 -175 208zM285 32c85 0 118 98 118 182c0 72 -26 119 -92 119c-38 0 -76 -17 -114 -43
c-9 -38 -13 -68 -13 -114c0 -79 31 -144 101 -144z" />
    <glyph glyph-name="seven" unicode="7" horiz-adv-x="436" 
d="M332 442h-161c-11 -25 -18 -46 -27 -82l-30 -4h-11c5 39 7 121 6 154h395l-6 -46c-156 -206 -267 -369 -293 -483c-6 -25 -4 -47 2 -65l-107 -20l-13 19c55 164 197 362 335 526l-5 6c-13 -2 -41 -5 -85 -5z" />
    <glyph glyph-name="eight" unicode="8" horiz-adv-x="477" 
d="M342 621c85 0 140 -50 140 -126c0 -75 -58 -124 -124 -168c60 -43 98 -79 98 -141c0 -109 -93 -197 -224 -197c-108 0 -161 59 -161 134c0 85 63 142 139 185c-46 33 -68 71 -68 121c0 106 79 192 200 192zM326 344c45 32 86 78 86 142c0 44 -21 91 -84 91
c-69 0 -112 -47 -112 -105c0 -44 16 -79 110 -128zM252 36c64 0 122 40 122 115c0 44 -26 87 -135 140c-50 -34 -90 -87 -90 -157c0 -63 40 -98 103 -98z" />
    <glyph glyph-name="nine" unicode="9" horiz-adv-x="524" 
d="M503 312c0 -215 -180 -384 -400 -438l-9 28c157 61 253 150 299 271l-6 4c-57 -45 -98 -53 -138 -53c-94 0 -144 74 -144 160c0 133 91 236 223 236c111 0 175 -87 175 -208zM313 476c-85 0 -118 -98 -118 -182c0 -72 26 -119 92 -119c38 0 76 17 114 43
c9 38 13 68 13 114c0 79 -31 144 -101 144z" />
    <glyph glyph-name="cent" unicode="&#xa2;" horiz-adv-x="461" 
d="M365 511l39 107l36 -8l-37 -103c37 -7 71 -19 92 -28c-11 -34 -22 -86 -30 -126h-17l-36 8c6 29 9 56 3 80c-8 6 -18 12 -31 17l-125 -345c52 -17 117 2 165 30l15 -31c-30 -20 -71 -51 -98 -65c-39 -13 -75 -16 -111 -11l-45 -123l-36 7l45 124c-64 25 -100 87 -100 172
c0 158 96 295 271 295zM184 251c0 -57 13 -96 41 -121l123 337c-120 0 -164 -121 -164 -216z" />
    <glyph glyph-name="sterling" unicode="&#xa3;" horiz-adv-x="532" 
d="M214 438c28 91 101 183 240 183c53 0 109 -12 136 -25c-7 -34 -20 -102 -24 -146h-18l-36 6c2 27 1 75 -6 98c-18 14 -42 18 -67 18c-70 0 -113 -44 -136 -140c-6 -25 -11 -48 -17 -82h150l-22 -56h-140c-23 -109 -40 -163 -133 -233l4 -8c62 9 159 18 232 18h32
c22 34 37 65 57 112l48 -7c-15 -55 -31 -121 -41 -176c-52 2 -110 4 -169 4c-86 0 -175 -3 -246 -7l-11 62c90 35 117 137 133 235h-83l20 56h77c7 34 10 53 20 88z" />
    <glyph glyph-name="dollar" unicode="$" horiz-adv-x="494" 
d="M331 625l13 78h37l-12 -79c50 -3 106 -16 145 -36c-10 -35 -23 -98 -27 -144h-15l-38 5c3 31 3 63 -4 93c-15 16 -41 32 -69 38l-33 -223c73 -41 139 -80 139 -166c0 -123 -98 -187 -196 -204l-14 -86h-38l13 83c-61 0 -144 14 -190 43c16 41 36 116 46 169l47 -7
c-4 -40 -8 -77 -2 -113c21 -24 60 -42 107 -45l37 246c-84 38 -144 83 -144 166c0 111 98 177 198 182zM217 476c0 -48 23 -76 74 -105l33 209c-65 -4 -107 -44 -107 -104zM378 158c0 48 -27 78 -67 102l-33 -227c66 15 100 61 100 125z" />
    <glyph glyph-name="yen" unicode="&#xa5;" horiz-adv-x="558" 
d="M506 172h-158l-6 -38c-3 -24 -1 -49 2 -75c22 -14 43 -24 68 -30l-6 -31c-38 1 -77 2 -116 2c-43 0 -87 -1 -130 -2l6 33c24 5 46 11 69 24c14 32 21 59 33 117h-156c1 15 4 26 5 40h157l11 77h-155l7 40h128l-93 220c-18 11 -42 23 -67 31l5 33c51 -2 79 -2 115 -2
c40 0 80 1 118 2l-5 -31c-27 -5 -48 -12 -74 -24l-3 -10l77 -211h10l153 213l-3 8c-19 10 -36 18 -59 24l4 31c24 -1 48 -2 103 -2c24 0 60 1 92 2l-5 -32c-33 -8 -48 -16 -65 -25l-171 -227h134l-7 -40h-157l-13 -77h157z" />
    <glyph glyph-name="Euro" unicode="&#x20ac;" horiz-adv-x="581" 
d="M159 231h-83l10 40h75c1 18 3 43 9 77h-64l13 40h62c47 156 167 234 300 234c54 0 110 -10 158 -24c-10 -33 -25 -100 -32 -139h-16c-11 2 -24 6 -35 8c4 17 6 34 6 52c0 12 -1 25 -3 34c-29 14 -54 20 -87 20c-100 0 -170 -53 -203 -185h241l-11 -40h-240
c-4 -26 -7 -51 -8 -77h223l-12 -40h-212c3 -100 38 -195 147 -195c42 0 66 7 85 16c12 25 25 71 28 99l38 8h17c-8 -40 -16 -108 -18 -146c-49 -23 -112 -30 -164 -30c-157 0 -221 112 -224 248z" />
    <glyph glyph-name="florin" unicode="&#x192;" horiz-adv-x="486" 
d="M299 351l-64 -300c-9 -40 -24 -80 -40 -107c-44 -71 -110 -104 -185 -104c-32 0 -80 12 -109 30l59 79h19c13 -34 36 -58 72 -58c27 0 62 9 89 99c4 14 11 42 15 61l64 300h-84l11 46c26 3 74 4 91 9c9 41 23 82 40 110c44 71 110 104 185 104c32 0 75 -12 104 -30
l-59 -79h-19c-13 34 -36 58 -72 58c-27 0 -62 -9 -89 -99c-5 -15 -12 -45 -16 -64c44 0 101 0 149 5c-11 -21 -17 -41 -23 -60h-138z" />
    <glyph glyph-name="section" unicode="&#xa7;" horiz-adv-x="483" 
d="M126 -56c11 -12 40 -33 96 -33c58 0 104 34 104 92c0 48 -31 74 -109 107c-74 32 -115 76 -115 140c0 76 54 120 117 162c-38 24 -65 56 -65 105c0 96 94 147 196 147c54 0 113 -16 146 -37c-11 -33 -22 -81 -28 -120h-17l-37 8c6 26 8 55 5 77c-16 15 -46 29 -80 29
c-49 0 -101 -27 -101 -81c0 -41 20 -60 91 -92c87 -39 139 -73 139 -144c0 -78 -62 -124 -131 -164c45 -28 78 -58 78 -116c0 -93 -96 -158 -205 -158c-82 0 -135 21 -162 35c11 33 23 88 30 127h16l37 -8c-6 -26 -9 -54 -5 -76zM291 164c38 22 89 66 89 119
c0 48 -49 80 -113 107c-39 -23 -78 -69 -78 -123c0 -43 32 -74 102 -103z" />
    <glyph glyph-name="copyright" unicode="&#xa9;" horiz-adv-x="736" 
d="M748 331c0 -198 -135 -331 -331 -331c-219 0 -330 138 -330 317c0 207 148 331 332 331c204 0 329 -125 329 -317zM699 325c0 182 -117 286 -280 286c-161 0 -281 -112 -281 -293c0 -171 106 -281 281 -281c173 0 280 114 280 288zM544 511c-35 9 -76 13 -112 13
c-116 0 -201 -81 -201 -194c0 -112 69 -195 207 -195c40 0 73 7 105 20c1 29 4 82 9 104l-34 4c-5 -21 -17 -63 -28 -77c-12 -7 -27 -14 -60 -14c-91 0 -123 79 -123 168c0 103 49 148 116 148c28 0 45 -4 68 -12c6 -15 11 -45 12 -59l26 -4h11c-2 28 1 77 4 98z" />
    <glyph glyph-name="registered" unicode="&#xae;" horiz-adv-x="424" 
d="M469 479c0 -109 -75 -183 -184 -183c-121 0 -183 76 -183 176c0 114 82 184 184 184c113 0 183 -70 183 -177zM434 476c0 97 -62 151 -148 151c-84 0 -148 -58 -148 -154c0 -91 56 -148 148 -148s148 59 148 151zM260 426v45h13l43 -59c5 -7 11 -17 15 -24h48v9l-18 12
l-47 65c26 6 46 23 46 50c0 38 -30 49 -65 49h-49c-15 0 -34 0 -47 1v-12c9 -3 15 -5 22 -8c2 -7 3 -14 3 -21v-98c-1 -14 -2 -23 -4 -32c-6 -3 -11 -5 -19 -6v-10c14 0 33 1 47 1c13 0 27 -1 40 -1v10c-9 1 -16 4 -24 8c-3 7 -4 13 -4 21zM284 489h-24v43c0 8 0 15 2 23h19
c26 0 41 -9 41 -33c0 -23 -14 -33 -38 -33z" />
    <glyph glyph-name="trademark" unicode="&#x2122;" horiz-adv-x="897" 
d="M242 614h-59c-6 -18 -13 -61 -14 -75l-28 -4h-15c1 37 0 75 -5 113h313c-3 -20 -6 -64 -6 -93c0 -9 0 -15 1 -20h-16l-28 4c-1 14 -8 58 -13 75h-60c-3 -15 -4 -30 -5 -44v-207c0 -16 2 -32 6 -45c12 -6 33 -12 51 -15v-25c-23 1 -60 1 -83 1c-25 0 -58 0 -82 -1v24
c15 4 29 8 40 14c5 17 6 32 8 59v194c-1 18 -3 32 -5 45zM881 565v-205c1 -15 3 -31 7 -42c13 -8 25 -13 40 -16v-25c-23 1 -54 1 -77 1c-25 0 -48 0 -74 -1v24c14 4 25 7 36 13c5 19 6 34 8 63v202l-106 -286h-45l-107 294v-224c1 -17 2 -31 6 -45c13 -8 28 -13 43 -16v-25
c-23 1 -36 1 -59 1c-26 0 -50 0 -75 -1v25c13 3 22 6 33 13c4 18 6 34 8 63v187c-1 16 -2 32 -5 46c-12 8 -25 13 -38 15v22c20 -1 46 -1 67 -1c19 0 45 0 64 1l91 -270h4l99 270c14 -1 49 -1 68 -1c24 0 45 1 55 1v-22c-13 -2 -26 -7 -39 -15c-2 -14 -3 -30 -4 -46z" />
    <glyph glyph-name="ordfeminine" unicode="&#xaa;" horiz-adv-x="422" 
d="M337 525l6 35c-19 12 -44 18 -63 18c-73 0 -120 -125 -120 -221c0 -38 10 -58 33 -58c48 0 127 128 144 226zM303 293c4 17 30 104 37 125l-8 2c-45 -105 -103 -181 -168 -181c-54 0 -76 41 -76 101c0 186 119 277 207 277c29 0 55 -8 71 -14c17 4 33 9 53 15l13 -15
c-9 -27 -18 -56 -24 -83l-26 -169c-5 -29 -5 -44 -3 -50c11 -2 42 22 65 42l18 -19c-46 -53 -106 -85 -128 -85c-12 0 -35 34 -31 54z" />
    <glyph glyph-name="ordmasculine" unicode="&#xba;" horiz-adv-x="389" 
d="M88 373c0 173 113 244 202 244c78 0 121 -55 121 -137c0 -123 -59 -241 -200 -241c-93 0 -123 66 -123 134zM272 578c-56 0 -104 -73 -104 -196c0 -70 23 -106 63 -106c66 0 99 101 99 210c0 67 -24 92 -58 92z" />
    <glyph glyph-name="guillemotleft" unicode="&#xab;" horiz-adv-x="441" 
d="M435 62v158v25v172v-19v-163v-152v-21zM209 62l-131 158l5 25l171 172l25 -19l-109 -163l67 -152zM380 62l-131 158l5 25l171 172l25 -19l-109 -163l67 -152z" />
    <glyph glyph-name="guillemotright" unicode="&#xbb;" horiz-adv-x="441" 
d="M133 417l131 -158l-5 -25l-171 -172l-25 19l109 163l-67 152zM304 417l131 -158l-5 -25l-171 -172l-25 19l109 163l-67 152z" />
    <glyph glyph-name="guilsinglleft" unicode="&#x2039;" horiz-adv-x="270" 
d="M209 62l-131 158l5 25l171 172l25 -19l-109 -163l67 -152z" />
    <glyph glyph-name="guilsinglright" unicode="&#x203a;" horiz-adv-x="270" 
d="M133 417l131 -158l-5 -25l-171 -172l-25 19l109 163l-67 152z" />
    <glyph glyph-name="quoteleft" unicode="&#x2018;" horiz-adv-x="221" 
d="M245 666l16 -25c-21 -15 -59 -50 -59 -85c0 -25 23 -39 23 -65c0 -31 -25 -51 -56 -51c-28 0 -47 19 -47 56c0 71 62 131 123 170z" />
    <glyph glyph-name="quoteright" unicode="&#x2019;" horiz-adv-x="211" 
d="M140 440l-16 25c21 15 59 50 59 85c0 25 -23 39 -23 65c0 31 25 51 56 51c28 0 47 -19 47 -56c0 -71 -62 -131 -123 -170z" />
    <glyph glyph-name="quotesinglbase" unicode="&#x201a;" horiz-adv-x="233" 
d="M65 -122l-16 25c21 15 59 50 59 85c0 25 -23 39 -23 65c0 31 25 51 56 51c28 0 47 -19 47 -56c0 -71 -62 -131 -123 -170z" />
    <glyph glyph-name="quotedblleft" unicode="&#x201c;" horiz-adv-x="379" 
d="M245 666l16 -25c-21 -15 -59 -50 -59 -85c0 -25 23 -39 23 -65c0 -31 -25 -51 -56 -51c-28 0 -47 19 -47 56c0 71 62 131 123 170zM403 666l16 -25c-21 -15 -59 -50 -59 -85c0 -25 23 -39 23 -65c0 -31 -25 -51 -56 -51c-28 0 -47 19 -47 56c0 71 62 131 123 170z" />
    <glyph glyph-name="quotedblright" unicode="&#x201d;" horiz-adv-x="370" 
d="M140 440l-16 25c21 15 59 50 59 85c0 25 -23 39 -23 65c0 31 25 51 56 51c28 0 47 -19 47 -56c0 -71 -62 -131 -123 -170zM298 440l-16 25c21 15 59 50 59 85c0 25 -23 39 -23 65c0 31 25 51 56 51c28 0 47 -19 47 -56c0 -71 -62 -131 -123 -170z" />
    <glyph glyph-name="quotedblbase" unicode="&#x201e;" horiz-adv-x="391" 
d="M65 -122l-16 25c21 15 59 50 59 85c0 25 -23 39 -23 65c0 31 25 51 56 51c28 0 47 -19 47 -56c0 -71 -62 -131 -123 -170zM223 -122l-16 25c21 15 59 50 59 85c0 25 -23 39 -23 65c0 31 25 51 56 51c28 0 47 -19 47 -56c0 -71 -62 -131 -123 -170z" />
    <glyph glyph-name="dagger" unicode="&#x2020;" horiz-adv-x="439" 
d="M143 -153l105 560l-123 -24c-32 -6 -50 14 -50 37c0 35 22 59 57 53l127 -22v163c0 34 27 50 54 50c31 0 46 -18 37 -50l-46 -162l136 21c29 4 44 -13 44 -39c0 -36 -24 -59 -58 -52l-126 25l-67 -560h-90z" />
    <glyph glyph-name="daggerdbl" unicode="&#x2021;" horiz-adv-x="484" 
d="M242 253l46 154l-123 -24c-32 -6 -50 14 -50 37c0 35 22 59 57 53l127 -22v163c0 34 27 50 54 50c31 0 46 -18 37 -50l-46 -162l136 21c29 4 44 -13 44 -39c0 -36 -24 -59 -58 -52l-133 26l1 -153l-48 -155l123 24c32 6 50 -14 50 -37c0 -35 -22 -59 -57 -53l-127 22
v-163c0 -34 -27 -50 -54 -50c-31 0 -46 18 -37 50l46 162l-136 -21c-29 -4 -44 13 -44 39c0 36 24 59 58 52l133 -25z" />
    <glyph glyph-name="bullet" unicode="&#x2022;" horiz-adv-x="382" 
d="M105 301c0 66 46 139 140 139c79 0 117 -47 117 -105c0 -77 -55 -147 -141 -147c-82 0 -116 50 -116 113z" />
    <glyph glyph-name="ellipsis" unicode="&#x2026;" horiz-adv-x="638" 
d="M281 41c0 35 26 64 65 64c32 0 51 -23 51 -50c0 -34 -28 -62 -65 -62c-33 0 -51 23 -51 48zM497 41c0 35 26 64 65 64c32 0 51 -23 51 -50c0 -34 -28 -62 -65 -62c-33 0 -51 23 -51 48zM65 41c0 35 26 64 65 64c32 0 51 -23 51 -50c0 -34 -28 -62 -65 -62
c-33 0 -51 23 -51 48z" />
    <glyph glyph-name="paragraph" unicode="&#xb6;" horiz-adv-x="540" 
d="M255 29l37 235c-89 3 -182 48 -182 170c0 149 112 219 261 219c54 0 148 -7 229 -3l-5 -36c-27 -7 -48 -15 -71 -28c-8 -24 -13 -45 -19 -71l-67 -440c-10 -62 -18 -104 -29 -149c-28 -24 -87 -70 -117 -97l-21 22c57 70 93 113 106 197l88 549h-65l-92 -568h-53z" />
    <glyph glyph-name="periodcentered" unicode="&#xb7;" horiz-adv-x="217" 
d="M95 302c0 38 29 70 72 70c35 0 55 -25 55 -55c0 -37 -30 -68 -71 -68c-36 0 -56 25 -56 53z" />
    <glyph glyph-name="uni00AD" unicode="&#xad;" horiz-adv-x="357" 
d="M79 252l12 78h278l-13 -78h-277z" />
    <glyph glyph-name="endash" unicode="&#x2013;" horiz-adv-x="485" 
d="M42 267l10 63h483l-10 -63h-483z" />
    <glyph glyph-name="emdash" unicode="&#x2014;" horiz-adv-x="970" 
d="M41 267l10 63h972l-10 -63h-972z" />
    <glyph glyph-name="hyphen.case" horiz-adv-x="327" 
d="M84 272l11 73h248l-12 -73h-247z" />
    <glyph glyph-name="Agrave" unicode="&#xc0;" horiz-adv-x="621" 
d="M466 62l-27 173h-208l-84 -172l2 -10c19 -9 39 -18 62 -24l-5 -31c-25 1 -51 2 -98 2c-36 0 -71 -1 -102 -2l6 32c28 8 44 15 67 27l301 593h69l106 -589c17 -11 41 -21 68 -30l-6 -33c-52 2 -81 2 -116 2c-39 0 -79 -1 -119 -2l5 31c28 5 49 12 75 24zM378 534
l-125 -251h178l-40 251h-13zM500 723l-25 -28l-177 101l-4 21c23 7 57 22 77 35z" />
    <glyph glyph-name="Aacute" unicode="&#xc1;" horiz-adv-x="621" 
d="M466 62l-27 173h-208l-84 -172l2 -10c19 -9 39 -18 62 -24l-5 -31c-25 1 -51 2 -98 2c-36 0 -71 -1 -102 -2l6 32c28 8 44 15 67 27l301 593h69l106 -589c17 -11 41 -21 68 -30l-6 -33c-52 2 -81 2 -116 2c-39 0 -79 -1 -119 -2l5 31c28 5 49 12 75 24zM378 534
l-125 -251h178l-40 251h-13zM350 697l-18 28l159 115c18 -17 39 -33 60 -44l-6 -20z" />
    <glyph glyph-name="Acircumflex" unicode="&#xc2;" horiz-adv-x="621" 
d="M466 62l-27 173h-208l-84 -172l2 -10c19 -9 39 -18 62 -24l-5 -31c-25 1 -51 2 -98 2c-36 0 -71 -1 -102 -2l6 32c28 8 44 15 67 27l301 593h69l106 -589c17 -11 41 -21 68 -30l-6 -33c-52 2 -81 2 -116 2c-39 0 -79 -1 -119 -2l5 31c28 5 49 12 75 24zM378 534
l-125 -251h178l-40 251h-13zM432 771l-132 -74l-24 25l138 124h51l93 -128l-27 -21z" />
    <glyph glyph-name="Atilde" unicode="&#xc3;" horiz-adv-x="621" 
d="M466 62l-27 173h-208l-84 -172l2 -10c19 -9 39 -18 62 -24l-5 -31c-25 1 -51 2 -98 2c-36 0 -71 -1 -102 -2l6 32c28 8 44 15 67 27l301 593h69l106 -589c17 -11 41 -21 68 -30l-6 -33c-52 2 -81 2 -116 2c-39 0 -79 -1 -119 -2l5 31c28 5 49 12 75 24zM378 534
l-125 -251h178l-40 251h-13zM274 720l-22 23c44 51 71 80 122 80s76 -41 123 -41c27 0 48 10 67 35l22 -20c-36 -52 -68 -84 -108 -84c-56 0 -89 42 -137 42c-24 0 -41 -8 -67 -35z" />
    <glyph glyph-name="Adieresis" unicode="&#xc4;" horiz-adv-x="621" 
d="M466 62l-27 173h-208l-84 -172l2 -10c19 -9 39 -18 62 -24l-5 -31c-25 1 -51 2 -98 2c-36 0 -71 -1 -102 -2l6 32c28 8 44 15 67 27l301 593h69l106 -589c17 -11 41 -21 68 -30l-6 -33c-52 2 -81 2 -116 2c-39 0 -79 -1 -119 -2l5 31c28 5 49 12 75 24zM378 534
l-125 -251h178l-40 251h-13zM334 814c31 0 43 -27 43 -45c0 -42 -21 -65 -56 -65c-27 0 -45 22 -45 44c0 36 19 66 58 66zM519 814c31 0 43 -27 43 -45c0 -42 -21 -65 -56 -65c-27 0 -45 22 -45 44c0 36 19 66 58 66z" />
    <glyph glyph-name="Aring" unicode="&#xc5;" horiz-adv-x="621" 
d="M329 729c0 66 47 123 119 123c59 0 86 -37 86 -86c0 -53 -33 -102 -85 -117l106 -588c17 -11 41 -21 68 -30l-6 -33c-52 2 -81 2 -116 2c-39 0 -79 -1 -119 -2l5 31c28 5 49 12 75 24l4 9l-27 173h-208l-84 -172l2 -10c19 -9 39 -18 62 -24l-5 -31c-25 1 -51 2 -98 2
c-36 0 -71 -1 -102 -2l6 32c28 8 44 15 67 27l300 591c-37 12 -50 46 -50 81zM378 534l-125 -251h178l-40 251h-13zM440 815c-41 0 -62 -43 -62 -79c0 -33 11 -54 43 -54c39 0 63 38 63 79c0 32 -12 54 -44 54z" />
    <glyph glyph-name="AE" unicode="&#xc6;" horiz-adv-x="816" 
d="M776 599h-190c-7 -24 -14 -53 -20 -83l-24 -163h122c27 1 34 4 41 8c20 25 32 48 42 72h29c-14 -68 -24 -139 -32 -207h-29c-1 25 -5 49 -12 68c-16 7 -33 9 -63 10h-107l-25 -170c-3 -27 -4 -58 -4 -85h207c20 27 55 94 65 124c17 -2 29 -5 45 -7
c-16 -42 -41 -124 -48 -166h-329c-29 0 -60 0 -85 -1c-8 0 -15 -1 -23 -1l6 32c22 5 36 10 59 23c12 32 19 61 30 113l10 69h-187l-106 -172l2 -10c19 -9 39 -18 62 -24c-1 -11 -4 -20 -5 -31c-39 2 -72 2 -111 2c-24 0 -61 -1 -92 -2l6 32c28 8 44 15 66 27l339 530
c-19 12 -52 23 -78 30l4 33c35 -2 78 -3 118 -3h397c-9 -35 -22 -101 -27 -145h-15l-38 5c4 29 5 60 0 92zM496 586h-17l-197 -303h167z" />
    <glyph glyph-name="Ccedilla" unicode="&#xc7;" horiz-adv-x="570" 
d="M370 -17l-7 -26c40 -11 67 -34 67 -70c0 -26 -11 -48 -28 -65c-28 -29 -79 -47 -148 -51l-3 31c86 11 111 40 111 71c0 23 -19 36 -56 40l-5 12l19 59c-170 12 -238 133 -238 277c0 213 132 403 371 403c65 0 123 -10 179 -24c-10 -38 -24 -102 -29 -151h-15l-38 5
c3 33 6 69 -3 100c-38 15 -64 21 -116 21c-186 0 -251 -195 -251 -340c0 -118 43 -239 184 -239c51 0 75 8 97 17c21 30 51 94 66 129l44 -7c-11 -38 -29 -113 -37 -161c-50 -20 -109 -29 -164 -31z" />
    <glyph glyph-name="Egrave" unicode="&#xc8;" horiz-adv-x="521" 
d="M481 599h-190c-8 -24 -15 -53 -19 -83l-25 -163h121c23 1 35 4 42 8c20 25 32 48 42 72h29c-13 -68 -24 -138 -32 -207h-29c-1 24 -5 51 -11 68c-19 7 -36 10 -65 10h-105l-24 -150c-2 -30 -6 -66 -8 -105h209c19 27 54 94 65 124l44 -7c-16 -42 -40 -124 -47 -166h-329
c-35 0 -70 0 -109 -2l6 32c22 5 37 10 60 23c12 32 19 61 30 113l52 346c4 27 4 49 3 75c-20 13 -36 22 -62 29l6 31h426c-10 -35 -23 -101 -28 -145h-15l-37 5c2 14 3 33 3 50c0 16 -1 31 -3 42zM450 723l-25 -28l-177 101l-4 21c23 7 57 22 77 35z" />
    <glyph glyph-name="Eacute" unicode="&#xc9;" horiz-adv-x="521" 
d="M481 599h-190c-8 -24 -15 -53 -19 -83l-25 -163h121c23 1 35 4 42 8c20 25 32 48 42 72h29c-13 -68 -24 -138 -32 -207h-29c-1 24 -5 51 -11 68c-19 7 -36 10 -65 10h-105l-24 -150c-2 -30 -6 -66 -8 -105h209c19 27 54 94 65 124l44 -7c-16 -42 -40 -124 -47 -166h-329
c-35 0 -70 0 -109 -2l6 32c22 5 37 10 60 23c12 32 19 61 30 113l52 346c4 27 4 49 3 75c-20 13 -36 22 -62 29l6 31h426c-10 -35 -23 -101 -28 -145h-15l-37 5c2 14 3 33 3 50c0 16 -1 31 -3 42zM311 697l-18 28l159 115c18 -17 39 -33 60 -44l-6 -20z" />
    <glyph glyph-name="Ecircumflex" unicode="&#xca;" horiz-adv-x="521" 
d="M481 599h-190c-8 -24 -15 -53 -19 -83l-25 -163h121c23 1 35 4 42 8c20 25 32 48 42 72h29c-13 -68 -24 -138 -32 -207h-29c-1 24 -5 51 -11 68c-19 7 -36 10 -65 10h-105l-24 -150c-2 -30 -6 -66 -8 -105h209c19 27 54 94 65 124l44 -7c-16 -42 -40 -124 -47 -166h-329
c-35 0 -70 0 -109 -2l6 32c22 5 37 10 60 23c12 32 19 61 30 113l52 346c4 27 4 49 3 75c-20 13 -36 22 -62 29l6 31h426c-10 -35 -23 -101 -28 -145h-15l-37 5c2 14 3 33 3 50c0 16 -1 31 -3 42zM372 771l-132 -74l-24 25l138 124h51l93 -128l-27 -21z" />
    <glyph glyph-name="Edieresis" unicode="&#xcb;" horiz-adv-x="521" 
d="M481 599h-190c-8 -24 -15 -53 -19 -83l-25 -163h121c23 1 35 4 42 8c20 25 32 48 42 72h29c-13 -68 -24 -138 -32 -207h-29c-1 24 -5 51 -11 68c-19 7 -36 10 -65 10h-105l-24 -150c-2 -30 -6 -66 -8 -105h209c19 27 54 94 65 124l44 -7c-16 -42 -40 -124 -47 -166h-329
c-35 0 -70 0 -109 -2l6 32c22 5 37 10 60 23c12 32 19 61 30 113l52 346c4 27 4 49 3 75c-20 13 -36 22 -62 29l6 31h426c-10 -35 -23 -101 -28 -145h-15l-37 5c2 14 3 33 3 50c0 16 -1 31 -3 42zM282 814c31 0 43 -27 43 -45c0 -42 -21 -65 -56 -65c-27 0 -45 22 -45 44
c0 36 19 66 58 66zM467 814c31 0 43 -27 43 -45c0 -42 -21 -65 -56 -65c-27 0 -45 22 -45 44c0 36 19 66 58 66z" />
    <glyph glyph-name="Igrave" unicode="&#xcc;" horiz-adv-x="303" 
d="M136 166l54 348c3 27 4 49 2 75c-21 14 -36 22 -62 29l5 32c36 -2 78 -3 117 -3c42 0 72 1 115 3l-5 -32c-26 -6 -45 -14 -65 -26c-11 -32 -20 -58 -31 -113l-53 -345c-2 -25 -1 -51 2 -75c21 -15 41 -24 67 -30l-6 -31c-38 1 -76 2 -116 2c-38 0 -70 0 -119 -2l6 32
c22 5 36 10 59 23c12 32 19 61 30 113zM341 723l-25 -28l-177 101l-4 21c23 7 57 22 77 35z" />
    <glyph glyph-name="Iacute" unicode="&#xcd;" horiz-adv-x="303" 
d="M136 166l54 348c3 27 4 49 2 75c-21 14 -36 22 -62 29l5 32c36 -2 78 -3 117 -3c42 0 72 1 115 3l-5 -32c-26 -6 -45 -14 -65 -26c-11 -32 -20 -58 -31 -113l-53 -345c-2 -25 -1 -51 2 -75c21 -15 41 -24 67 -30l-6 -31c-38 1 -76 2 -116 2c-38 0 -70 0 -119 -2l6 32
c22 5 36 10 59 23c12 32 19 61 30 113zM201 697l-18 28l159 115c18 -17 39 -33 60 -44l-6 -20z" />
    <glyph glyph-name="Icircumflex" unicode="&#xce;" horiz-adv-x="303" 
d="M136 166l54 348c3 27 4 49 2 75c-21 14 -36 22 -62 29l5 32c36 -2 78 -3 117 -3c42 0 72 1 115 3l-5 -32c-26 -6 -45 -14 -65 -26c-11 -32 -20 -58 -31 -113l-53 -345c-2 -25 -1 -51 2 -75c21 -15 41 -24 67 -30l-6 -31c-38 1 -76 2 -116 2c-38 0 -70 0 -119 -2l6 32
c22 5 36 10 59 23c12 32 19 61 30 113zM270 771l-132 -74l-24 25l138 124h51l93 -128l-27 -21z" />
    <glyph glyph-name="Idieresis" unicode="&#xcf;" horiz-adv-x="303" 
d="M136 166l54 348c3 27 4 49 2 75c-21 14 -36 22 -62 29l5 32c36 -2 78 -3 117 -3c42 0 72 1 115 3l-5 -32c-26 -6 -45 -14 -65 -26c-11 -32 -20 -58 -31 -113l-53 -345c-2 -25 -1 -51 2 -75c21 -15 41 -24 67 -30l-6 -31c-38 1 -76 2 -116 2c-38 0 -70 0 -119 -2l6 32
c22 5 36 10 59 23c12 32 19 61 30 113zM176 814c31 0 43 -27 43 -45c0 -42 -21 -65 -56 -65c-27 0 -45 22 -45 44c0 36 19 66 58 66zM361 814c31 0 43 -27 43 -45c0 -42 -21 -65 -56 -65c-27 0 -45 22 -45 44c0 36 19 66 58 66z" />
    <glyph glyph-name="Eth" unicode="&#xd0;" horiz-adv-x="627" 
d="M308 0h-152c-39 0 -89 -1 -116 -2l6 32c22 5 35 10 59 23c13 32 20 61 31 113l22 147h-75l8 50h75l23 151c2 26 4 51 1 75c-20 14 -35 22 -61 29l5 32c37 -2 75 -3 114 -3h142c132 0 258 -60 258 -248c0 -204 -121 -399 -340 -399zM550 391c0 147 -76 210 -194 210h-72
l-37 -238h173l-8 -50h-172l-28 -181c-2 -16 -4 -33 -4 -49c0 -14 1 -27 3 -36h79c204 0 260 171 260 344z" />
    <glyph glyph-name="Ntilde" unicode="&#xd1;" horiz-adv-x="698" 
d="M668 510l-78 -500l-65 -21l-263 592l-67 -440c-2 -26 -6 -54 -1 -82c20 -15 42 -24 69 -30l-6 -31c-38 2 -58 2 -98 2c-37 0 -70 0 -119 -2l6 32c22 5 36 10 59 23c12 32 20 61 31 113l51 335c4 27 4 58 5 86c-19 14 -40 22 -60 27l6 35c34 -1 67 -2 104 -2
c27 0 50 0 87 2l221 -520l58 376c2 14 3 31 3 47c0 15 -1 28 -3 37c-22 13 -50 25 -76 30l5 31c39 -3 71 -3 111 -3c38 0 86 1 122 3l-6 -32c-28 -7 -52 -15 -76 -29c-8 -24 -15 -50 -20 -79zM328 720l-22 23c44 51 71 80 122 80s76 -41 123 -41c27 0 48 10 67 35l22 -20
c-36 -52 -68 -84 -108 -84c-56 0 -89 42 -137 42c-24 0 -41 -8 -67 -35z" />
    <glyph glyph-name="Ograve" unicode="&#xd2;" horiz-adv-x="659" 
d="M331 -17c-166 0 -248 117 -248 281c0 186 119 400 358 400c148 0 238 -100 238 -254c0 -213 -128 -427 -348 -427zM405 615c-182 0 -224 -190 -224 -336c0 -132 36 -246 169 -246c169 0 229 195 229 348c0 134 -52 234 -174 234zM519 723l-25 -28l-177 101l-4 21
c23 7 57 22 77 35z" />
    <glyph glyph-name="Oacute" unicode="&#xd3;" horiz-adv-x="659" 
d="M331 -17c-166 0 -248 117 -248 281c0 186 119 400 358 400c148 0 238 -100 238 -254c0 -213 -128 -427 -348 -427zM405 615c-182 0 -224 -190 -224 -336c0 -132 36 -246 169 -246c169 0 229 195 229 348c0 134 -52 234 -174 234zM345 697l-18 28l159 115
c18 -17 39 -33 60 -44l-6 -20z" />
    <glyph glyph-name="Ocircumflex" unicode="&#xd4;" horiz-adv-x="659" 
d="M331 -17c-166 0 -248 117 -248 281c0 186 119 400 358 400c148 0 238 -100 238 -254c0 -213 -128 -427 -348 -427zM405 615c-182 0 -224 -190 -224 -336c0 -132 36 -246 169 -246c169 0 229 195 229 348c0 134 -52 234 -174 234zM451 771l-132 -74l-24 25l138 124h51
l93 -128l-27 -21z" />
    <glyph glyph-name="Otilde" unicode="&#xd5;" horiz-adv-x="659" 
d="M331 -17c-166 0 -248 117 -248 281c0 186 119 400 358 400c148 0 238 -100 238 -254c0 -213 -128 -427 -348 -427zM405 615c-182 0 -224 -190 -224 -336c0 -132 36 -246 169 -246c169 0 229 195 229 348c0 134 -52 234 -174 234zM316 720l-22 23c44 51 71 80 122 80
s76 -41 123 -41c27 0 48 10 67 35l22 -20c-36 -52 -68 -84 -108 -84c-56 0 -89 42 -137 42c-24 0 -41 -8 -67 -35z" />
    <glyph glyph-name="Odieresis" unicode="&#xd6;" horiz-adv-x="659" 
d="M331 -17c-166 0 -248 117 -248 281c0 186 119 400 358 400c148 0 238 -100 238 -254c0 -213 -128 -427 -348 -427zM405 615c-182 0 -224 -190 -224 -336c0 -132 36 -246 169 -246c169 0 229 195 229 348c0 134 -52 234 -174 234zM359 814c31 0 43 -27 43 -45
c0 -42 -21 -65 -56 -65c-27 0 -45 22 -45 44c0 36 19 66 58 66zM544 814c31 0 43 -27 43 -45c0 -42 -21 -65 -56 -65c-27 0 -45 22 -45 44c0 36 19 66 58 66z" />
    <glyph glyph-name="Oslash" unicode="&#xd8;" horiz-adv-x="659" 
d="M331 -17c-47 0 -88 10 -121 26l-69 -108l-40 23l70 111c-59 49 -88 131 -88 229c0 186 119 400 358 400c43 0 81 -9 114 -25l57 90l40 -23l-58 -91c54 -44 85 -116 85 -205c0 -213 -128 -427 -348 -427zM405 615c-182 0 -224 -190 -224 -336c0 -67 9 -129 35 -174
l298 470c-27 25 -63 40 -109 40zM579 381c0 61 -11 115 -34 156l-298 -469c25 -22 58 -35 103 -35c169 0 229 195 229 348z" />
    <glyph glyph-name="Ugrave" unicode="&#xd9;" horiz-adv-x="677" 
d="M563 279l36 235c2 28 3 50 1 75c-21 14 -35 22 -62 29l5 32c37 -2 55 -3 95 -3c42 0 72 1 114 3l-5 -33c-24 -6 -46 -15 -68 -26c-12 -32 -19 -59 -23 -86l-28 -186c-3 -22 -14 -83 -31 -142c-38 -134 -121 -189 -246 -189c-146 0 -212 65 -212 185c0 34 5 85 10 118
l34 224c3 25 3 46 0 72c-20 15 -42 24 -69 30l4 32c41 -2 69 -3 109 -3c42 0 87 1 130 3l-5 -32c-22 -6 -39 -11 -61 -24c-13 -32 -16 -44 -26 -97l-28 -185c-3 -23 -13 -86 -13 -129c0 -96 41 -138 143 -138c86 0 142 42 170 123c11 34 24 97 26 112zM528 723l-25 -28
l-177 101l-4 21c23 7 57 22 77 35z" />
    <glyph glyph-name="Uacute" unicode="&#xda;" horiz-adv-x="677" 
d="M563 279l36 235c2 28 3 50 1 75c-21 14 -35 22 -62 29l5 32c37 -2 55 -3 95 -3c42 0 72 1 114 3l-5 -33c-24 -6 -46 -15 -68 -26c-12 -32 -19 -59 -23 -86l-28 -186c-3 -22 -14 -83 -31 -142c-38 -134 -121 -189 -246 -189c-146 0 -212 65 -212 185c0 34 5 85 10 118
l34 224c3 25 3 46 0 72c-20 15 -42 24 -69 30l4 32c41 -2 69 -3 109 -3c42 0 87 1 130 3l-5 -32c-22 -6 -39 -11 -61 -24c-13 -32 -16 -44 -26 -97l-28 -185c-3 -23 -13 -86 -13 -129c0 -96 41 -138 143 -138c86 0 142 42 170 123c11 34 24 97 26 112zM392 697l-18 28
l159 115c18 -17 39 -33 60 -44l-6 -20z" />
    <glyph glyph-name="Ucircumflex" unicode="&#xdb;" horiz-adv-x="677" 
d="M563 279l36 235c2 28 3 50 1 75c-21 14 -35 22 -62 29l5 32c37 -2 55 -3 95 -3c42 0 72 1 114 3l-5 -33c-24 -6 -46 -15 -68 -26c-12 -32 -19 -59 -23 -86l-28 -186c-3 -22 -14 -83 -31 -142c-38 -134 -121 -189 -246 -189c-146 0 -212 65 -212 185c0 34 5 85 10 118
l34 224c3 25 3 46 0 72c-20 15 -42 24 -69 30l4 32c41 -2 69 -3 109 -3c42 0 87 1 130 3l-5 -32c-22 -6 -39 -11 -61 -24c-13 -32 -16 -44 -26 -97l-28 -185c-3 -23 -13 -86 -13 -129c0 -96 41 -138 143 -138c86 0 142 42 170 123c11 34 24 97 26 112zM474 771l-132 -74
l-24 25l138 124h51l93 -128l-27 -21z" />
    <glyph glyph-name="Udieresis" unicode="&#xdc;" horiz-adv-x="677" 
d="M563 279l36 235c2 28 3 50 1 75c-21 14 -35 22 -62 29l5 32c37 -2 55 -3 95 -3c42 0 72 1 114 3l-5 -33c-24 -6 -46 -15 -68 -26c-12 -32 -19 -59 -23 -86l-28 -186c-3 -22 -14 -83 -31 -142c-38 -134 -121 -189 -246 -189c-146 0 -212 65 -212 185c0 34 5 85 10 118
l34 224c3 25 3 46 0 72c-20 15 -42 24 -69 30l4 32c41 -2 69 -3 109 -3c42 0 87 1 130 3l-5 -32c-22 -6 -39 -11 -61 -24c-13 -32 -16 -44 -26 -97l-28 -185c-3 -23 -13 -86 -13 -129c0 -96 41 -138 143 -138c86 0 142 42 170 123c11 34 24 97 26 112zM377 814
c31 0 43 -27 43 -45c0 -42 -21 -65 -56 -65c-27 0 -45 22 -45 44c0 36 19 66 58 66zM562 814c31 0 43 -27 43 -45c0 -42 -21 -65 -56 -65c-27 0 -45 22 -45 44c0 36 19 66 58 66z" />
    <glyph glyph-name="Yacute" unicode="&#xdd;" horiz-adv-x="558" 
d="M266 166l14 90l-112 330c-18 11 -42 23 -67 31l5 33c43 -2 73 -3 115 -3c39 0 79 1 118 3l-4 -32c-30 -5 -49 -12 -76 -23l-3 -10l81 -263h11l170 263l-3 10c-18 10 -38 17 -61 23l5 32c39 -2 64 -3 102 -3c24 0 61 1 91 3l-5 -33c-30 -10 -49 -16 -65 -24l-220 -329
l-20 -130c-2 -24 -1 -49 2 -75c21 -14 42 -24 67 -30l-6 -31c-38 1 -76 2 -115 2c-44 0 -87 -1 -130 -2l6 33c24 5 46 11 69 24c13 32 20 59 31 111zM332 697l-18 28l159 115c18 -17 39 -33 60 -44l-6 -20z" />
    <glyph glyph-name="Thorn" unicode="&#xde;" horiz-adv-x="501" 
d="M135 166l54 348c3 27 4 49 2 75c-21 14 -36 22 -62 29l5 32c36 -2 78 -3 117 -3c42 0 72 1 115 3l-5 -32c-26 -6 -48 -14 -68 -26c-6 -17 -10 -33 -15 -52h75c111 0 188 -45 188 -155c0 -149 -122 -215 -271 -215c-13 0 -38 0 -52 1l-6 -37c-2 -25 -1 -51 2 -75
c21 -15 41 -24 67 -30l-6 -31c-38 1 -76 2 -116 2c-38 0 -70 0 -119 -2l6 32c22 5 36 10 59 23c12 32 19 61 30 113zM271 217c122 0 178 75 178 154c0 87 -45 123 -119 123h-62l-43 -276c11 -1 34 -1 46 -1z" />
    <glyph glyph-name="germandbls" unicode="&#xdf;" horiz-adv-x="560" 
d="M75 -55l69 470c14 94 30 130 45 158c38 71 109 111 187 111c76 0 169 -33 169 -110c0 -100 -152 -124 -152 -206c0 -88 162 -71 162 -207c0 -92 -74 -173 -189 -173c-51 0 -97 9 -133 31c11 34 26 100 33 138l50 -8c-4 -33 -6 -54 -7 -84c18 -21 41 -32 75 -32
c53 0 92 32 92 90c0 120 -165 83 -165 206c0 109 152 140 152 222c0 57 -55 82 -109 82c-53 0 -102 -22 -117 -126l-71 -490c-6 -40 -19 -90 -33 -116c-40 -72 -104 -110 -166 -110c-37 0 -66 9 -88 20l24 93h19c16 -34 41 -60 77 -60c37 0 66 33 76 101z" />
    <glyph glyph-name="agrave" unicode="&#xe0;" horiz-adv-x="521" 
d="M386 366l7 42c-27 17 -58 25 -86 25c-95 0 -159 -146 -159 -285c0 -51 10 -84 44 -84c68 0 173 170 194 302zM393 251l-9 1c-51 -148 -139 -264 -228 -264c-64 0 -91 53 -91 131c0 252 151 361 262 361c37 0 69 -10 90 -18c22 3 38 7 67 18l12 -14
c-12 -36 -22 -69 -30 -105l-35 -225c-7 -45 -7 -64 -3 -72c11 -5 55 30 85 58l22 -23c-58 -68 -133 -111 -158 -111c-14 0 -38 38 -32 70c3 18 43 177 48 193zM412 556l-30 -23l-158 139v21c24 3 60 11 82 20z" />
    <glyph glyph-name="aacute" unicode="&#xe1;" horiz-adv-x="521" 
d="M386 366l7 42c-27 17 -58 25 -86 25c-95 0 -159 -146 -159 -285c0 -51 10 -84 44 -84c68 0 173 170 194 302zM393 251l-9 1c-51 -148 -139 -264 -228 -264c-64 0 -91 53 -91 131c0 252 151 361 262 361c37 0 69 -10 90 -18c22 3 38 7 67 18l12 -14
c-12 -36 -22 -69 -30 -105l-35 -225c-7 -45 -7 -64 -3 -72c11 -5 55 30 85 58l22 -23c-58 -68 -133 -111 -158 -111c-14 0 -38 38 -32 70c3 18 43 177 48 193zM318 533l-24 25l142 154c21 -13 55 -26 78 -33l-4 -21z" />
    <glyph glyph-name="acircumflex" unicode="&#xe2;" horiz-adv-x="521" 
d="M386 366l7 42c-27 17 -58 25 -86 25c-95 0 -159 -146 -159 -285c0 -51 10 -84 44 -84c68 0 173 170 194 302zM393 251l-9 1c-51 -148 -139 -264 -228 -264c-64 0 -91 53 -91 131c0 252 151 361 262 361c37 0 69 -10 90 -18c22 3 38 7 67 18l12 -14
c-12 -36 -22 -69 -30 -105l-35 -225c-7 -45 -7 -64 -3 -72c11 -5 55 30 85 58l22 -23c-58 -68 -133 -111 -158 -111c-14 0 -38 38 -32 70c3 18 43 177 48 193zM366 632l-122 -99l-24 25l131 155h51l86 -159l-27 -21z" />
    <glyph glyph-name="atilde" unicode="&#xe3;" horiz-adv-x="521" 
d="M386 366l7 42c-27 17 -58 25 -86 25c-95 0 -159 -146 -159 -285c0 -51 10 -84 44 -84c68 0 173 170 194 302zM393 251l-9 1c-51 -148 -139 -264 -228 -264c-64 0 -91 53 -91 131c0 252 151 361 262 361c37 0 69 -10 90 -18c22 3 38 7 67 18l12 -14
c-12 -36 -22 -69 -30 -105l-35 -225c-7 -45 -7 -64 -3 -72c11 -5 55 30 85 58l22 -23c-58 -68 -133 -111 -158 -111c-14 0 -38 38 -32 70c3 18 43 177 48 193zM217 561l-22 23c44 51 71 80 122 80s76 -41 123 -41c27 0 48 10 67 35l22 -20c-36 -52 -68 -84 -108 -84
c-56 0 -89 42 -137 42c-24 0 -41 -8 -67 -35z" />
    <glyph glyph-name="adieresis" unicode="&#xe4;" horiz-adv-x="521" 
d="M386 366l7 42c-27 17 -58 25 -86 25c-95 0 -159 -146 -159 -285c0 -51 10 -84 44 -84c68 0 173 170 194 302zM393 251l-9 1c-51 -148 -139 -264 -228 -264c-64 0 -91 53 -91 131c0 252 151 361 262 361c37 0 69 -10 90 -18c22 3 38 7 67 18l12 -14
c-12 -36 -22 -69 -30 -105l-35 -225c-7 -45 -7 -64 -3 -72c11 -5 55 30 85 58l22 -23c-58 -68 -133 -111 -158 -111c-14 0 -38 38 -32 70c3 18 43 177 48 193zM410 601c0 34 26 57 62 57c26 0 45 -19 45 -44c0 -37 -26 -61 -62 -61c-26 0 -45 20 -45 48zM210 601
c0 34 26 57 62 57c26 0 45 -19 45 -44c0 -37 -26 -61 -62 -61c-26 0 -45 20 -45 48z" />
    <glyph glyph-name="aring" unicode="&#xe5;" horiz-adv-x="521" 
d="M386 366l7 42c-27 17 -58 25 -86 25c-95 0 -159 -146 -159 -285c0 -51 10 -84 44 -84c68 0 173 170 194 302zM393 251l-9 1c-51 -148 -139 -264 -228 -264c-64 0 -91 53 -91 131c0 252 151 361 262 361c37 0 69 -10 90 -18c22 3 38 7 67 18l12 -14
c-12 -36 -22 -69 -30 -105l-35 -225c-7 -45 -7 -64 -3 -72c11 -5 55 30 85 58l22 -23c-58 -68 -133 -111 -158 -111c-14 0 -38 38 -32 70c3 18 43 177 48 193zM388 704c-41 0 -62 -43 -62 -79c0 -33 11 -54 43 -54c39 0 63 38 63 79c0 32 -12 54 -44 54zM277 618
c0 66 47 123 119 123c59 0 86 -37 86 -86c0 -64 -49 -122 -121 -122c-63 0 -84 41 -84 85z" />
    <glyph glyph-name="ae" unicode="&#xe6;" horiz-adv-x="699" 
d="M654 136l25 -28c-67 -72 -140 -120 -209 -120c-96 0 -134 76 -86 234l-10 3c-63 -156 -146 -237 -218 -237c-64 0 -91 53 -91 131c0 252 154 373 265 373c37 0 69 -10 90 -18c20 6 35 12 64 27l15 -12l-19 -42c39 31 74 45 116 45c76 0 113 -43 113 -98
c0 -137 -172 -163 -277 -179c-1 -18 -2 -33 -2 -44c0 -81 25 -114 71 -115c44 0 97 27 153 80zM389 378l7 42c-27 17 -58 25 -86 25c-95 0 -162 -158 -162 -297c0 -51 10 -84 44 -84c68 0 176 182 197 314zM625 386c0 36 -18 59 -57 59c-81 0 -115 -101 -130 -184
c86 13 187 35 187 125z" />
    <glyph glyph-name="ccedilla" unicode="&#xe7;" horiz-adv-x="424" 
d="M241 -8l-7 -35c42 -7 67 -36 67 -64s-10 -53 -26 -70c-27 -29 -75 -45 -143 -49l-4 30c85 11 110 38 110 69c0 23 -22 36 -59 40l-6 12l19 64c-91 11 -127 93 -127 179c0 154 87 312 243 312c48 0 93 -12 131 -35l-44 -116l-27 1c-6 63 -12 107 -74 107
c-107 0 -141 -156 -141 -240c0 -79 22 -138 90 -138c57 0 95 41 131 79l26 -29c-34 -39 -90 -103 -159 -117z" />
    <glyph glyph-name="egrave" unicode="&#xe8;" horiz-adv-x="421" 
d="M376 136l25 -28c-67 -72 -140 -120 -209 -120c-96 0 -127 80 -127 161c0 154 88 331 253 331c76 0 113 -43 113 -98c0 -137 -172 -157 -277 -173c-1 -18 -2 -27 -2 -38c0 -81 25 -114 71 -115c44 0 97 27 153 80zM347 374c0 36 -18 59 -57 59c-81 0 -115 -95 -130 -178
c86 13 187 29 187 119zM364 556l-30 -23l-158 139v21c24 3 60 11 82 20z" />
    <glyph glyph-name="eacute" unicode="&#xe9;" horiz-adv-x="421" 
d="M401 108l-25 28c-56 -53 -109 -80 -153 -80c-46 1 -71 34 -71 115c0 11 1 20 2 38c105 16 277 36 277 173c0 55 -37 98 -113 98c-165 0 -253 -177 -253 -331c0 -81 31 -161 127 -161c69 0 142 48 209 120zM347 374c0 -90 -101 -106 -187 -119c15 83 49 178 130 178
c39 0 57 -23 57 -59zM260 533l-24 25l142 154c21 -13 55 -26 78 -33l-4 -21z" />
    <glyph glyph-name="ecircumflex" unicode="&#xea;" horiz-adv-x="421" 
d="M401 108l-25 28c-56 -53 -109 -80 -153 -80c-46 1 -71 34 -71 115c0 11 1 20 2 38c105 16 277 36 277 173c0 55 -37 98 -113 98c-165 0 -253 -177 -253 -331c0 -81 31 -161 127 -161c69 0 142 48 209 120zM347 374c0 -90 -101 -106 -187 -119c15 83 49 178 130 178
c39 0 57 -23 57 -59zM322 632l-122 -99l-24 25l131 155h51l86 -159l-27 -21z" />
    <glyph glyph-name="edieresis" unicode="&#xeb;" horiz-adv-x="421" 
d="M401 108l-25 28c-56 -53 -109 -80 -153 -80c-46 1 -71 34 -71 115c0 11 1 20 2 38c105 16 277 36 277 173c0 55 -37 98 -113 98c-165 0 -253 -177 -253 -331c0 -81 31 -161 127 -161c69 0 142 48 209 120zM347 374c0 -90 -101 -106 -187 -119c15 83 49 178 130 178
c39 0 57 -23 57 -59zM363 601c0 34 26 57 62 57c26 0 45 -19 45 -44c0 -37 -26 -61 -62 -61c-26 0 -45 20 -45 48zM163 601c0 34 26 57 62 57c26 0 45 -19 45 -44c0 -37 -26 -61 -62 -61c-26 0 -45 20 -45 48z" />
    <glyph glyph-name="igrave" unicode="&#xec;" horiz-adv-x="271" 
d="M85 43l55 312c2 25 3 45 0 61c-14 6 -39 10 -71 11l-6 33c54 5 120 19 162 35l20 -18c-7 -18 -12 -41 -19 -82l-49 -268c-3 -33 -4 -44 -1 -60c10 -5 46 21 78 51l22 -23c-56 -63 -114 -107 -146 -107c-19 0 -40 32 -45 55zM275 556l-30 -23l-158 139v21
c24 3 60 11 82 20z" />
    <glyph glyph-name="iacute" unicode="&#xed;" horiz-adv-x="271" 
d="M85 43l55 312c2 25 3 45 0 61c-14 6 -39 10 -71 11l-6 33c54 5 120 19 162 35l20 -18c-7 -18 -12 -41 -19 -82l-49 -268c-3 -33 -4 -44 -1 -60c10 -5 46 21 78 51l22 -23c-56 -63 -114 -107 -146 -107c-19 0 -40 32 -45 55zM135 533l-24 25l142 154c21 -13 55 -26 78 -33
l-4 -21z" />
    <glyph glyph-name="icircumflex" unicode="&#xee;" horiz-adv-x="271" 
d="M85 43l55 312c2 25 3 45 0 61c-14 6 -39 10 -71 11l-6 33c54 5 120 19 162 35l20 -18c-7 -18 -12 -41 -19 -82l-49 -268c-3 -33 -4 -44 -1 -60c10 -5 46 21 78 51l22 -23c-56 -63 -114 -107 -146 -107c-19 0 -40 32 -45 55zM206 632l-122 -99l-24 25l131 155h51l86 -159
l-27 -21z" />
    <glyph glyph-name="idieresis" unicode="&#xef;" horiz-adv-x="271" 
d="M85 43l55 312c2 25 3 45 0 61c-14 6 -39 10 -71 11l-6 33c54 5 120 19 162 35l20 -18c-7 -18 -12 -41 -19 -82l-49 -268c-3 -33 -4 -44 -1 -60c10 -5 46 21 78 51l22 -23c-56 -63 -114 -107 -146 -107c-19 0 -40 32 -45 55zM248 601c0 34 26 57 62 57c26 0 45 -19 45 -44
c0 -37 -26 -61 -62 -61c-26 0 -45 20 -45 48zM48 601c0 34 26 57 62 57c26 0 45 -19 45 -44c0 -37 -26 -61 -62 -61c-26 0 -45 20 -45 48z" />
    <glyph glyph-name="eth" unicode="&#xf0;" horiz-adv-x="468" 
d="M165 518l-14 38l97 31c-23 17 -49 33 -78 48l13 28c46 -16 86 -36 121 -58l131 43l13 -40l-103 -33c77 -81 118 -173 118 -281c0 -149 -75 -306 -239 -306c-115 0 -159 87 -159 188c0 144 83 266 217 266c24 0 47 -6 72 -20l9 6c-17 48 -42 92 -78 128zM286 399
c-108 0 -132 -132 -132 -228c0 -92 31 -141 86 -141c91 0 137 121 137 251c0 37 -5 72 -14 96c-20 14 -49 22 -77 22z" />
    <glyph glyph-name="ntilde" unicode="&#xf1;" horiz-adv-x="533" 
d="M182 260l6 -5c86 201 178 225 232 225c48 0 71 -20 71 -74c0 -20 -3 -44 -9 -73l-43 -210c-3 -33 -4 -40 -1 -56c10 -5 46 21 78 51l22 -23c-56 -63 -114 -107 -146 -107c-19 0 -35 30 -41 53l49 275c4 23 6 41 6 55c0 28 -9 38 -27 38c-53 0 -178 -136 -197 -274l-4 -29
c-2 -26 -6 -66 1 -99c-33 -4 -60 -10 -94 -20l-9 13c10 36 18 71 23 107l36 236c3 26 4 50 1 66c-14 5 -35 6 -69 5l-6 33c57 7 121 22 163 38l20 -15c-14 -32 -45 -128 -62 -210zM188 561l-22 23c44 51 71 80 122 80s76 -41 123 -41c27 0 48 10 67 35l22 -20
c-36 -52 -68 -84 -108 -84c-56 0 -89 42 -137 42c-24 0 -41 -8 -67 -35z" />
    <glyph glyph-name="ograve" unicode="&#xf2;" horiz-adv-x="473" 
d="M65 161c0 228 143 319 255 319c96 0 148 -68 148 -176c0 -162 -74 -316 -251 -316c-114 0 -152 84 -152 173zM296 437c-77 0 -142 -99 -142 -263c0 -95 32 -144 89 -144c91 0 136 136 136 282c0 90 -35 125 -83 125zM390 556l-30 -23l-158 139v21c24 3 60 11 82 20z" />
    <glyph glyph-name="oacute" unicode="&#xf3;" horiz-adv-x="473" 
d="M65 161c0 228 143 319 255 319c96 0 148 -68 148 -176c0 -162 -74 -316 -251 -316c-114 0 -152 84 -152 173zM296 437c-77 0 -142 -99 -142 -263c0 -95 32 -144 89 -144c91 0 136 136 136 282c0 90 -35 125 -83 125zM275 533l-24 25l142 154c21 -13 55 -26 78 -33l-4 -21
z" />
    <glyph glyph-name="ocircumflex" unicode="&#xf4;" horiz-adv-x="473" 
d="M65 161c0 228 143 319 255 319c96 0 148 -68 148 -176c0 -162 -74 -316 -251 -316c-114 0 -152 84 -152 173zM296 437c-77 0 -142 -99 -142 -263c0 -95 32 -144 89 -144c91 0 136 136 136 282c0 90 -35 125 -83 125zM334 632l-122 -99l-24 25l131 155h51l86 -159l-27 -21
z" />
    <glyph glyph-name="otilde" unicode="&#xf5;" horiz-adv-x="473" 
d="M65 161c0 228 143 319 255 319c96 0 148 -68 148 -176c0 -162 -74 -316 -251 -316c-114 0 -152 84 -152 173zM296 437c-77 0 -142 -99 -142 -263c0 -95 32 -144 89 -144c91 0 136 136 136 282c0 90 -35 125 -83 125zM192 561l-22 23c44 51 71 80 122 80s76 -41 123 -41
c27 0 48 10 67 35l22 -20c-36 -52 -68 -84 -108 -84c-56 0 -89 42 -137 42c-24 0 -41 -8 -67 -35z" />
    <glyph glyph-name="odieresis" unicode="&#xf6;" horiz-adv-x="473" 
d="M65 161c0 228 143 319 255 319c96 0 148 -68 148 -176c0 -162 -74 -316 -251 -316c-114 0 -152 84 -152 173zM296 437c-77 0 -142 -99 -142 -263c0 -95 32 -144 89 -144c91 0 136 136 136 282c0 90 -35 125 -83 125zM382 601c0 34 26 57 62 57c26 0 45 -19 45 -44
c0 -37 -26 -61 -62 -61c-26 0 -45 20 -45 48zM182 601c0 34 26 57 62 57c26 0 45 -19 45 -44c0 -37 -26 -61 -62 -61c-26 0 -45 20 -45 48z" />
    <glyph glyph-name="oslash" unicode="&#xf8;" horiz-adv-x="473" 
d="M65 161c0 228 143 319 255 319c20 0 38 -3 54 -9l51 88l38 -21l-51 -88c36 -30 56 -81 56 -146c0 -162 -74 -316 -251 -316c-26 0 -48 5 -67 12l-53 -92l-38 22l54 94c-35 33 -48 84 -48 137zM379 312c0 27 -4 48 -9 66l-186 -321c14 -18 34 -27 59 -27
c91 0 136 136 136 282zM296 437c-77 0 -142 -99 -142 -263c0 -27 2 -50 7 -69l183 315c-13 12 -30 17 -48 17z" />
    <glyph glyph-name="ugrave" unicode="&#xf9;" horiz-adv-x="544" 
d="M206 310l-29 -158c-13 -72 -4 -93 25 -93c59 0 179 144 200 289l2 14c1 17 6 66 -1 99c33 4 60 10 94 20l9 -13c-10 -36 -17 -71 -23 -107l-38 -225c-7 -45 -7 -64 -3 -72c11 -5 55 30 85 58l22 -23c-58 -68 -129 -111 -150 -111c-36 0 -45 47 -42 65s48 172 53 188l-9 2
c-44 -120 -131 -255 -228 -255c-56 0 -96 31 -77 141l38 214c3 26 5 50 2 66c-14 5 -35 6 -69 5l-6 33c57 7 121 22 163 38l20 -15c-14 -32 -26 -89 -38 -160zM409 556l-30 -23l-158 139v21c24 3 60 11 82 20z" />
    <glyph glyph-name="uacute" unicode="&#xfa;" horiz-adv-x="544" 
d="M206 310l-29 -158c-13 -72 -4 -93 25 -93c59 0 179 144 200 289l2 14c1 17 6 66 -1 99c33 4 60 10 94 20l9 -13c-10 -36 -17 -71 -23 -107l-38 -225c-7 -45 -7 -64 -3 -72c11 -5 55 30 85 58l22 -23c-58 -68 -129 -111 -150 -111c-36 0 -45 47 -42 65s48 172 53 188l-9 2
c-44 -120 -131 -255 -228 -255c-56 0 -96 31 -77 141l38 214c3 26 5 50 2 66c-14 5 -35 6 -69 5l-6 33c57 7 121 22 163 38l20 -15c-14 -32 -26 -89 -38 -160zM302 533l-24 25l142 154c21 -13 55 -26 78 -33l-4 -21z" />
    <glyph glyph-name="ucircumflex" unicode="&#xfb;" horiz-adv-x="544" 
d="M206 310l-29 -158c-13 -72 -4 -93 25 -93c59 0 179 144 200 289l2 14c1 17 6 66 -1 99c33 4 60 10 94 20l9 -13c-10 -36 -17 -71 -23 -107l-38 -225c-7 -45 -7 -64 -3 -72c11 -5 55 30 85 58l22 -23c-58 -68 -129 -111 -150 -111c-36 0 -45 47 -42 65s48 172 53 188l-9 2
c-44 -120 -131 -255 -228 -255c-56 0 -96 31 -77 141l38 214c3 26 5 50 2 66c-14 5 -35 6 -69 5l-6 33c57 7 121 22 163 38l20 -15c-14 -32 -26 -89 -38 -160zM344 632l-122 -99l-24 25l131 155h51l86 -159l-27 -21z" />
    <glyph glyph-name="udieresis" unicode="&#xfc;" horiz-adv-x="544" 
d="M206 310l-29 -158c-13 -72 -4 -93 25 -93c59 0 179 144 200 289l2 14c1 17 6 66 -1 99c33 4 60 10 94 20l9 -13c-10 -36 -17 -71 -23 -107l-38 -225c-7 -45 -7 -64 -3 -72c11 -5 55 30 85 58l22 -23c-58 -68 -129 -111 -150 -111c-36 0 -45 47 -42 65s48 172 53 188l-9 2
c-44 -120 -131 -255 -228 -255c-56 0 -96 31 -77 141l38 214c3 26 5 50 2 66c-14 5 -35 6 -69 5l-6 33c57 7 121 22 163 38l20 -15c-14 -32 -26 -89 -38 -160zM381 601c0 34 26 57 62 57c26 0 45 -19 45 -44c0 -37 -26 -61 -62 -61c-26 0 -45 20 -45 48zM181 601
c0 34 26 57 62 57c26 0 45 -19 45 -44c0 -37 -26 -61 -62 -61c-26 0 -45 20 -45 48z" />
    <glyph glyph-name="yacute" unicode="&#xfd;" horiz-adv-x="455" 
d="M354 451l10 17l100 12c6 -27 6 -56 -8 -108c-39 -143 -115 -252 -193 -367c-77 -114 -160 -207 -251 -207c-11 0 -28 2 -37 6l11 91l14 5c9 -9 24 -16 46 -16c55 0 103 45 132 112l-71 405c-14 14 -58 26 -68 27l7 39c55 -1 91 1 127 7l13 -13l60 -382h7
c60 81 119 205 119 300c0 27 -6 52 -18 72zM233 533l-24 25l142 154c21 -13 55 -26 78 -33l-4 -21z" />
    <glyph glyph-name="thorn" unicode="&#xfe;" horiz-adv-x="512" 
d="M256 598l-52 -275c-3 -18 -8 -35 -12 -50l6 -5c49 121 114 212 197 212c69 0 107 -45 107 -166c0 -208 -162 -326 -264 -326c-30 0 -55 6 -76 13l-14 -92c-2 -25 -2 -41 1 -57c11 -5 41 -10 77 -10l6 -33c-57 -3 -118 -11 -167 -24l-20 15c7 18 13 41 19 82l107 680
c2 25 2 41 -1 57c-14 5 -54 6 -88 5l-6 33c57 7 137 22 179 38l20 -15c-7 -18 -13 -41 -19 -82zM185 134l-13 -74c27 -17 58 -25 86 -25c86 0 155 116 155 266c0 84 -12 105 -45 105c-65 0 -164 -163 -183 -272z" />
    <glyph glyph-name="ydieresis" unicode="&#xff;" horiz-adv-x="455" 
d="M354 451l10 17l100 12c6 -27 6 -56 -8 -108c-39 -143 -115 -252 -193 -367c-77 -114 -160 -207 -251 -207c-11 0 -28 2 -37 6l11 91l14 5c9 -9 24 -16 46 -16c55 0 103 45 132 112l-71 405c-14 14 -58 26 -68 27l7 39c55 -1 91 1 127 7l13 -13l60 -382h7
c60 81 119 205 119 300c0 27 -6 52 -18 72zM339 601c0 34 26 57 62 57c26 0 45 -19 45 -44c0 -37 -26 -61 -62 -61c-26 0 -45 20 -45 48zM139 601c0 34 26 57 62 57c26 0 45 -19 45 -44c0 -37 -26 -61 -62 -61c-26 0 -45 20 -45 48z" />
    <glyph glyph-name="Amacron" unicode="&#x100;" horiz-adv-x="621" 
d="M466 62l-27 173h-208l-84 -172l2 -10c19 -9 39 -18 62 -24l-5 -31c-25 1 -51 2 -98 2c-36 0 -71 -1 -102 -2l6 32c28 8 44 15 67 27l301 593h69l106 -589c17 -11 41 -21 68 -30l-6 -33c-52 2 -81 2 -116 2c-39 0 -79 -1 -119 -2l5 31c28 5 49 12 75 24zM378 534
l-125 -251h178l-40 251h-13zM262 740l7 46h293l15 -15l-7 -45h-292z" />
    <glyph glyph-name="amacron" unicode="&#x101;" horiz-adv-x="521" 
d="M386 366l7 42c-27 17 -58 25 -86 25c-95 0 -159 -146 -159 -285c0 -51 10 -84 44 -84c68 0 173 170 194 302zM393 251l-9 1c-51 -148 -139 -264 -228 -264c-64 0 -91 53 -91 131c0 252 151 361 262 361c37 0 69 -10 90 -18c22 3 38 7 67 18l12 -14
c-12 -36 -22 -69 -30 -105l-35 -225c-7 -45 -7 -64 -3 -72c11 -5 55 30 85 58l22 -23c-58 -68 -133 -111 -158 -111c-14 0 -38 38 -32 70c3 18 43 177 48 193zM210 593l7 46h293l15 -15l-7 -45h-292z" />
    <glyph glyph-name="Abreve" unicode="&#x102;" horiz-adv-x="621" 
d="M466 62l-27 173h-208l-84 -172l2 -10c19 -9 39 -18 62 -24l-5 -31c-25 1 -51 2 -98 2c-36 0 -71 -1 -102 -2l6 32c28 8 44 15 67 27l301 593h69l106 -589c17 -11 41 -21 68 -30l-6 -33c-52 2 -81 2 -116 2c-39 0 -79 -1 -119 -2l5 31c28 5 49 12 75 24zM378 534
l-125 -251h178l-40 251h-13zM320 841l32 13c18 -59 47 -78 88 -78c37 0 65 11 117 76l24 -19c-68 -111 -116 -126 -159 -126c-57 0 -91 48 -102 134z" />
    <glyph glyph-name="abreve" unicode="&#x103;" horiz-adv-x="521" 
d="M386 366l7 42c-27 17 -58 25 -86 25c-95 0 -159 -146 -159 -285c0 -51 10 -84 44 -84c68 0 173 170 194 302zM393 251l-9 1c-51 -148 -139 -264 -228 -264c-64 0 -91 53 -91 131c0 252 151 361 262 361c37 0 69 -10 90 -18c22 3 38 7 67 18l12 -14
c-12 -36 -22 -69 -30 -105l-35 -225c-7 -45 -7 -64 -3 -72c11 -5 55 30 85 58l22 -23c-58 -68 -133 -111 -158 -111c-14 0 -38 38 -32 70c3 18 43 177 48 193zM265 670l32 13c18 -59 42 -86 83 -86c37 0 71 20 121 85l23 -23c-69 -113 -119 -131 -162 -131
c-57 0 -86 56 -97 142z" />
    <glyph glyph-name="Aogonek" unicode="&#x104;" horiz-adv-x="621" 
d="M466 62l-27 173h-208l-84 -172l2 -10c19 -9 39 -18 62 -24l-5 -31c-25 1 -51 2 -98 2c-36 0 -71 -1 -102 -2l6 32c28 8 44 15 67 27l301 593h69l106 -589c17 -11 41 -21 68 -30l-6 -33c-46 0 -96 -37 -125 -78c-18 -24 -25 -46 -25 -71c0 -26 10 -52 40 -52
c16 0 49 11 69 20l9 -28c-14 -8 -55 -30 -75 -39c-18 -8 -32 -11 -47 -11c-48 0 -77 37 -77 82s20 74 38 95c22 25 64 59 101 84h-24c-39 0 -79 -1 -119 -2l5 31c28 5 49 12 75 24zM378 534l-125 -251h178l-40 251h-13z" />
    <glyph glyph-name="aogonek" unicode="&#x105;" horiz-adv-x="521" 
d="M393 251l-9 1c-51 -148 -139 -264 -228 -264c-64 0 -91 53 -91 131c0 252 151 361 262 361c37 0 69 -10 90 -18c22 3 38 7 67 18l12 -14c-12 -36 -22 -69 -30 -105l-35 -225c-7 -45 -7 -64 -3 -72c11 -5 55 30 85 58l22 -23c-40 -47 -88 -81 -121 -100
c-32 -19 -66 -48 -89 -79c-18 -24 -25 -46 -25 -71c0 -26 10 -52 40 -52c16 0 49 11 69 20l9 -28c-14 -8 -55 -30 -75 -39c-18 -8 -32 -11 -47 -11c-48 0 -77 37 -77 82s20 74 38 95c22 26 65 59 102 85c-10 14 -18 36 -14 57c3 18 43 177 48 193zM386 366l7 42
c-27 17 -58 25 -86 25c-95 0 -159 -146 -159 -285c0 -51 10 -84 44 -84c68 0 173 170 194 302z" />
    <glyph glyph-name="Cacute" unicode="&#x106;" horiz-adv-x="570" 
d="M453 664c-239 0 -371 -190 -371 -403c0 -151 76 -278 267 -278c61 0 129 8 185 31c8 48 26 123 37 161l-44 7c-15 -35 -45 -99 -66 -129c-22 -9 -46 -17 -97 -17c-141 0 -184 121 -184 239c0 145 65 340 251 340c52 0 78 -6 116 -21c9 -31 6 -67 3 -100l38 -5h15
c5 49 19 113 29 151c-56 14 -114 24 -179 24zM396 697l-18 28l159 115c18 -17 39 -33 60 -44l-6 -20z" />
    <glyph glyph-name="cacute" unicode="&#x107;" horiz-adv-x="424" 
d="M395 329l44 116c-38 23 -83 35 -131 35c-156 0 -243 -158 -243 -312c0 -92 42 -180 147 -180c82 0 149 77 188 121l-26 29c-36 -38 -74 -79 -131 -79c-68 0 -90 59 -90 138c0 84 34 240 141 240c62 0 68 -44 74 -107zM270 533l-24 25l142 154c21 -13 55 -26 78 -33
l-4 -21z" />
    <glyph glyph-name="Ccircumflex" unicode="&#x108;" horiz-adv-x="570" 
d="M453 664c-239 0 -371 -190 -371 -403c0 -151 76 -278 267 -278c61 0 129 8 185 31c8 48 26 123 37 161l-44 7c-15 -35 -45 -99 -66 -129c-22 -9 -46 -17 -97 -17c-141 0 -184 121 -184 239c0 145 65 340 251 340c52 0 78 -6 116 -21c9 -31 6 -67 3 -100l38 -5h15
c5 49 19 113 29 151c-56 14 -114 24 -179 24zM464 771l-132 -74l-24 25l138 124h51l93 -128l-27 -21z" />
    <glyph glyph-name="ccircumflex" unicode="&#x109;" horiz-adv-x="424" 
d="M395 329l44 116c-38 23 -83 35 -131 35c-156 0 -243 -158 -243 -312c0 -92 42 -180 147 -180c82 0 149 77 188 121l-26 29c-36 -38 -74 -79 -131 -79c-68 0 -90 59 -90 138c0 84 34 240 141 240c62 0 68 -44 74 -107zM319 632l-122 -99l-24 25l131 155h51l86 -159
l-27 -21z" />
    <glyph glyph-name="Cdotaccent" unicode="&#x10a;" horiz-adv-x="570" 
d="M453 664c-239 0 -371 -190 -371 -403c0 -151 76 -278 267 -278c61 0 129 8 185 31c8 48 26 123 37 161l-44 7c-15 -35 -45 -99 -66 -129c-22 -9 -46 -17 -97 -17c-141 0 -184 121 -184 239c0 145 65 340 251 340c52 0 78 -6 116 -21c9 -31 6 -67 3 -100l38 -5h15
c5 49 19 113 29 151c-56 14 -114 24 -179 24zM475 820c29 0 41 -23 41 -45c0 -46 -21 -73 -67 -73c-24 0 -42 18 -42 44c0 40 19 74 68 74z" />
    <glyph glyph-name="cdotaccent" unicode="&#x10b;" horiz-adv-x="424" 
d="M395 329l44 116c-38 23 -83 35 -131 35c-156 0 -243 -158 -243 -312c0 -92 42 -180 147 -180c82 0 149 77 188 121l-26 29c-36 -38 -74 -79 -131 -79c-68 0 -90 59 -90 138c0 84 34 240 141 240c62 0 68 -44 74 -107zM346 699c29 0 41 -23 41 -45c0 -46 -21 -73 -67 -73
c-24 0 -42 18 -42 44c0 40 19 74 68 74z" />
    <glyph glyph-name="Ccaron" unicode="&#x10c;" horiz-adv-x="570" 
d="M453 664c-239 0 -371 -190 -371 -403c0 -151 76 -278 267 -278c61 0 129 8 185 31c8 48 26 123 37 161l-44 7c-15 -35 -45 -99 -66 -129c-22 -9 -46 -17 -97 -17c-141 0 -184 121 -184 239c0 145 65 340 251 340c52 0 78 -6 116 -21c9 -31 6 -67 3 -100l38 -5h15
c5 49 19 113 29 151c-56 14 -114 24 -179 24zM463 770l139 93l21 -21l-140 -135h-51l-77 109c21 8 39 19 57 35z" />
    <glyph glyph-name="ccaron" unicode="&#x10d;" horiz-adv-x="424" 
d="M395 329l44 116c-38 23 -83 35 -131 35c-156 0 -243 -158 -243 -312c0 -92 42 -180 147 -180c82 0 149 77 188 121l-26 29c-36 -38 -74 -79 -131 -79c-68 0 -90 59 -90 138c0 84 34 240 141 240c62 0 68 -44 74 -107zM319 598l129 115l24 -25l-131 -155h-51l-70 129
c21 8 39 19 57 35z" />
    <glyph glyph-name="Dcaron" unicode="&#x10e;" horiz-adv-x="627" 
d="M550 391c0 -173 -56 -344 -260 -344h-79c-2 9 -3 22 -3 36c0 16 2 33 4 49l72 469h72c118 0 194 -63 194 -210zM156 0h152c219 0 340 195 340 399c0 188 -126 248 -258 248h-142c-39 0 -77 1 -114 3l-5 -32c26 -7 41 -15 61 -29c3 -24 1 -49 -1 -75l-53 -348
c-11 -52 -18 -81 -31 -113c-24 -13 -37 -18 -59 -23l-6 -32c27 1 77 2 116 2zM361 770l139 93l21 -21l-140 -135h-51l-77 109c21 8 39 19 57 35z" />
    <glyph glyph-name="dcaron" unicode="&#x10f;" 
d="M406 467l15 95c2 25 2 41 -1 57c-14 5 -54 6 -88 5l-6 33c57 7 137 22 179 38l20 -15c-7 -18 -13 -41 -19 -82l-73 -462c-7 -45 -7 -64 -3 -72c11 -5 55 30 85 58l22 -23c-58 -68 -130 -111 -154 -111c-23 0 -39 41 -36 68c2 19 43 178 48 194l-9 1
c-45 -136 -139 -263 -225 -263c-60 0 -96 45 -96 129c0 261 154 363 265 363c30 0 55 -6 76 -13zM389 366l7 42c-27 17 -58 25 -86 25c-95 0 -160 -146 -160 -285c0 -51 10 -84 44 -84c68 0 174 170 195 302zM584 491h-37l28 178c21 4 60 16 82 26l8 -12z" />
    <glyph glyph-name="Dcroat" unicode="&#x110;" horiz-adv-x="627" 
d="M308 0h-152c-39 0 -89 -1 -116 -2l6 32c22 5 35 10 59 23c13 32 20 61 31 113l22 147h-75l8 50h75l23 151c2 26 4 51 1 75c-20 14 -35 22 -61 29l5 32c37 -2 75 -3 114 -3h142c132 0 258 -60 258 -248c0 -204 -121 -399 -340 -399zM550 391c0 147 -76 210 -194 210h-72
l-37 -238h173l-8 -50h-172l-28 -181c-2 -16 -4 -33 -4 -49c0 -14 1 -27 3 -36h79c204 0 260 171 260 344z" />
    <glyph glyph-name="dcroat" unicode="&#x111;" horiz-adv-x="523" 
d="M261 523l7 47h154c1 20 0 35 -2 49c-14 5 -54 6 -88 5l-6 33c57 7 137 22 179 38l20 -15c-7 -18 -13 -41 -19 -82l-5 -28h78l-9 -47h-76l-61 -387c-7 -45 -7 -64 -3 -72c11 -5 55 30 85 58l22 -23c-58 -68 -130 -111 -154 -111c-23 0 -39 41 -36 68c2 19 43 178 48 194
l-9 1c-45 -136 -139 -263 -225 -263c-60 0 -96 45 -96 129c0 261 151 344 262 344c30 0 55 -6 76 -13l12 75h-154zM389 366l4 23c-27 17 -58 25 -86 25c-95 0 -157 -127 -157 -266c0 -51 10 -84 44 -84c68 0 174 170 195 302z" />
    <glyph glyph-name="Emacron" unicode="&#x112;" horiz-adv-x="521" 
d="M481 599h-190c-8 -24 -15 -53 -19 -83l-25 -163h121c23 1 35 4 42 8c20 25 32 48 42 72h29c-13 -68 -24 -138 -32 -207h-29c-1 24 -5 51 -11 68c-19 7 -36 10 -65 10h-105l-24 -150c-2 -30 -6 -66 -8 -105h209c19 27 54 94 65 124l44 -7c-16 -42 -40 -124 -47 -166h-329
c-35 0 -70 0 -109 -2l6 32c22 5 37 10 60 23c12 32 19 61 30 113l52 346c4 27 4 49 3 75c-20 13 -36 22 -62 29l6 31h426c-10 -35 -23 -101 -28 -145h-15l-37 5c2 14 3 33 3 50c0 16 -1 31 -3 42zM209 740l7 46h293l15 -15l-7 -45h-292z" />
    <glyph glyph-name="emacron" unicode="&#x113;" horiz-adv-x="421" 
d="M401 108l-25 28c-56 -53 -109 -80 -153 -80c-46 1 -71 34 -71 115c0 11 1 20 2 38c105 16 277 36 277 173c0 55 -37 98 -113 98c-165 0 -253 -177 -253 -331c0 -81 31 -161 127 -161c69 0 142 48 209 120zM347 374c0 -90 -101 -106 -187 -119c15 83 49 178 130 178
c39 0 57 -23 57 -59zM166 593l7 46h293l15 -15l-7 -45h-292z" />
    <glyph glyph-name="Ebreve" unicode="&#x114;" horiz-adv-x="521" 
d="M481 599h-190c-8 -24 -15 -53 -19 -83l-25 -163h121c23 1 35 4 42 8c20 25 32 48 42 72h29c-13 -68 -24 -138 -32 -207h-29c-1 24 -5 51 -11 68c-19 7 -36 10 -65 10h-105l-24 -150c-2 -30 -6 -66 -8 -105h209c19 27 54 94 65 124l44 -7c-16 -42 -40 -124 -47 -166h-329
c-35 0 -70 0 -109 -2l6 32c22 5 37 10 60 23c12 32 19 61 30 113l52 346c4 27 4 49 3 75c-20 13 -36 22 -62 29l6 31h426c-10 -35 -23 -101 -28 -145h-15l-37 5c2 14 3 33 3 50c0 16 -1 31 -3 42zM256 841l32 13c18 -59 47 -78 88 -78c37 0 65 11 117 76l24 -19
c-68 -111 -116 -126 -159 -126c-57 0 -91 48 -102 134z" />
    <glyph glyph-name="ebreve" unicode="&#x115;" horiz-adv-x="421" 
d="M401 108l-25 28c-56 -53 -109 -80 -153 -80c-46 1 -71 34 -71 115c0 11 1 20 2 38c105 16 277 36 277 173c0 55 -37 98 -113 98c-165 0 -253 -177 -253 -331c0 -81 31 -161 127 -161c69 0 142 48 209 120zM347 374c0 -90 -101 -106 -187 -119c15 83 49 178 130 178
c39 0 57 -23 57 -59zM223 670l32 13c18 -59 42 -86 83 -86c37 0 71 20 121 85l23 -23c-69 -113 -119 -131 -162 -131c-57 0 -86 56 -97 142z" />
    <glyph glyph-name="Edotaccent" unicode="&#x116;" horiz-adv-x="521" 
d="M481 599h-190c-8 -24 -15 -53 -19 -83l-25 -163h121c23 1 35 4 42 8c20 25 32 48 42 72h29c-13 -68 -24 -138 -32 -207h-29c-1 24 -5 51 -11 68c-19 7 -36 10 -65 10h-105l-24 -150c-2 -30 -6 -66 -8 -105h209c19 27 54 94 65 124l44 -7c-16 -42 -40 -124 -47 -166h-329
c-35 0 -70 0 -109 -2l6 32c22 5 37 10 60 23c12 32 19 61 30 113l52 346c4 27 4 49 3 75c-20 13 -36 22 -62 29l6 31h426c-10 -35 -23 -101 -28 -145h-15l-37 5c2 14 3 33 3 50c0 16 -1 31 -3 42zM381 820c29 0 41 -23 41 -45c0 -46 -21 -73 -67 -73c-24 0 -42 18 -42 44
c0 40 19 74 68 74z" />
    <glyph glyph-name="edotaccent" unicode="&#x117;" horiz-adv-x="421" 
d="M401 108l-25 28c-56 -53 -109 -80 -153 -80c-46 1 -71 34 -71 115c0 11 1 20 2 38c105 16 277 36 277 173c0 55 -37 98 -113 98c-165 0 -253 -177 -253 -331c0 -81 31 -161 127 -161c69 0 142 48 209 120zM347 374c0 -90 -101 -106 -187 -119c15 83 49 178 130 178
c39 0 57 -23 57 -59zM355 699c29 0 41 -23 41 -45c0 -46 -21 -73 -67 -73c-24 0 -42 18 -42 44c0 40 19 74 68 74z" />
    <glyph glyph-name="Eogonek" unicode="&#x118;" horiz-adv-x="521" 
d="M481 599h-190c-8 -24 -15 -53 -19 -83l-25 -163h121c23 1 35 4 42 8c20 25 32 48 42 72h29c-13 -68 -24 -138 -32 -207h-29c-1 24 -5 51 -11 68c-19 7 -36 10 -65 10h-105l-24 -150c-2 -30 -6 -66 -8 -105h209c19 27 54 94 65 124l44 -7c-16 -42 -40 -124 -47 -166
c-45 -16 -86 -49 -109 -80c-18 -24 -25 -46 -25 -71c0 -26 10 -52 40 -52c16 0 49 11 69 20l9 -28c-14 -8 -55 -30 -75 -39c-18 -8 -32 -11 -47 -11c-48 0 -77 37 -77 82s20 74 38 95c22 25 64 59 101 84h-253c-35 0 -70 0 -109 -2l6 32c22 5 37 10 60 23
c12 32 19 61 30 113l52 346c4 27 4 49 3 75c-20 13 -36 22 -62 29l6 31h426c-10 -35 -23 -101 -28 -145h-15l-37 5c2 14 3 33 3 50c0 16 -1 31 -3 42z" />
    <glyph glyph-name="eogonek" unicode="&#x119;" horiz-adv-x="431" 
d="M381 136l25 -28c-44 -48 -93 -83 -138 -107c-34 -18 -69 -48 -93 -81c-18 -24 -25 -46 -25 -71c0 -26 10 -52 40 -52c16 0 49 11 69 20l9 -28c-14 -8 -55 -30 -75 -39c-18 -8 -32 -11 -47 -11c-48 0 -77 37 -77 82s20 74 38 95c19 22 51 49 83 72c-91 4 -120 82 -120 161
c0 154 88 331 253 331c76 0 113 -43 113 -98c0 -137 -172 -157 -277 -173c-1 -18 -2 -27 -2 -38c0 -81 25 -114 71 -115c44 0 97 27 153 80zM352 374c0 36 -18 59 -57 59c-81 0 -115 -95 -130 -178c86 13 187 29 187 119z" />
    <glyph glyph-name="Ecaron" unicode="&#x11a;" horiz-adv-x="521" 
d="M481 599h-190c-8 -24 -15 -53 -19 -83l-25 -163h121c23 1 35 4 42 8c20 25 32 48 42 72h29c-13 -68 -24 -138 -32 -207h-29c-1 24 -5 51 -11 68c-19 7 -36 10 -65 10h-105l-24 -150c-2 -30 -6 -66 -8 -105h209c19 27 54 94 65 124l44 -7c-16 -42 -40 -124 -47 -166h-329
c-35 0 -70 0 -109 -2l6 32c22 5 37 10 60 23c12 32 19 61 30 113l52 346c4 27 4 49 3 75c-20 13 -36 22 -62 29l6 31h426c-10 -35 -23 -101 -28 -145h-15l-37 5c2 14 3 33 3 50c0 16 -1 31 -3 42zM363 770l139 93l21 -21l-140 -135h-51l-77 109c21 8 39 19 57 35z" />
    <glyph glyph-name="ecaron" unicode="&#x11b;" horiz-adv-x="421" 
d="M401 108l-25 28c-56 -53 -109 -80 -153 -80c-46 1 -71 34 -71 115c0 11 1 20 2 38c105 16 277 36 277 173c0 55 -37 98 -113 98c-165 0 -253 -177 -253 -331c0 -81 31 -161 127 -161c69 0 142 48 209 120zM347 374c0 -90 -101 -106 -187 -119c15 83 49 178 130 178
c39 0 57 -23 57 -59zM324 598l129 115l24 -25l-131 -155h-51l-70 129c21 8 39 19 57 35z" />
    <glyph glyph-name="Gcircumflex" unicode="&#x11c;" horiz-adv-x="623" 
d="M368 37c42 0 74 9 107 18l15 97c3 29 4 58 3 83c-23 15 -53 27 -82 32l6 31c40 -1 86 -2 125 -2c36 0 66 0 117 2l-6 -32c-22 -5 -39 -12 -61 -24c-10 -33 -17 -59 -26 -106l-15 -112c-63 -24 -126 -41 -210 -41c-173 0 -259 118 -259 280c0 204 123 401 378 401
c63 0 131 -9 186 -22c-11 -39 -24 -104 -29 -153h-16l-37 6c1 11 2 24 2 38c0 22 -1 45 -5 60c-34 14 -65 21 -116 21c-192 0 -266 -173 -266 -339c0 -118 45 -238 189 -238zM475 771l-132 -74l-24 25l138 124h51l93 -128l-27 -21z" />
    <glyph glyph-name="gcircumflex" unicode="&#x11d;" horiz-adv-x="483" 
d="M312 -48c21 68 62 245 81 311l-9 1c-36 -126 -133 -265 -219 -265c-62 0 -100 42 -100 136c0 255 160 345 262 345c37 0 69 -10 90 -18c22 3 38 7 67 18l12 -14c-12 -36 -22 -69 -30 -105l-33 -200c-9 -52 -16 -96 -26 -147c-8 -39 -19 -77 -38 -107
c-44 -70 -139 -116 -201 -116c-43 0 -76 8 -98 19l24 94h19c16 -34 51 -60 91 -60c42 0 81 22 108 108zM386 366l7 42c-27 17 -58 25 -86 25c-95 0 -160 -146 -160 -285c0 -51 15 -72 49 -72c68 0 170 170 190 290zM366 632l-122 -99l-24 25l131 155h51l86 -159l-27 -21z
" />
    <glyph glyph-name="Gbreve" unicode="&#x11e;" horiz-adv-x="623" 
d="M368 37c42 0 74 9 107 18l15 97c3 29 4 58 3 83c-23 15 -53 27 -82 32l6 31c40 -1 86 -2 125 -2c36 0 66 0 117 2l-6 -32c-22 -5 -39 -12 -61 -24c-10 -33 -17 -59 -26 -106l-15 -112c-63 -24 -126 -41 -210 -41c-173 0 -259 118 -259 280c0 204 123 401 378 401
c63 0 131 -9 186 -22c-11 -39 -24 -104 -29 -153h-16l-37 6c1 11 2 24 2 38c0 22 -1 45 -5 60c-34 14 -65 21 -116 21c-192 0 -266 -173 -266 -339c0 -118 45 -238 189 -238zM360 841l32 13c18 -59 47 -78 88 -78c37 0 65 11 117 76l24 -19c-68 -111 -116 -126 -159 -126
c-57 0 -91 48 -102 134z" />
    <glyph glyph-name="gbreve" unicode="&#x11f;" horiz-adv-x="483" 
d="M312 -48c21 68 62 245 81 311l-9 1c-36 -126 -133 -265 -219 -265c-62 0 -100 42 -100 136c0 255 160 345 262 345c37 0 69 -10 90 -18c22 3 38 7 67 18l12 -14c-12 -36 -22 -69 -30 -105l-33 -200c-9 -52 -16 -96 -26 -147c-8 -39 -19 -77 -38 -107
c-44 -70 -139 -116 -201 -116c-43 0 -76 8 -98 19l24 94h19c16 -34 51 -60 91 -60c42 0 81 22 108 108zM386 366l7 42c-27 17 -58 25 -86 25c-95 0 -160 -146 -160 -285c0 -51 15 -72 49 -72c68 0 170 170 190 290zM251 670l32 13c18 -59 42 -86 83 -86c37 0 71 20 121 85
l23 -23c-69 -113 -119 -131 -162 -131c-57 0 -86 56 -97 142z" />
    <glyph glyph-name="Gdotaccent" unicode="&#x120;" horiz-adv-x="623" 
d="M368 37c42 0 74 9 107 18l15 97c3 29 4 58 3 83c-23 15 -53 27 -82 32l6 31c40 -1 86 -2 125 -2c36 0 66 0 117 2l-6 -32c-22 -5 -39 -12 -61 -24c-10 -33 -17 -59 -26 -106l-15 -112c-63 -24 -126 -41 -210 -41c-173 0 -259 118 -259 280c0 204 123 401 378 401
c63 0 131 -9 186 -22c-11 -39 -24 -104 -29 -153h-16l-37 6c1 11 2 24 2 38c0 22 -1 45 -5 60c-34 14 -65 21 -116 21c-192 0 -266 -173 -266 -339c0 -118 45 -238 189 -238zM493 813c29 0 41 -23 41 -45c0 -46 -21 -73 -67 -73c-24 0 -42 18 -42 44c0 40 19 74 68 74z" />
    <glyph glyph-name="gdotaccent" unicode="&#x121;" horiz-adv-x="483" 
d="M312 -48c21 68 62 245 81 311l-9 1c-36 -126 -133 -265 -219 -265c-62 0 -100 42 -100 136c0 255 160 345 262 345c37 0 69 -10 90 -18c22 3 38 7 67 18l12 -14c-12 -36 -22 -69 -30 -105l-33 -200c-9 -52 -16 -96 -26 -147c-8 -39 -19 -77 -38 -107
c-44 -70 -139 -116 -201 -116c-43 0 -76 8 -98 19l24 94h19c16 -34 51 -60 91 -60c42 0 81 22 108 108zM386 366l7 42c-27 17 -58 25 -86 25c-95 0 -160 -146 -160 -285c0 -51 15 -72 49 -72c68 0 170 170 190 290zM369 699c29 0 41 -23 41 -45c0 -46 -21 -73 -67 -73
c-24 0 -42 18 -42 44c0 40 19 74 68 74z" />
    <glyph glyph-name="Gcommaaccent" unicode="&#x122;" horiz-adv-x="623" 
d="M368 37c42 0 74 9 107 18l15 97c3 29 4 58 3 83c-23 15 -53 27 -82 32l6 31c40 -1 86 -2 125 -2c36 0 66 0 117 2l-6 -32c-22 -5 -39 -12 -61 -24c-10 -33 -17 -59 -26 -106l-15 -112c-63 -24 -126 -41 -210 -41c-173 0 -259 118 -259 280c0 204 123 401 378 401
c63 0 131 -9 186 -22c-11 -39 -24 -104 -29 -153h-16l-37 6c1 11 2 24 2 38c0 22 -1 45 -5 60c-34 14 -65 21 -116 21c-192 0 -266 -173 -266 -339c0 -118 45 -238 189 -238zM295 -114v18c22 17 31 31 42 54c38 -16 66 -39 66 -72c0 -53 -55 -96 -97 -126l-22 23
c35 29 51 50 51 73c0 21 -16 28 -40 30z" />
    <glyph glyph-name="gcommaaccent" unicode="&#x123;" horiz-adv-x="483" 
d="M312 -48c21 68 62 245 81 311l-9 1c-36 -126 -133 -265 -219 -265c-62 0 -100 42 -100 136c0 255 160 345 262 345c37 0 69 -10 90 -18c22 3 38 7 67 18l12 -14c-12 -36 -22 -69 -30 -105l-33 -200c-9 -52 -16 -96 -26 -147c-8 -39 -19 -77 -38 -107
c-44 -70 -139 -116 -201 -116c-43 0 -76 8 -98 19l24 94h19c16 -34 51 -60 91 -60c42 0 81 22 108 108zM386 366l7 42c-27 17 -58 25 -86 25c-95 0 -160 -146 -160 -285c0 -51 15 -72 49 -72c68 0 170 170 190 290zM405 615v-18c-22 -17 -31 -31 -42 -54
c-38 16 -66 39 -66 72c0 53 55 96 97 126l22 -23c-35 -29 -51 -50 -51 -73c0 -21 16 -28 40 -30z" />
    <glyph glyph-name="Hcircumflex" unicode="&#x124;" horiz-adv-x="683" 
d="M549 365l22 149v5c2 26 4 48 1 70c-19 13 -35 20 -61 28l5 33c37 -2 78 -3 117 -3c42 0 73 1 114 3l-5 -32c-22 -6 -41 -14 -64 -27c-11 -32 -18 -60 -30 -112l-53 -345c-2 -26 -3 -51 1 -75c21 -14 42 -23 68 -30l-5 -31c-40 1 -79 2 -118 2c-37 0 -69 -1 -119 -2l6 32
c25 6 40 11 59 22c13 31 19 60 31 114l22 149h-301l-27 -181c-2 -25 -1 -51 2 -75c21 -15 41 -24 68 -30l-7 -31c-38 1 -76 2 -116 2c-37 0 -70 -1 -119 -2l6 32c22 5 36 10 59 23c13 32 20 61 31 113l53 347c3 26 3 48 2 74c-20 15 -37 24 -63 30l5 32c40 -2 70 -3 109 -3
c43 0 80 1 121 3l-5 -32c-24 -6 -43 -12 -61 -23c-12 -30 -19 -58 -32 -114l-17 -115h301zM468 771l-132 -74l-24 25l138 124h51l93 -128l-27 -21z" />
    <glyph glyph-name="hcircumflex" unicode="&#x125;" 
d="M250 598l-28 -180c-9 -62 -32 -129 -42 -158l6 -5c86 200 178 225 232 225c48 0 70 -21 70 -75c0 -20 -3 -45 -9 -75l-42 -206c-3 -33 -5 -41 -2 -57c10 -5 46 21 78 51l22 -23c-56 -63 -114 -107 -146 -107c-19 0 -36 30 -41 53l50 275c4 23 6 41 6 55
c0 28 -9 38 -27 38c-53 0 -173 -132 -195 -266l-6 -37c-2 -26 -6 -66 1 -99c-33 -4 -60 -10 -94 -20l-9 13c10 36 18 71 23 107l68 455c2 25 2 41 -1 57c-14 5 -54 6 -88 5l-6 33c57 7 137 22 179 38l20 -15c-7 -18 -13 -41 -19 -82zM250 788l-132 -74l-24 25l138 124h51
l93 -128l-27 -21z" />
    <glyph glyph-name="Hbar" unicode="&#x126;" horiz-adv-x="683" 
d="M569 502l2 12v5c2 26 4 48 1 70c-19 13 -35 20 -61 28l5 33c37 -2 78 -3 117 -3c42 0 73 1 114 3l-5 -32c-22 -6 -41 -14 -64 -27c-10 -27 -16 -51 -25 -89h97l-7 -48h-99l-49 -320c-2 -26 -3 -51 1 -75c21 -14 42 -23 68 -30l-5 -31c-40 1 -79 2 -118 2
c-37 0 -69 -1 -119 -2l6 32c25 6 40 11 59 22c13 31 19 60 31 114l22 149h-301l-27 -181c-2 -25 -1 -51 2 -75c21 -15 41 -24 68 -30l-7 -31c-38 1 -76 2 -116 2c-37 0 -70 -1 -119 -2l6 32c22 5 36 10 59 23c13 32 20 61 31 113l44 288h-95l7 48h95l2 11c3 26 3 48 2 74
c-20 15 -37 24 -63 30l5 32c40 -2 70 -3 109 -3c43 0 80 1 121 3l-5 -32c-24 -6 -43 -12 -61 -23c-11 -26 -17 -50 -27 -92h299zM248 365h301l13 89h-301z" />
    <glyph glyph-name="hbar" unicode="&#x127;" 
d="M250 598l-5 -28h145l-9 -47h-143l-16 -105c-9 -62 -32 -129 -42 -158l6 -5c86 200 175 215 229 215c48 0 70 -21 70 -75c0 -20 -3 -45 -9 -75l-39 -196c-3 -33 -5 -41 -2 -57c10 -5 46 21 78 51l22 -23c-56 -63 -114 -107 -146 -107c-19 0 -36 30 -41 53l47 265
c4 23 6 41 6 55c0 28 -9 38 -27 38c-53 0 -170 -122 -192 -256l-6 -37c-2 -26 -6 -66 1 -99c-33 -4 -60 -10 -94 -20l-9 13c10 36 18 71 23 107l62 416h-87l7 47h87c1 20 0 35 -2 49c-14 5 -54 6 -88 5l-6 33c57 7 137 22 179 38l20 -15c-7 -18 -13 -41 -19 -82z" />
    <glyph glyph-name="Itilde" unicode="&#x128;" horiz-adv-x="303" 
d="M136 166l54 348c3 27 4 49 2 75c-21 14 -36 22 -62 29l5 32c36 -2 78 -3 117 -3c42 0 72 1 115 3l-5 -32c-26 -6 -45 -14 -65 -26c-11 -32 -20 -58 -31 -113l-53 -345c-2 -25 -1 -51 2 -75c21 -15 41 -24 67 -30l-6 -31c-38 1 -76 2 -116 2c-38 0 -70 0 -119 -2l6 32
c22 5 36 10 59 23c12 32 19 61 30 113zM128 720l-22 23c44 51 71 80 122 80s76 -41 123 -41c27 0 48 10 67 35l22 -20c-36 -52 -68 -84 -108 -84c-56 0 -89 42 -137 42c-24 0 -41 -8 -67 -35z" />
    <glyph glyph-name="itilde" unicode="&#x129;" horiz-adv-x="271" 
d="M85 43l55 312c2 25 3 45 0 61c-14 6 -39 10 -71 11l-6 33c54 5 120 19 162 35l20 -18c-7 -18 -12 -41 -19 -82l-49 -268c-3 -33 -4 -44 -1 -60c10 -5 46 21 78 51l22 -23c-56 -63 -114 -107 -146 -107c-19 0 -40 32 -45 55zM43 561l-22 23c44 51 71 80 122 80
s76 -41 123 -41c27 0 48 10 67 35l22 -20c-36 -52 -68 -84 -108 -84c-56 0 -89 42 -137 42c-24 0 -41 -8 -67 -35z" />
    <glyph glyph-name="Imacron" unicode="&#x12a;" horiz-adv-x="303" 
d="M136 166l54 348c3 27 4 49 2 75c-21 14 -36 22 -62 29l5 32c36 -2 78 -3 117 -3c42 0 72 1 115 3l-5 -32c-26 -6 -45 -14 -65 -26c-11 -32 -20 -58 -31 -113l-53 -345c-2 -25 -1 -51 2 -75c21 -15 41 -24 67 -30l-6 -31c-38 1 -76 2 -116 2c-38 0 -70 0 -119 -2l6 32
c22 5 36 10 59 23c12 32 19 61 30 113zM105 740l7 46h293l15 -15l-7 -45h-292z" />
    <glyph glyph-name="imacron" unicode="&#x12b;" horiz-adv-x="271" 
d="M85 43l55 312c2 25 3 45 0 61c-14 6 -39 10 -71 11l-6 33c54 5 120 19 162 35l20 -18c-7 -18 -12 -41 -19 -82l-49 -268c-3 -33 -4 -44 -1 -60c10 -5 46 21 78 51l22 -23c-56 -63 -114 -107 -146 -107c-19 0 -40 32 -45 55zM40 593l7 46h293l15 -15l-7 -45h-292z" />
    <glyph glyph-name="Ibreve" unicode="&#x12c;" horiz-adv-x="303" 
d="M136 166l54 348c3 27 4 49 2 75c-21 14 -36 22 -62 29l5 32c36 -2 78 -3 117 -3c42 0 72 1 115 3l-5 -32c-26 -6 -45 -14 -65 -26c-11 -32 -20 -58 -31 -113l-53 -345c-2 -25 -1 -51 2 -75c21 -15 41 -24 67 -30l-6 -31c-38 1 -76 2 -116 2c-38 0 -70 0 -119 -2l6 32
c22 5 36 10 59 23c12 32 19 61 30 113zM150 841l32 13c18 -59 47 -78 88 -78c37 0 65 11 117 76l24 -19c-68 -111 -116 -126 -159 -126c-57 0 -91 48 -102 134z" />
    <glyph glyph-name="ibreve" unicode="&#x12d;" horiz-adv-x="271" 
d="M85 43l55 312c2 25 3 45 0 61c-14 6 -39 10 -71 11l-6 33c54 5 120 19 162 35l20 -18c-7 -18 -12 -41 -19 -82l-49 -268c-3 -33 -4 -44 -1 -60c10 -5 46 21 78 51l22 -23c-56 -63 -114 -107 -146 -107c-19 0 -40 32 -45 55zM91 670l32 13c18 -59 42 -86 83 -86
c37 0 71 20 121 85l23 -23c-69 -113 -119 -131 -162 -131c-57 0 -86 56 -97 142z" />
    <glyph glyph-name="Iogonek" unicode="&#x12e;" horiz-adv-x="303" 
d="M136 166l54 348c3 27 4 49 2 75c-21 14 -36 22 -62 29l5 32c36 -2 78 -3 117 -3c42 0 72 1 115 3l-5 -32c-26 -6 -45 -14 -65 -26c-11 -32 -20 -58 -31 -113l-53 -345c-2 -25 -1 -51 2 -75c21 -15 41 -24 67 -30l-6 -31c-46 -7 -87 -43 -112 -78c-18 -24 -25 -46 -25 -71
c0 -26 10 -52 40 -52c16 0 49 11 69 20l9 -28c-14 -8 -55 -30 -75 -39c-18 -8 -32 -11 -47 -11c-48 0 -77 37 -77 82s20 74 38 95c22 25 64 59 100 84h-36c-38 0 -70 0 -119 -2l6 32c22 5 36 10 59 23c12 32 19 61 30 113z" />
    <glyph glyph-name="iogonek" unicode="&#x12f;" horiz-adv-x="271" 
d="M85 43l53 300c2 25 3 45 0 61c-14 6 -39 10 -71 11l-6 33c54 5 120 19 162 35l20 -18c-7 -18 -12 -41 -19 -82l-47 -256c-3 -33 -4 -44 -1 -60c10 -5 46 21 78 51l22 -23c-38 -43 -78 -77 -108 -95c-32 -20 -66 -48 -89 -80c-18 -24 -25 -46 -25 -71c0 -26 10 -52 40 -52
c16 0 49 11 69 20l9 -28c-14 -8 -55 -30 -75 -39c-18 -8 -32 -11 -47 -11c-48 0 -77 37 -77 82s20 74 38 95c22 25 62 57 98 83c-11 11 -21 29 -24 44zM233 699c29 0 41 -23 41 -45c0 -46 -21 -73 -67 -73c-24 0 -42 18 -42 44c0 40 19 74 68 74z" />
    <glyph glyph-name="Idotaccent" unicode="&#x130;" horiz-adv-x="303" 
d="M136 166l54 348c3 27 4 49 2 75c-21 14 -36 22 -62 29l5 32c36 -2 78 -3 117 -3c42 0 72 1 115 3l-5 -32c-26 -6 -45 -14 -65 -26c-11 -32 -20 -58 -31 -113l-53 -345c-2 -25 -1 -51 2 -75c21 -15 41 -24 67 -30l-6 -31c-38 1 -76 2 -116 2c-38 0 -70 0 -119 -2l6 32
c22 5 36 10 59 23c12 32 19 61 30 113zM278 820c29 0 41 -23 41 -45c0 -46 -21 -73 -67 -73c-24 0 -42 18 -42 44c0 40 19 74 68 74z" />
    <glyph glyph-name="dotlessi" unicode="&#x131;" horiz-adv-x="271" 
d="M85 43l55 312c2 25 3 45 0 61c-14 6 -39 10 -71 11l-6 33c54 5 120 19 162 35l20 -18c-7 -18 -12 -41 -19 -82l-49 -268c-3 -33 -4 -44 -1 -60c10 -5 46 21 78 51l22 -23c-56 -63 -114 -107 -146 -107c-19 0 -40 32 -45 55z" />
    <glyph glyph-name="IJ" unicode="&#x132;" horiz-adv-x="594" 
d="M136 166l54 348c3 27 4 49 2 75c-21 14 -36 22 -62 29l5 32c36 -2 78 -3 117 -3c42 0 72 1 115 3l-5 -32c-26 -6 -45 -14 -65 -26c-11 -32 -20 -58 -31 -113l-53 -345c-2 -25 -1 -51 2 -75c21 -15 41 -24 67 -30l-6 -31c-38 1 -76 2 -116 2c-38 0 -70 0 -119 -2l6 32
c22 5 36 10 59 23c12 32 19 61 30 113zM421 90l65 421c3 29 5 54 2 78c-21 13 -43 23 -70 29l4 32c37 -2 86 -3 125 -3c42 0 74 1 117 3l-5 -32c-26 -6 -45 -14 -65 -26c-11 -31 -19 -58 -31 -113l-55 -364c-10 -63 -22 -121 -36 -168l-149 -151l-26 24
c65 82 109 170 124 270z" />
    <glyph glyph-name="ij" unicode="&#x133;" horiz-adv-x="531" 
d="M233 699c29 0 41 -23 41 -45c0 -46 -21 -73 -67 -73c-24 0 -42 18 -42 44c0 40 19 74 68 74zM85 43l53 300c2 25 3 45 0 61c-14 6 -39 10 -71 11l-6 33c54 5 120 19 162 35l20 -18c-7 -18 -12 -41 -19 -82l-47 -256c-3 -33 -4 -44 -1 -60c10 -5 46 21 78 51l22 -23
c-56 -63 -114 -107 -146 -107c-19 0 -40 32 -45 55zM443 78c-10 -64 -18 -107 -29 -152c-28 -24 -112 -103 -142 -130l-21 22c61 76 92 143 108 237l49 285c2 25 4 46 1 62c-14 6 -49 10 -81 11l-6 34c54 5 130 20 172 36l20 -18c-7 -18 -13 -42 -20 -83zM505 699
c29 0 41 -23 41 -45c0 -46 -21 -73 -67 -73c-24 0 -42 18 -42 44c0 40 19 74 68 74z" />
    <glyph glyph-name="Jcircumflex" unicode="&#x134;" horiz-adv-x="291" 
d="M118 90l65 421c3 29 5 54 2 78c-21 13 -43 23 -70 29l4 32c37 -2 86 -3 125 -3c42 0 74 1 117 3l-5 -32c-26 -6 -45 -14 -65 -26c-11 -31 -19 -58 -31 -113l-55 -364c-10 -63 -22 -121 -36 -168l-149 -151l-26 24c65 82 109 170 124 270zM262 771l-132 -74l-24 25
l138 124h51l93 -128l-27 -21z" />
    <glyph glyph-name="jcircumflex" unicode="&#x135;" horiz-adv-x="260" 
d="M172 78c-10 -64 -18 -107 -29 -152c-28 -24 -112 -103 -142 -130l-21 22c61 76 92 143 108 237l49 285c2 25 4 46 1 62c-14 6 -49 10 -81 11l-6 34c54 5 130 20 172 36l20 -18c-7 -18 -13 -42 -20 -83zM202 632l-122 -99l-24 25l131 155h51l86 -159l-27 -21z" />
    <glyph glyph-name="Kcommaaccent" unicode="&#x136;" horiz-adv-x="569" 
d="M334 351l176 -278l55 -44l-5 -29h-114c-11 23 -24 46 -37 70l-158 257h-10l-29 -193c-2 -25 -1 -51 2 -75c21 -15 42 -24 68 -30l-6 -31c-39 1 -77 2 -117 2c-37 0 -70 0 -119 -2l6 32c22 5 36 10 60 23c12 32 19 61 30 113c17 115 36 232 53 347c4 25 2 49 -2 74
c-20 15 -41 24 -67 30l5 32c40 -2 78 -3 117 -3c43 0 78 1 119 3l-5 -32c-24 -7 -40 -12 -59 -23c-12 -30 -19 -58 -31 -114l-23 -147h8l262 257l-1 12c-7 4 -34 12 -49 15l5 32c36 -2 71 -2 107 -2c26 0 50 0 74 2l-5 -31c-15 -3 -37 -13 -46 -19zM268 -114v18
c22 17 31 31 42 54c38 -16 66 -39 66 -72c0 -53 -55 -96 -97 -126l-22 23c35 29 51 50 51 73c0 21 -16 28 -40 30z" />
    <glyph glyph-name="kcommaaccent" unicode="&#x137;" horiz-adv-x="480" 
d="M250 598l-73 -468c-4 -26 -10 -91 -3 -123c-33 -4 -60 -10 -94 -20l-9 13c10 36 18 71 23 107l71 458c2 23 2 38 -1 54c-14 5 -54 6 -88 5l-6 33c57 7 137 22 179 38l20 -15c-7 -18 -12 -41 -19 -82zM366 389c0 28 -16 42 -39 62l8 17l74 12c24 -15 46 -38 46 -75
c0 -67 -97 -106 -161 -138l82 -166c5 -13 11 -24 21 -32c15 5 54 28 81 49l22 -23c-56 -63 -101 -107 -126 -107c-14 0 -47 21 -56 32l-109 230l4 15c35 15 153 70 153 124zM199 -114v18c22 17 31 31 42 54c38 -16 66 -39 66 -72c0 -53 -55 -96 -97 -126l-22 23
c35 29 51 50 51 73c0 21 -16 28 -40 30z" />
    <glyph glyph-name="kgreenlandic" unicode="&#x138;" horiz-adv-x="480" 
d="M218 386l-41 -256c-4 -26 -10 -91 -3 -123c-33 -4 -60 -10 -94 -20l-9 13c10 36 18 71 23 107l39 246c2 23 2 38 -1 54c-14 5 -54 6 -88 5l-6 33c57 7 137 22 179 38l20 -15c-7 -18 -12 -41 -19 -82zM366 389c0 28 -16 42 -39 62l8 17l74 12c24 -15 46 -38 46 -75
c0 -67 -97 -126 -161 -158l79 -145c7 -12 15 -25 25 -33c15 5 53 28 80 49l22 -23c-56 -63 -101 -107 -126 -107c-14 0 -47 21 -56 32l-109 210l4 15c35 15 153 90 153 144z" />
    <glyph glyph-name="Lacute" unicode="&#x139;" horiz-adv-x="499" 
d="M208 50h190c23 33 50 92 76 152l40 -5c-17 -54 -42 -148 -48 -197h-314c-58 0 -85 -1 -112 -2l6 32c23 5 37 10 60 23c12 32 19 61 30 113l53 348c3 27 4 49 2 75c-20 14 -35 22 -61 29l5 32c36 -2 77 -3 117 -3c55 0 97 3 140 3l-5 -31c-29 -5 -63 -16 -91 -31
c-12 -25 -20 -54 -25 -84l-55 -350c-4 -34 -8 -68 -8 -104zM223 697l-18 28l159 115c18 -17 39 -33 60 -44l-6 -20z" />
    <glyph glyph-name="lacute" unicode="&#x13a;" horiz-adv-x="271" 
d="M85 43l80 519c2 25 2 41 -1 57c-14 5 -54 6 -88 5l-6 33c57 7 137 22 179 38l20 -15c-7 -18 -13 -41 -19 -82l-73 -471c-3 -33 -4 -44 -1 -60c10 -5 46 21 78 51l22 -23c-56 -63 -114 -107 -146 -107c-19 0 -40 32 -45 55zM153 721l-18 28l159 115c18 -17 39 -33 60 -44
l-6 -20z" />
    <glyph glyph-name="Lcommaaccent" unicode="&#x13b;" horiz-adv-x="499" 
d="M208 50h190c23 33 50 92 76 152l40 -5c-17 -54 -42 -148 -48 -197h-314c-58 0 -85 -1 -112 -2l6 32c23 5 37 10 60 23c12 32 19 61 30 113l53 348c3 27 4 49 2 75c-20 14 -35 22 -61 29l5 32c36 -2 77 -3 117 -3c55 0 97 3 140 3l-5 -31c-29 -5 -63 -16 -91 -31
c-12 -25 -20 -54 -25 -84l-55 -350c-4 -34 -8 -68 -8 -104zM233 -114v18c22 17 31 31 42 54c38 -16 66 -39 66 -72c0 -53 -55 -96 -97 -126l-22 23c35 29 51 50 51 73c0 21 -16 28 -40 30z" />
    <glyph glyph-name="lcommaaccent" unicode="&#x13c;" horiz-adv-x="271" 
d="M85 43l80 519c2 25 2 41 -1 57c-14 5 -54 6 -88 5l-6 33c57 7 137 22 179 38l20 -15c-7 -18 -13 -41 -19 -82l-73 -471c-3 -33 -4 -44 -1 -60c10 -5 46 21 78 51l22 -23c-56 -63 -114 -107 -146 -107c-19 0 -40 32 -45 55zM94 -114v18c22 17 31 31 42 54
c38 -16 66 -39 66 -72c0 -53 -55 -96 -97 -126l-22 23c35 29 51 50 51 73c0 21 -16 28 -40 30z" />
    <glyph glyph-name="Lcaron" unicode="&#x13d;" horiz-adv-x="499" 
d="M208 50h190c23 33 50 92 76 152l40 -5c-17 -54 -42 -148 -48 -197h-314c-58 0 -85 -1 -112 -2l6 32c23 5 37 10 60 23c12 32 19 61 30 113l53 348c3 27 4 49 2 75c-20 14 -35 22 -61 29l5 32c36 -2 77 -3 117 -3c55 0 97 3 140 3l-5 -31c-29 -5 -63 -16 -91 -31
c-12 -25 -20 -54 -25 -84l-55 -350c-4 -34 -8 -68 -8 -104zM461 448h-37l28 178c21 4 60 16 82 26l8 -12z" />
    <glyph glyph-name="lcaron" unicode="&#x13e;" horiz-adv-x="272" 
d="M85 43l80 519c2 25 2 41 -1 57c-14 5 -54 6 -88 5l-6 33c57 7 137 22 179 38l20 -15c-7 -18 -13 -41 -19 -82l-73 -471c-3 -33 -4 -44 -1 -60c10 -5 46 21 78 51l22 -23c-56 -63 -114 -107 -146 -107c-19 0 -40 32 -45 55zM326 491h-37l28 178c21 4 60 16 82 26l8 -12z
" />
    <glyph glyph-name="Ldot" unicode="&#x13f;" horiz-adv-x="499" 
d="M208 50h190c23 33 50 92 76 152l40 -5c-17 -54 -42 -148 -48 -197h-314c-58 0 -85 -1 -112 -2l6 32c23 5 37 10 60 23c12 32 19 61 30 113l53 348c3 27 4 49 2 75c-20 14 -35 22 -61 29l5 32c36 -2 77 -3 117 -3c55 0 97 3 140 3l-5 -31c-29 -5 -63 -16 -91 -31
c-12 -25 -20 -54 -25 -84l-55 -350c-4 -34 -8 -68 -8 -104zM460 406c29 0 41 -23 41 -45c0 -46 -21 -73 -67 -73c-24 0 -42 18 -42 44c0 40 19 74 68 74z" />
    <glyph glyph-name="ldot" unicode="&#x140;" horiz-adv-x="325" 
d="M85 43l80 519c2 25 2 41 -1 57c-14 5 -54 6 -88 5l-6 33c57 7 137 22 179 38l20 -15c-7 -18 -13 -41 -19 -82l-73 -471c-3 -33 -4 -44 -1 -60c10 -5 46 21 78 51l22 -23c-56 -63 -114 -107 -146 -107c-19 0 -40 32 -45 55zM355 410c29 0 41 -23 41 -45
c0 -46 -21 -73 -67 -73c-24 0 -42 18 -42 44c0 40 19 74 68 74z" />
    <glyph glyph-name="Lslash" unicode="&#x141;" horiz-adv-x="499" 
d="M208 50h190c23 33 50 92 76 152l40 -5c-17 -54 -42 -148 -48 -197h-314c-58 0 -85 -1 -112 -2l6 32c23 5 37 10 60 23c12 32 19 61 30 113l18 119l-84 -31l8 57l84 31l27 172c3 27 4 49 2 75c-20 14 -35 22 -61 29l5 32c36 -2 77 -3 117 -3c55 0 97 3 140 3l-5 -31
c-29 -5 -63 -16 -91 -31c-12 -25 -20 -54 -25 -84l-22 -137l231 85l-8 -57l-231 -84l-25 -157c-4 -34 -8 -68 -8 -104z" />
    <glyph glyph-name="lslash" unicode="&#x142;" horiz-adv-x="292" 
d="M85 43l42 274l-84 -45l10 62l83 44l29 184c2 25 2 41 -1 57c-14 5 -54 6 -88 5l-6 33c57 7 137 22 179 38l20 -15c-7 -18 -13 -41 -19 -82l-29 -184l96 52l-10 -62l-95 -52l-35 -225c-3 -33 -4 -44 -1 -60c10 -5 46 21 78 51l22 -23c-56 -63 -114 -107 -146 -107
c-19 0 -40 32 -45 55z" />
    <glyph glyph-name="Nacute" unicode="&#x143;" horiz-adv-x="698" 
d="M668 510l-78 -500l-65 -21l-263 592l-67 -440c-2 -26 -6 -54 -1 -82c20 -15 42 -24 69 -30l-6 -31c-38 2 -58 2 -98 2c-37 0 -70 0 -119 -2l6 32c22 5 36 10 59 23c12 32 20 61 31 113l51 335c4 27 4 58 5 86c-19 14 -40 22 -60 27l6 35c34 -1 67 -2 104 -2
c27 0 50 0 87 2l221 -520l58 376c2 14 3 31 3 47c0 15 -1 28 -3 37c-22 13 -50 25 -76 30l5 31c39 -3 71 -3 111 -3c38 0 86 1 122 3l-6 -32c-28 -7 -52 -15 -76 -29c-8 -24 -15 -50 -20 -79zM398 697l-18 28l159 115c18 -17 39 -33 60 -44l-6 -20z" />
    <glyph glyph-name="nacute" unicode="&#x144;" horiz-adv-x="533" 
d="M182 260l6 -5c86 201 178 225 232 225c48 0 71 -20 71 -74c0 -20 -3 -44 -9 -73l-43 -210c-3 -33 -4 -40 -1 -56c10 -5 46 21 78 51l22 -23c-56 -63 -114 -107 -146 -107c-19 0 -35 30 -41 53l49 275c4 23 6 41 6 55c0 28 -9 38 -27 38c-53 0 -178 -136 -197 -274l-4 -29
c-2 -26 -6 -66 1 -99c-33 -4 -60 -10 -94 -20l-9 13c10 36 18 71 23 107l36 236c3 26 4 50 1 66c-14 5 -35 6 -69 5l-6 33c57 7 121 22 163 38l20 -15c-14 -32 -45 -128 -62 -210zM299 533l-24 25l142 154c21 -13 55 -26 78 -33l-4 -21z" />
    <glyph glyph-name="Ncommaaccent" unicode="&#x145;" horiz-adv-x="698" 
d="M668 510l-78 -500l-65 -21l-263 592l-67 -440c-2 -26 -6 -54 -1 -82c20 -15 42 -24 69 -30l-6 -31c-38 2 -58 2 -98 2c-37 0 -70 0 -119 -2l6 32c22 5 36 10 59 23c12 32 20 61 31 113l51 335c4 27 4 58 5 86c-19 14 -40 22 -60 27l6 35c34 -1 67 -2 104 -2
c27 0 50 0 87 2l221 -520l58 376c2 14 3 31 3 47c0 15 -1 28 -3 37c-22 13 -50 25 -76 30l5 31c39 -3 71 -3 111 -3c38 0 86 1 122 3l-6 -32c-28 -7 -52 -15 -76 -29c-8 -24 -15 -50 -20 -79zM319 -114v18c22 17 31 31 42 54c38 -16 66 -39 66 -72c0 -53 -55 -96 -97 -126
l-22 23c35 29 51 50 51 73c0 21 -16 28 -40 30z" />
    <glyph glyph-name="ncommaaccent" unicode="&#x146;" horiz-adv-x="533" 
d="M182 260l6 -5c86 201 178 225 232 225c48 0 71 -20 71 -74c0 -20 -3 -44 -9 -73l-43 -210c-3 -33 -4 -40 -1 -56c10 -5 46 21 78 51l22 -23c-56 -63 -114 -107 -146 -107c-19 0 -35 30 -41 53l49 275c4 23 6 41 6 55c0 28 -9 38 -27 38c-53 0 -178 -136 -197 -274l-4 -29
c-2 -26 -6 -66 1 -99c-33 -4 -60 -10 -94 -20l-9 13c10 36 18 71 23 107l36 236c3 26 4 50 1 66c-14 5 -35 6 -69 5l-6 33c57 7 121 22 163 38l20 -15c-14 -32 -45 -128 -62 -210zM223 -114v18c22 17 31 31 42 54c38 -16 66 -39 66 -72c0 -53 -55 -96 -97 -126l-22 23
c35 29 51 50 51 73c0 21 -16 28 -40 30z" />
    <glyph glyph-name="Ncaron" unicode="&#x147;" horiz-adv-x="698" 
d="M668 510l-78 -500l-65 -21l-263 592l-67 -440c-2 -26 -6 -54 -1 -82c20 -15 42 -24 69 -30l-6 -31c-38 2 -58 2 -98 2c-37 0 -70 0 -119 -2l6 32c22 5 36 10 59 23c12 32 20 61 31 113l51 335c4 27 4 58 5 86c-19 14 -40 22 -60 27l6 35c34 -1 67 -2 104 -2
c27 0 50 0 87 2l221 -520l58 376c2 14 3 31 3 47c0 15 -1 28 -3 37c-22 13 -50 25 -76 30l5 31c39 -3 71 -3 111 -3c38 0 86 1 122 3l-6 -32c-28 -7 -52 -15 -76 -29c-8 -24 -15 -50 -20 -79zM470 770l139 93l21 -21l-140 -135h-51l-77 109c21 8 39 19 57 35z" />
    <glyph glyph-name="ncaron" unicode="&#x148;" horiz-adv-x="533" 
d="M182 260l6 -5c86 201 178 225 232 225c48 0 71 -20 71 -74c0 -20 -3 -44 -9 -73l-43 -210c-3 -33 -4 -40 -1 -56c10 -5 46 21 78 51l22 -23c-56 -63 -114 -107 -146 -107c-19 0 -35 30 -41 53l49 275c4 23 6 41 6 55c0 28 -9 38 -27 38c-53 0 -178 -136 -197 -274l-4 -29
c-2 -26 -6 -66 1 -99c-33 -4 -60 -10 -94 -20l-9 13c10 36 18 71 23 107l36 236c3 26 4 50 1 66c-14 5 -35 6 -69 5l-6 33c57 7 121 22 163 38l20 -15c-14 -32 -45 -128 -62 -210zM340 598l129 115l24 -25l-131 -155h-51l-70 129c21 8 39 19 57 35z" />
    <glyph glyph-name="napostrophe" unicode="&#x149;" horiz-adv-x="533" 
d="M182 260l6 -5c86 201 178 225 232 225c48 0 71 -20 71 -74c0 -20 -3 -44 -9 -73l-43 -210c-3 -33 -4 -40 -1 -56c10 -5 46 21 78 51l22 -23c-56 -63 -114 -107 -146 -107c-19 0 -35 30 -41 53l49 275c4 23 6 41 6 55c0 28 -9 38 -27 38c-53 0 -178 -136 -197 -274l-4 -29
c-2 -26 -6 -66 1 -99c-33 -4 -60 -10 -94 -20l-9 13c10 36 18 71 23 107l36 236c3 26 4 50 1 66c-14 5 -35 6 -69 5l-6 33c57 7 121 22 163 38l20 -15c-14 -32 -45 -128 -62 -210zM87 507l-14 22c18 14 53 45 53 77c0 22 -21 35 -21 58c0 28 22 46 50 46c26 0 43 -17 43 -50
c0 -64 -56 -118 -111 -153z" />
    <glyph glyph-name="Eng" unicode="&#x14a;" horiz-adv-x="698" 
d="M668 510l-63 -398c-10 -62 -21 -118 -35 -165l-149 -151l-26 24c52 66 90 135 111 211l-244 550l-67 -440c-2 -26 -6 -54 -1 -82c20 -15 42 -24 69 -30l-6 -31c-38 2 -58 2 -98 2c-37 0 -70 0 -119 -2l6 32c22 5 36 10 59 23c12 32 20 61 31 113l51 335c4 27 4 58 5 86
c-19 14 -40 22 -60 27l6 35c34 -1 67 -2 104 -2c27 0 50 0 87 2l221 -520l58 376c2 14 3 31 3 47c0 15 -1 28 -3 37c-22 13 -50 25 -76 30l5 31c39 -3 71 -3 111 -3c38 0 86 1 122 3l-6 -32c-28 -7 -52 -15 -76 -29c-8 -24 -15 -50 -20 -79z" />
    <glyph glyph-name="eng" unicode="&#x14b;" horiz-adv-x="524" 
d="M437 78c-10 -64 -18 -107 -29 -152c-28 -24 -110 -103 -140 -130l-21 22c61 76 96 143 111 237l42 261c4 23 6 41 6 55c0 28 -9 38 -27 38c-53 0 -178 -136 -197 -274l-4 -29c-2 -26 -6 -66 1 -99c-33 -4 -60 -10 -94 -20l-9 13c10 36 18 71 23 107l36 236
c3 26 4 50 1 66c-14 5 -35 6 -69 5l-6 33c57 7 121 22 163 38l20 -15c-14 -32 -45 -128 -62 -210l6 -5c86 201 178 225 232 225c48 0 71 -20 71 -74c0 -20 -4 -44 -9 -73z" />
    <glyph glyph-name="Omacron" unicode="&#x14c;" horiz-adv-x="659" 
d="M331 -17c-166 0 -248 117 -248 281c0 186 119 400 358 400c148 0 238 -100 238 -254c0 -213 -128 -427 -348 -427zM405 615c-182 0 -224 -190 -224 -336c0 -132 36 -246 169 -246c169 0 229 195 229 348c0 134 -52 234 -174 234zM280 740l7 46h293l15 -15l-7 -45h-292z
" />
    <glyph glyph-name="omacron" unicode="&#x14d;" horiz-adv-x="473" 
d="M65 161c0 228 143 319 255 319c96 0 148 -68 148 -176c0 -162 -74 -316 -251 -316c-114 0 -152 84 -152 173zM296 437c-77 0 -142 -99 -142 -263c0 -95 32 -144 89 -144c91 0 136 136 136 282c0 90 -35 125 -83 125zM164 593l7 46h293l15 -15l-7 -45h-292z" />
    <glyph glyph-name="Obreve" unicode="&#x14e;" horiz-adv-x="659" 
d="M331 -17c-166 0 -248 117 -248 281c0 186 119 400 358 400c148 0 238 -100 238 -254c0 -213 -128 -427 -348 -427zM405 615c-182 0 -224 -190 -224 -336c0 -132 36 -246 169 -246c169 0 229 195 229 348c0 134 -52 234 -174 234zM330 841l32 13c18 -59 47 -78 88 -78
c37 0 65 11 117 76l24 -19c-68 -111 -116 -126 -159 -126c-57 0 -91 48 -102 134z" />
    <glyph glyph-name="obreve" unicode="&#x14f;" horiz-adv-x="473" 
d="M65 161c0 228 143 319 255 319c96 0 148 -68 148 -176c0 -162 -74 -316 -251 -316c-114 0 -152 84 -152 173zM296 437c-77 0 -142 -99 -142 -263c0 -95 32 -144 89 -144c91 0 136 136 136 282c0 90 -35 125 -83 125zM225 670l32 13c18 -59 42 -86 83 -86
c37 0 71 20 121 85l23 -23c-69 -113 -119 -131 -162 -131c-57 0 -86 56 -97 142z" />
    <glyph glyph-name="Ohungarumlaut" unicode="&#x150;" horiz-adv-x="659" 
d="M331 -17c-166 0 -248 117 -248 281c0 186 119 400 358 400c148 0 238 -100 238 -254c0 -213 -128 -427 -348 -427zM405 615c-182 0 -224 -190 -224 -336c0 -132 36 -246 169 -246c169 0 229 195 229 348c0 134 -52 234 -174 234zM329 694l-20 21l125 152
c20 -10 51 -19 69 -24l-2 -21zM486 694l-22 25l133 135c21 -14 50 -26 69 -31l-6 -22z" />
    <glyph glyph-name="ohungarumlaut" unicode="&#x151;" horiz-adv-x="473" 
d="M65 161c0 228 143 319 255 319c96 0 148 -68 148 -176c0 -162 -74 -316 -251 -316c-114 0 -152 84 -152 173zM296 437c-77 0 -142 -99 -142 -263c0 -95 32 -144 89 -144c91 0 136 136 136 282c0 90 -35 125 -83 125zM231 535l-26 17l87 168c21 -6 54 -9 73 -9l2 -21z
M365 535l-28 17l87 169c23 -7 54 -10 74 -9l1 -22z" />
    <glyph glyph-name="OE" unicode="&#x152;" horiz-adv-x="893" 
d="M855 599h-190c-8 -24 -15 -53 -21 -83l-24 -163h121c26 1 34 4 43 9c19 25 31 48 42 71h29c-14 -68 -25 -139 -32 -207h-30c-1 25 -5 49 -12 68c-16 7 -33 9 -63 10h-107l-24 -170c-3 -27 -5 -58 -5 -85h207c19 27 54 94 66 124l43 -7c-15 -42 -39 -124 -46 -166h-374
c-63 -14 -97 -17 -139 -17c-174 0 -256 122 -256 278c0 193 113 403 360 403c48 0 74 -4 127 -17h363c-9 -35 -21 -101 -26 -145h-15l-37 5c4 29 5 60 0 92zM360 33c56 0 94 14 135 38l78 507c-42 22 -85 36 -146 36c-204 0 -247 -175 -247 -335c0 -127 44 -246 180 -246z
" />
    <glyph glyph-name="oe" unicode="&#x153;" horiz-adv-x="718" 
d="M673 136l25 -28c-67 -72 -140 -120 -209 -120c-60 0 -90 36 -102 81c-38 -45 -96 -81 -170 -81c-114 0 -152 89 -152 178c0 228 143 326 255 326c66 0 102 -39 121 -97c40 56 100 97 174 97c76 0 113 -43 113 -98c0 -137 -172 -163 -277 -179c-1 -18 -2 -33 -2 -44
c0 -81 25 -114 71 -115c44 0 97 27 153 80zM296 449c-77 0 -142 -106 -142 -270c0 -95 32 -149 89 -149c91 0 136 141 136 287c0 90 -35 132 -83 132zM644 386c0 36 -18 59 -57 59c-81 0 -115 -101 -130 -184c86 13 187 35 187 125z" />
    <glyph glyph-name="Racute" unicode="&#x154;" horiz-adv-x="549" 
d="M292 343h26c106 0 154 75 154 145c0 79 -38 113 -108 113h-71c-8 -26 -14 -56 -20 -83l-59 -384c-3 -26 -3 -51 1 -75c22 -15 43 -24 69 -30l-6 -31c-39 2 -76 2 -116 2c-42 0 -79 0 -122 -2l6 32c22 5 37 10 60 23c12 32 19 61 30 113l53 348c3 27 4 49 2 75
c-20 14 -35 22 -61 29l5 32c36 -2 79 -3 120 -3h136c89 0 178 -42 178 -148c0 -103 -80 -173 -187 -194l111 -232l55 -44l-5 -29h-111c-10 23 -19 45 -31 70l-119 256zM290 697l-18 28l159 115c18 -17 39 -33 60 -44l-6 -20z" />
    <glyph glyph-name="racute" unicode="&#x155;" horiz-adv-x="415" 
d="M424 380l-19 -8c-9 14 -22 23 -42 23c-88 0 -169 -166 -185 -292c-2 -14 -3 -30 -3 -49c0 -16 1 -32 4 -47c-33 -4 -60 -10 -94 -20l-9 13c10 36 17 71 23 107l36 236c3 26 4 50 1 66c-14 5 -35 6 -69 5l-6 33c57 7 121 22 163 38l20 -15c-14 -32 -51 -140 -62 -211l6 -5
c45 131 106 226 203 226c11 0 32 -3 47 -11zM264 533l-24 25l142 154c21 -13 55 -26 78 -33l-4 -21z" />
    <glyph glyph-name="Rcommaaccent" unicode="&#x156;" horiz-adv-x="549" 
d="M292 343h26c106 0 154 75 154 145c0 79 -38 113 -108 113h-71c-8 -26 -14 -56 -20 -83l-59 -384c-3 -26 -3 -51 1 -75c22 -15 43 -24 69 -30l-6 -31c-39 2 -76 2 -116 2c-42 0 -79 0 -122 -2l6 32c22 5 37 10 60 23c12 32 19 61 30 113l53 348c3 27 4 49 2 75
c-20 14 -35 22 -61 29l5 32c36 -2 79 -3 120 -3h136c89 0 178 -42 178 -148c0 -103 -80 -173 -187 -194l111 -232l55 -44l-5 -29h-111c-10 23 -19 45 -31 70l-119 256zM258 -114v18c22 17 31 31 42 54c38 -16 66 -39 66 -72c0 -53 -55 -96 -97 -126l-22 23
c35 29 51 50 51 73c0 21 -16 28 -40 30z" />
    <glyph glyph-name="rcommaaccent" unicode="&#x157;" horiz-adv-x="415" 
d="M424 380l-19 -8c-9 14 -22 23 -42 23c-88 0 -169 -166 -185 -292c-2 -14 -3 -30 -3 -49c0 -16 1 -32 4 -47c-33 -4 -60 -10 -94 -20l-9 13c10 36 17 71 23 107l36 236c3 26 4 50 1 66c-14 5 -35 6 -69 5l-6 33c57 7 121 22 163 38l20 -15c-14 -32 -51 -140 -62 -211l6 -5
c45 131 106 226 203 226c11 0 32 -3 47 -11zM78 -114v18c22 17 31 31 42 54c38 -16 66 -39 66 -72c0 -53 -55 -96 -97 -126l-22 23c35 29 51 50 51 73c0 21 -16 28 -40 30z" />
    <glyph glyph-name="Rcaron" unicode="&#x158;" horiz-adv-x="549" 
d="M292 343h26c106 0 154 75 154 145c0 79 -38 113 -108 113h-71c-8 -26 -14 -56 -20 -83l-59 -384c-3 -26 -3 -51 1 -75c22 -15 43 -24 69 -30l-6 -31c-39 2 -76 2 -116 2c-42 0 -79 0 -122 -2l6 32c22 5 37 10 60 23c12 32 19 61 30 113l53 348c3 27 4 49 2 75
c-20 14 -35 22 -61 29l5 32c36 -2 79 -3 120 -3h136c89 0 178 -42 178 -148c0 -103 -80 -173 -187 -194l111 -232l55 -44l-5 -29h-111c-10 23 -19 45 -31 70l-119 256zM355 770l139 93l21 -21l-140 -135h-51l-77 109c21 8 39 19 57 35z" />
    <glyph glyph-name="rcaron" unicode="&#x159;" horiz-adv-x="415" 
d="M424 380l-19 -8c-9 14 -22 23 -42 23c-88 0 -169 -166 -185 -292c-2 -14 -3 -30 -3 -49c0 -16 1 -32 4 -47c-33 -4 -60 -10 -94 -20l-9 13c10 36 17 71 23 107l36 236c3 26 4 50 1 66c-14 5 -35 6 -69 5l-6 33c57 7 121 22 163 38l20 -15c-14 -32 -51 -140 -62 -211l6 -5
c45 131 106 226 203 226c11 0 32 -3 47 -11zM280 598l129 115l24 -25l-131 -155h-51l-70 129c21 8 39 19 57 35z" />
    <glyph glyph-name="Sacute" unicode="&#x15a;" horiz-adv-x="486" 
d="M367 664c52 0 112 -11 153 -33c-9 -37 -23 -103 -29 -151h-15l-37 5c1 12 2 30 2 45c0 20 -1 40 -4 54c-17 20 -47 34 -87 34c-70 0 -127 -51 -127 -116c0 -67 29 -89 103 -123c76 -35 158 -66 158 -169c0 -148 -132 -222 -260 -222c-69 0 -133 11 -184 40
c16 44 35 123 47 177l52 -8c-5 -42 -8 -80 -3 -118c22 -25 60 -41 112 -41c92 0 146 58 146 127c0 84 -50 110 -125 140c-73 29 -134 62 -134 155c0 118 106 204 232 204zM301 697l-18 28l159 115c18 -17 39 -33 60 -44l-6 -20z" />
    <glyph glyph-name="sacute" unicode="&#x15b;" horiz-adv-x="373" 
d="M361 357l27 96c-29 17 -83 27 -118 27c-89 0 -183 -53 -183 -158c0 -62 45 -91 91 -109c55 -22 98 -40 98 -95c0 -53 -37 -85 -92 -85c-65 0 -93 37 -98 85h-23l-33 -102c34 -19 86 -28 131 -28c98 0 192 60 192 168c0 83 -68 105 -128 131c-36 16 -63 39 -63 77
c0 49 37 76 83 76c59 0 79 -36 93 -83h23zM221 533l-24 25l142 154c21 -13 55 -26 78 -33l-4 -21z" />
    <glyph glyph-name="Scircumflex" unicode="&#x15c;" horiz-adv-x="486" 
d="M367 664c52 0 112 -11 153 -33c-9 -37 -23 -103 -29 -151h-15l-37 5c1 12 2 30 2 45c0 20 -1 40 -4 54c-17 20 -47 34 -87 34c-70 0 -127 -51 -127 -116c0 -67 29 -89 103 -123c76 -35 158 -66 158 -169c0 -148 -132 -222 -260 -222c-69 0 -133 11 -184 40
c16 44 35 123 47 177l52 -8c-5 -42 -8 -80 -3 -118c22 -25 60 -41 112 -41c92 0 146 58 146 127c0 84 -50 110 -125 140c-73 29 -134 62 -134 155c0 118 106 204 232 204zM382 771l-132 -74l-24 25l138 124h51l93 -128l-27 -21z" />
    <glyph glyph-name="scircumflex" unicode="&#x15d;" horiz-adv-x="373" 
d="M361 357l27 96c-29 17 -83 27 -118 27c-89 0 -183 -53 -183 -158c0 -62 45 -91 91 -109c55 -22 98 -40 98 -95c0 -53 -37 -85 -92 -85c-65 0 -93 37 -98 85h-23l-33 -102c34 -19 86 -28 131 -28c98 0 192 60 192 168c0 83 -68 105 -128 131c-36 16 -63 39 -63 77
c0 49 37 76 83 76c59 0 79 -36 93 -83h23zM281 632l-122 -99l-24 25l131 155h51l86 -159l-27 -21z" />
    <glyph glyph-name="Scedilla" unicode="&#x15e;" horiz-adv-x="486" 
d="M254 -11l-9 -32c40 -11 67 -34 67 -70c0 -26 -11 -48 -28 -65c-28 -29 -79 -47 -148 -51l-3 31c86 11 111 40 111 71c0 23 -19 36 -56 40l-5 12l21 63c-62 2 -118 14 -164 40c16 44 35 123 47 177l52 -8c-5 -42 -8 -80 -3 -118c22 -25 60 -41 112 -41
c92 0 146 58 146 127c0 84 -50 110 -125 140c-73 29 -134 62 -134 155c0 118 106 204 232 204c52 0 112 -11 153 -33c-9 -37 -23 -103 -29 -151h-15l-37 5c1 12 2 30 2 45c0 20 -1 40 -4 54c-17 20 -47 34 -87 34c-70 0 -127 -51 -127 -116c0 -67 29 -89 103 -123
c76 -35 158 -66 158 -169c0 -137 -112 -210 -230 -221z" />
    <glyph glyph-name="scedilla" unicode="&#x15f;" horiz-adv-x="373" 
d="M201 -8l-7 -35c42 -7 67 -36 67 -64s-10 -53 -26 -70c-27 -29 -75 -45 -143 -49l-4 30c85 11 110 38 110 69c0 23 -22 36 -59 40l-6 12l18 63c-42 1 -90 11 -121 28l33 102h23c5 -48 33 -85 98 -85c55 0 92 32 92 85c0 55 -43 73 -98 95c-46 18 -91 47 -91 109
c0 105 94 158 183 158c35 0 89 -10 118 -27l-27 -96h-23c-14 47 -34 83 -93 83c-46 0 -83 -27 -83 -76c0 -38 27 -61 63 -77c60 -26 128 -48 128 -131c0 -93 -70 -151 -152 -164z" />
    <glyph glyph-name="Scaron" unicode="&#x160;" horiz-adv-x="486" 
d="M367 664c52 0 112 -11 153 -33c-9 -37 -23 -103 -29 -151h-15l-37 5c1 12 2 30 2 45c0 20 -1 40 -4 54c-17 20 -47 34 -87 34c-70 0 -127 -51 -127 -116c0 -67 29 -89 103 -123c76 -35 158 -66 158 -169c0 -148 -132 -222 -260 -222c-69 0 -133 11 -184 40
c16 44 35 123 47 177l52 -8c-5 -42 -8 -80 -3 -118c22 -25 60 -41 112 -41c92 0 146 58 146 127c0 84 -50 110 -125 140c-73 29 -134 62 -134 155c0 118 106 204 232 204zM366 770l139 93l21 -21l-140 -135h-51l-77 109c21 8 39 19 57 35z" />
    <glyph glyph-name="scaron" unicode="&#x161;" horiz-adv-x="373" 
d="M361 357l27 96c-29 17 -83 27 -118 27c-89 0 -183 -53 -183 -158c0 -62 45 -91 91 -109c55 -22 98 -40 98 -95c0 -53 -37 -85 -92 -85c-65 0 -93 37 -98 85h-23l-33 -102c34 -19 86 -28 131 -28c98 0 192 60 192 168c0 83 -68 105 -128 131c-36 16 -63 39 -63 77
c0 49 37 76 83 76c59 0 79 -36 93 -83h23zM271 598l129 115l24 -25l-131 -155h-51l-70 129c21 8 39 19 57 35z" />
    <glyph glyph-name="Scommaaccent" unicode="&#x218;" horiz-adv-x="486" 
d="M367 664c52 0 112 -11 153 -33c-9 -37 -23 -103 -29 -151h-15l-37 5c1 12 2 30 2 45c0 20 -1 40 -4 54c-17 20 -47 34 -87 34c-70 0 -127 -51 -127 -116c0 -67 29 -89 103 -123c76 -35 158 -66 158 -169c0 -148 -132 -222 -260 -222c-69 0 -133 11 -184 40
c16 44 35 123 47 177l52 -8c-5 -42 -8 -80 -3 -118c22 -25 60 -41 112 -41c92 0 146 58 146 127c0 84 -50 110 -125 140c-73 29 -134 62 -134 155c0 118 106 204 232 204zM199 -114v18c22 17 31 31 42 54c38 -16 66 -39 66 -72c0 -53 -55 -96 -97 -126l-22 23
c35 29 51 50 51 73c0 21 -16 28 -40 30z" />
    <glyph glyph-name="scommaaccent" unicode="&#x219;" horiz-adv-x="373" 
d="M388 453l-27 -96h-23c-14 47 -34 83 -93 83c-46 0 -83 -27 -83 -76c0 -38 27 -61 63 -77c60 -26 128 -48 128 -131c0 -108 -94 -168 -192 -168c-45 0 -97 9 -131 28l33 102h23c5 -48 33 -85 98 -85c55 0 92 32 92 85c0 55 -43 73 -98 95c-46 18 -91 47 -91 109
c0 105 94 158 183 158c35 0 89 -10 118 -27zM137 -114v18c22 17 31 31 42 54c38 -16 66 -39 66 -72c0 -53 -55 -96 -97 -126l-22 23c35 29 51 50 51 73c0 21 -16 28 -40 30z" />
    <glyph glyph-name="Tcommaaccent" unicode="&#x162;" horiz-adv-x="571" 
d="M328 599h-132c-14 -27 -41 -109 -46 -136l-39 -6h-16c11 48 24 149 24 190h533c-11 -43 -31 -142 -36 -189h-15l-38 5c5 43 3 92 -3 136h-132c-10 -25 -15 -56 -22 -86l-57 -369c-3 -27 -3 -54 1 -85c23 -12 56 -25 83 -30l-7 -31c-40 1 -91 3 -130 3
c-43 0 -101 -2 -144 -3l4 34c27 5 61 13 85 26c13 32 19 58 31 110l52 344c4 33 5 64 4 87zM227 -114v18c22 17 31 31 42 54c38 -16 66 -39 66 -72c0 -53 -55 -96 -97 -126l-22 23c35 29 51 50 51 73c0 21 -16 28 -40 30z" />
    <glyph glyph-name="tcommaaccent" unicode="&#x163;" horiz-adv-x="333" 
d="M319 100l23 -34c-52 -37 -121 -78 -181 -78c-22 0 -56 20 -69 51c-2 17 1 54 4 72l49 294h-57l7 42c50 22 89 65 116 103h43c-9 -24 -17 -62 -23 -93c37 1 86 3 125 8c-5 -16 -13 -47 -16 -62h-117l-48 -284c-1 -9 -2 -17 -2 -27c0 -27 11 -39 39 -39c32 0 74 24 107 47z
M109 -114v18c22 17 31 31 42 54c38 -16 66 -39 66 -72c0 -53 -55 -96 -97 -126l-22 23c35 29 51 50 51 73c0 21 -16 28 -40 30z" />
    <glyph glyph-name="Tcaron" unicode="&#x164;" horiz-adv-x="571" 
d="M328 599h-132c-14 -27 -41 -109 -46 -136l-39 -6h-16c11 48 24 149 24 190h533c-11 -43 -31 -142 -36 -189h-15l-38 5c5 43 3 92 -3 136h-132c-10 -25 -15 -56 -22 -86l-57 -369c-3 -27 -3 -54 1 -85c23 -12 56 -25 83 -30l-7 -31c-40 1 -91 3 -130 3
c-43 0 -101 -2 -144 -3l4 34c27 5 61 13 85 26c13 32 19 58 31 110l52 344c4 33 5 64 4 87zM393 770l139 93l21 -21l-140 -135h-51l-77 109c21 8 39 19 57 35z" />
    <glyph glyph-name="tcaron" unicode="&#x165;" horiz-adv-x="333" 
d="M342 66l-23 34c-33 -23 -75 -47 -107 -47c-28 0 -39 12 -39 39c0 10 1 18 2 27l48 284h117c3 15 11 46 16 62c-39 -5 -88 -7 -125 -8c6 31 14 69 23 93h-43c-27 -38 -66 -81 -116 -103l-7 -42h57l-49 -294c-3 -18 -6 -55 -4 -72c13 -31 47 -51 69 -51c60 0 129 41 181 78
zM333 509h-37l28 178c21 4 60 16 82 26l8 -12z" />
    <glyph glyph-name="Tbar" unicode="&#x166;" horiz-adv-x="571" 
d="M328 599h-132c-14 -27 -41 -109 -46 -136l-39 -6h-16c11 48 24 149 24 190h533c-11 -43 -31 -142 -36 -189h-15l-38 5c5 43 3 92 -3 136h-132c-10 -25 -15 -56 -22 -86l-27 -174h151l-7 -48h-152l-22 -147c-3 -27 -3 -54 1 -85c23 -12 56 -25 83 -30l-7 -31
c-40 1 -91 3 -130 3c-43 0 -101 -2 -144 -3l4 34c27 5 61 13 85 26c13 32 19 58 31 110l18 123h-137l7 48h138l26 173c4 33 5 64 4 87z" />
    <glyph glyph-name="tbar" unicode="&#x167;" horiz-adv-x="333" 
d="M319 100l23 -34c-52 -37 -121 -78 -181 -78c-22 0 -56 20 -69 51c-2 17 1 54 4 72l19 118h-55l7 47h56l22 129h-57l7 42c50 22 89 65 116 103h43c-9 -24 -17 -62 -23 -93c37 1 86 3 125 8c-5 -16 -13 -47 -16 -62h-117l-22 -127h122l-9 -47h-121l-18 -110
c-1 -9 -2 -17 -2 -27c0 -27 11 -39 39 -39c32 0 74 24 107 47z" />
    <glyph glyph-name="uni021A" unicode="&#x21a;" horiz-adv-x="571" 
d="M328 599h-132c-14 -27 -41 -109 -46 -136l-39 -6h-16c11 48 24 149 24 190h533c-11 -43 -31 -142 -36 -189h-15l-38 5c5 43 3 92 -3 136h-132c-10 -25 -15 -56 -22 -86l-57 -369c-3 -27 -3 -54 1 -85c23 -12 56 -25 83 -30l-7 -31c-40 1 -91 3 -130 3
c-43 0 -101 -2 -144 -3l4 34c27 5 61 13 85 26c13 32 19 58 31 110l52 344c4 33 5 64 4 87zM226 -114v18c22 17 31 31 42 54c38 -16 66 -39 66 -72c0 -53 -55 -96 -97 -126l-22 23c35 29 51 50 51 73c0 21 -16 28 -40 30z" />
    <glyph glyph-name="uni021B" unicode="&#x21b;" horiz-adv-x="333" 
d="M319 100l23 -34c-52 -37 -121 -78 -181 -78c-22 0 -56 20 -69 51c-2 17 1 54 4 72l49 294h-57l7 42c50 22 89 65 116 103h43c-9 -24 -17 -62 -23 -93c37 1 86 3 125 8c-5 -16 -13 -47 -16 -62h-117l-48 -284c-1 -9 -2 -17 -2 -27c0 -27 11 -39 39 -39c32 0 74 24 107 47z
M120 -114v18c22 17 31 31 42 54c38 -16 66 -39 66 -72c0 -53 -55 -96 -97 -126l-22 23c35 29 51 50 51 73c0 21 -16 28 -40 30z" />
    <glyph glyph-name="Utilde" unicode="&#x168;" horiz-adv-x="677" 
d="M563 279l36 235c2 28 3 50 1 75c-21 14 -35 22 -62 29l5 32c37 -2 55 -3 95 -3c42 0 72 1 114 3l-5 -33c-24 -6 -46 -15 -68 -26c-12 -32 -19 -59 -23 -86l-28 -186c-3 -22 -14 -83 -31 -142c-38 -134 -121 -189 -246 -189c-146 0 -212 65 -212 185c0 34 5 85 10 118
l34 224c3 25 3 46 0 72c-20 15 -42 24 -69 30l4 32c41 -2 69 -3 109 -3c42 0 87 1 130 3l-5 -32c-22 -6 -39 -11 -61 -24c-13 -32 -16 -44 -26 -97l-28 -185c-3 -23 -13 -86 -13 -129c0 -96 41 -138 143 -138c86 0 142 42 170 123c11 34 24 97 26 112zM319 720l-22 23
c44 51 71 80 122 80s76 -41 123 -41c27 0 48 10 67 35l22 -20c-36 -52 -68 -84 -108 -84c-56 0 -89 42 -137 42c-24 0 -41 -8 -67 -35z" />
    <glyph glyph-name="utilde" unicode="&#x169;" horiz-adv-x="544" 
d="M206 310l-29 -158c-13 -72 -4 -93 25 -93c59 0 179 144 200 289l2 14c1 17 6 66 -1 99c33 4 60 10 94 20l9 -13c-10 -36 -17 -71 -23 -107l-38 -225c-7 -45 -7 -64 -3 -72c11 -5 55 30 85 58l22 -23c-58 -68 -129 -111 -150 -111c-36 0 -45 47 -42 65s48 172 53 188l-9 2
c-44 -120 -131 -255 -228 -255c-56 0 -96 31 -77 141l38 214c3 26 5 50 2 66c-14 5 -35 6 -69 5l-6 33c57 7 121 22 163 38l20 -15c-14 -32 -26 -89 -38 -160zM187 561l-22 23c44 51 71 80 122 80s76 -41 123 -41c27 0 48 10 67 35l22 -20c-36 -52 -68 -84 -108 -84
c-56 0 -89 42 -137 42c-24 0 -41 -8 -67 -35z" />
    <glyph glyph-name="Umacron" unicode="&#x16a;" horiz-adv-x="677" 
d="M563 279l36 235c2 28 3 50 1 75c-21 14 -35 22 -62 29l5 32c37 -2 55 -3 95 -3c42 0 72 1 114 3l-5 -33c-24 -6 -46 -15 -68 -26c-12 -32 -19 -59 -23 -86l-28 -186c-3 -22 -14 -83 -31 -142c-38 -134 -121 -189 -246 -189c-146 0 -212 65 -212 185c0 34 5 85 10 118
l34 224c3 25 3 46 0 72c-20 15 -42 24 -69 30l4 32c41 -2 69 -3 109 -3c42 0 87 1 130 3l-5 -32c-22 -6 -39 -11 -61 -24c-13 -32 -16 -44 -26 -97l-28 -185c-3 -23 -13 -86 -13 -129c0 -96 41 -138 143 -138c86 0 142 42 170 123c11 34 24 97 26 112zM295 740l7 46h293
l15 -15l-7 -45h-292z" />
    <glyph glyph-name="umacron" unicode="&#x16b;" horiz-adv-x="544" 
d="M206 310l-29 -158c-13 -72 -4 -93 25 -93c59 0 179 144 200 289l2 14c1 17 6 66 -1 99c33 4 60 10 94 20l9 -13c-10 -36 -17 -71 -23 -107l-38 -225c-7 -45 -7 -64 -3 -72c11 -5 55 30 85 58l22 -23c-58 -68 -129 -111 -150 -111c-36 0 -45 47 -42 65s48 172 53 188l-9 2
c-44 -120 -131 -255 -228 -255c-56 0 -96 31 -77 141l38 214c3 26 5 50 2 66c-14 5 -35 6 -69 5l-6 33c57 7 121 22 163 38l20 -15c-14 -32 -26 -89 -38 -160zM181 593l7 46h293l15 -15l-7 -45h-292z" />
    <glyph glyph-name="Ubreve" unicode="&#x16c;" horiz-adv-x="677" 
d="M563 279l36 235c2 28 3 50 1 75c-21 14 -35 22 -62 29l5 32c37 -2 55 -3 95 -3c42 0 72 1 114 3l-5 -33c-24 -6 -46 -15 -68 -26c-12 -32 -19 -59 -23 -86l-28 -186c-3 -22 -14 -83 -31 -142c-38 -134 -121 -189 -246 -189c-146 0 -212 65 -212 185c0 34 5 85 10 118
l34 224c3 25 3 46 0 72c-20 15 -42 24 -69 30l4 32c41 -2 69 -3 109 -3c42 0 87 1 130 3l-5 -32c-22 -6 -39 -11 -61 -24c-13 -32 -16 -44 -26 -97l-28 -185c-3 -23 -13 -86 -13 -129c0 -96 41 -138 143 -138c86 0 142 42 170 123c11 34 24 97 26 112zM353 841l32 13
c18 -59 47 -78 88 -78c37 0 65 11 117 76l24 -19c-68 -111 -116 -126 -159 -126c-57 0 -91 48 -102 134z" />
    <glyph glyph-name="ubreve" unicode="&#x16d;" horiz-adv-x="544" 
d="M206 310l-29 -158c-13 -72 -4 -93 25 -93c59 0 179 144 200 289l2 14c1 17 6 66 -1 99c33 4 60 10 94 20l9 -13c-10 -36 -17 -71 -23 -107l-38 -225c-7 -45 -7 -64 -3 -72c11 -5 55 30 85 58l22 -23c-58 -68 -129 -111 -150 -111c-36 0 -45 47 -42 65s48 172 53 188l-9 2
c-44 -120 -131 -255 -228 -255c-56 0 -96 31 -77 141l38 214c3 26 5 50 2 66c-14 5 -35 6 -69 5l-6 33c57 7 121 22 163 38l20 -15c-14 -32 -26 -89 -38 -160zM241 670l32 13c18 -59 42 -86 83 -86c37 0 71 20 121 85l23 -23c-69 -113 -119 -131 -162 -131
c-57 0 -86 56 -97 142z" />
    <glyph glyph-name="Uring" unicode="&#x16e;" horiz-adv-x="677" 
d="M563 279l36 235c2 28 3 50 1 75c-21 14 -35 22 -62 29l5 32c37 -2 55 -3 95 -3c42 0 72 1 114 3l-5 -33c-24 -6 -46 -15 -68 -26c-12 -32 -19 -59 -23 -86l-28 -186c-3 -22 -14 -83 -31 -142c-38 -134 -121 -189 -246 -189c-146 0 -212 65 -212 185c0 34 5 85 10 118
l34 224c3 25 3 46 0 72c-20 15 -42 24 -69 30l4 32c41 -2 69 -3 109 -3c42 0 87 1 130 3l-5 -32c-22 -6 -39 -11 -61 -24c-13 -32 -16 -44 -26 -97l-28 -185c-3 -23 -13 -86 -13 -129c0 -96 41 -138 143 -138c86 0 142 42 170 123c11 34 24 97 26 112zM483 839
c-41 0 -62 -43 -62 -79c0 -33 11 -54 43 -54c39 0 63 38 63 79c0 32 -12 54 -44 54zM372 753c0 66 47 123 119 123c59 0 86 -37 86 -86c0 -64 -49 -122 -121 -122c-63 0 -84 41 -84 85z" />
    <glyph glyph-name="uring" unicode="&#x16f;" horiz-adv-x="544" 
d="M206 310l-29 -158c-13 -72 -4 -93 25 -93c59 0 179 144 200 289l2 14c1 17 6 66 -1 99c33 4 60 10 94 20l9 -13c-10 -36 -17 -71 -23 -107l-38 -225c-7 -45 -7 -64 -3 -72c11 -5 55 30 85 58l22 -23c-58 -68 -129 -111 -150 -111c-36 0 -45 47 -42 65s48 172 53 188l-9 2
c-44 -120 -131 -255 -228 -255c-56 0 -96 31 -77 141l38 214c3 26 5 50 2 66c-14 5 -35 6 -69 5l-6 33c57 7 121 22 163 38l20 -15c-14 -32 -26 -89 -38 -160zM370 704c-41 0 -62 -43 -62 -79c0 -33 11 -54 43 -54c39 0 63 38 63 79c0 32 -12 54 -44 54zM259 618
c0 66 47 123 119 123c59 0 86 -37 86 -86c0 -64 -49 -122 -121 -122c-63 0 -84 41 -84 85z" />
    <glyph glyph-name="Uhungarumlaut" unicode="&#x170;" horiz-adv-x="677" 
d="M563 279l36 235c2 28 3 50 1 75c-21 14 -35 22 -62 29l5 32c37 -2 55 -3 95 -3c42 0 72 1 114 3l-5 -33c-24 -6 -46 -15 -68 -26c-12 -32 -19 -59 -23 -86l-28 -186c-3 -22 -14 -83 -31 -142c-38 -134 -121 -189 -246 -189c-146 0 -212 65 -212 185c0 34 5 85 10 118
l34 224c3 25 3 46 0 72c-20 15 -42 24 -69 30l4 32c41 -2 69 -3 109 -3c42 0 87 1 130 3l-5 -32c-22 -6 -39 -11 -61 -24c-13 -32 -16 -44 -26 -97l-28 -185c-3 -23 -13 -86 -13 -129c0 -96 41 -138 143 -138c86 0 142 42 170 123c11 34 24 97 26 112zM335 694l-20 21
l125 152c20 -10 51 -19 69 -24l-2 -21zM492 694l-22 25l133 135c21 -14 50 -26 69 -31l-6 -22z" />
    <glyph glyph-name="uhungarumlaut" unicode="&#x171;" horiz-adv-x="544" 
d="M206 310l-29 -158c-13 -72 -4 -93 25 -93c59 0 179 144 200 289l2 14c1 17 6 66 -1 99c33 4 60 10 94 20l9 -13c-10 -36 -17 -71 -23 -107l-38 -225c-7 -45 -7 -64 -3 -72c11 -5 55 30 85 58l22 -23c-58 -68 -129 -111 -150 -111c-36 0 -45 47 -42 65s48 172 53 188l-9 2
c-44 -120 -131 -255 -228 -255c-56 0 -96 31 -77 141l38 214c3 26 5 50 2 66c-14 5 -35 6 -69 5l-6 33c57 7 121 22 163 38l20 -15c-14 -32 -26 -89 -38 -160zM259 535l-26 17l87 168c21 -6 54 -9 73 -9l2 -21zM393 535l-28 17l87 169c23 -7 54 -10 74 -9l1 -22z" />
    <glyph glyph-name="Uogonek" unicode="&#x172;" horiz-adv-x="677" 
d="M563 279l36 235c2 28 3 50 1 75c-21 14 -35 22 -62 29l5 32c37 -2 55 -3 95 -3c42 0 72 1 114 3l-5 -33c-24 -6 -46 -15 -68 -26c-12 -32 -19 -59 -23 -86l-28 -186c-3 -22 -14 -83 -31 -142c-27 -95 -78 -143 -144 -176c-34 -17 -71 -48 -95 -81
c-18 -24 -25 -46 -25 -71c0 -26 10 -52 40 -52c16 0 49 11 69 20l9 -28c-14 -8 -55 -30 -75 -39c-18 -8 -32 -11 -47 -11c-48 0 -77 37 -77 82s20 74 38 95c19 22 52 50 84 73c-7 0 -15 -1 -23 -1c-146 0 -212 65 -212 185c0 34 5 85 10 118l34 224c3 25 3 46 0 72
c-20 15 -42 24 -69 30l4 32c41 -2 69 -3 109 -3c42 0 87 1 130 3l-5 -32c-22 -6 -39 -11 -61 -24c-13 -32 -16 -44 -26 -97l-28 -185c-3 -23 -13 -86 -13 -129c0 -96 41 -138 143 -138c86 0 142 42 170 123c11 34 24 97 26 112z" />
    <glyph glyph-name="uogonek" unicode="&#x173;" horiz-adv-x="544" 
d="M206 310l-29 -158c-13 -72 -4 -93 25 -93c59 0 179 144 200 289l2 14c1 17 6 66 -1 99c33 4 60 10 94 20l9 -13c-10 -36 -17 -71 -23 -107l-38 -225c-7 -45 -7 -64 -3 -72c11 -5 55 30 85 58l22 -23c-36 -42 -75 -75 -105 -94c-33 -22 -73 -51 -98 -85
c-18 -24 -25 -46 -25 -71c0 -26 10 -52 40 -52c16 0 49 11 69 20l9 -28c-14 -8 -55 -30 -75 -39c-18 -8 -32 -11 -47 -11c-48 0 -77 37 -77 82s20 74 38 95c21 24 61 56 97 81c-16 14 -20 43 -18 56c3 18 48 172 53 188l-9 2c-44 -120 -131 -255 -228 -255
c-56 0 -96 31 -77 141l38 214c3 26 5 50 2 66c-14 5 -35 6 -69 5l-6 33c57 7 121 22 163 38l20 -15c-14 -32 -26 -89 -38 -160z" />
    <glyph glyph-name="Wcircumflex" unicode="&#x174;" horiz-adv-x="893" 
d="M655 125l-74 461l7 13c20 8 43 13 68 14l5 36c-41 -2 -63 -2 -103 -2s-79 0 -120 2l-6 -33c16 -3 46 -11 54 -16l15 -80l-188 -390h-11l-49 455l2 10c26 12 48 18 76 23l5 32c-39 -2 -76 -3 -115 -3c-43 0 -73 1 -115 3l-5 -33c24 -8 48 -20 66 -31l72 -598h59l219 446
l77 -446h67l256 603c19 12 38 20 67 27l4 32c-30 -2 -66 -3 -91 -3c-37 0 -64 1 -103 3l-5 -32c24 -6 43 -13 63 -23l2 -10l-187 -460h-12zM557 771l-132 -74l-24 25l138 124h51l93 -128l-27 -21z" />
    <glyph glyph-name="wcircumflex" unicode="&#x175;" horiz-adv-x="696" 
d="M362 468l-10 -17c12 -20 17 -45 17 -72c0 -95 -73 -215 -133 -296h-7l-45 378l-13 13c-38 -8 -72 -14 -127 -13l-6 -33c10 -1 46 -8 66 -22l61 -418h56c55 64 118 147 158 230l34 -230h56c104 115 188 237 228 384c14 52 14 81 8 108l-100 -12l-10 -17
c12 -20 18 -45 18 -72c0 -95 -61 -217 -127 -298h-7l-38 249c27 81 27 123 21 150zM422 632l-122 -99l-24 25l131 155h51l86 -159l-27 -21z" />
    <glyph glyph-name="Wgrave" unicode="&#x1e80;" horiz-adv-x="893" 
d="M581 586l74 -461h12l187 460l-2 10c-20 10 -39 17 -63 23l5 32c39 -2 66 -3 103 -3c25 0 61 1 91 3l-4 -32c-29 -7 -48 -15 -67 -27l-256 -603h-67l-77 446l-219 -446h-59l-72 598c-18 11 -42 23 -66 31l5 33c42 -2 72 -3 115 -3c39 0 76 1 115 3l-5 -32
c-28 -5 -50 -11 -76 -23l-2 -10l49 -455h11l188 390l-15 80c-8 5 -38 13 -54 16l6 33c41 -2 80 -2 120 -2s62 0 103 2l-5 -36c-25 -1 -48 -6 -68 -14zM636 723l-25 -28l-177 101l-4 21c23 7 57 22 77 35z" />
    <glyph glyph-name="wgrave" unicode="&#x1e81;" horiz-adv-x="696" 
d="M352 451l10 17l100 12c6 -27 6 -69 -21 -150l38 -249h7c66 81 127 203 127 298c0 27 -6 52 -18 72l10 17l100 12c6 -27 6 -56 -8 -108c-40 -147 -124 -269 -228 -384h-56l-34 230c-40 -83 -103 -166 -158 -230h-56l-61 418c-20 14 -56 21 -66 22l6 33c55 -1 89 5 127 13
l13 -13l45 -378h7c60 81 133 201 133 296c0 27 -5 52 -17 72zM485 556l-30 -23l-158 139v21c24 3 60 11 82 20z" />
    <glyph glyph-name="Wacute" unicode="&#x1e82;" horiz-adv-x="893" 
d="M655 125l-74 461l7 13c20 8 43 13 68 14l5 36c-41 -2 -63 -2 -103 -2s-79 0 -120 2l-6 -33c16 -3 46 -11 54 -16l15 -80l-188 -390h-11l-49 455l2 10c26 12 48 18 76 23l5 32c-39 -2 -76 -3 -115 -3c-43 0 -73 1 -115 3l-5 -33c24 -8 48 -20 66 -31l72 -598h59l219 446
l77 -446h67l256 603c19 12 38 20 67 27l4 32c-30 -2 -66 -3 -91 -3c-37 0 -64 1 -103 3l-5 -32c24 -6 43 -13 63 -23l2 -10l-187 -460h-12zM498 697l-18 28l159 115c18 -17 39 -33 60 -44l-6 -20z" />
    <glyph glyph-name="wacute" unicode="&#x1e83;" horiz-adv-x="696" 
d="M362 468l-10 -17c12 -20 17 -45 17 -72c0 -95 -73 -215 -133 -296h-7l-45 378l-13 13c-38 -8 -72 -14 -127 -13l-6 -33c10 -1 46 -8 66 -22l61 -418h56c55 64 118 147 158 230l34 -230h56c104 115 188 237 228 384c14 52 14 81 8 108l-100 -12l-10 -17
c12 -20 18 -45 18 -72c0 -95 -61 -217 -127 -298h-7l-38 249c27 81 27 123 21 150zM355 533l-24 25l142 154c21 -13 55 -26 78 -33l-4 -21z" />
    <glyph glyph-name="Wdieresis" unicode="&#x1e84;" horiz-adv-x="893" 
d="M655 125l-74 461l7 13c20 8 43 13 68 14l5 36c-41 -2 -63 -2 -103 -2s-79 0 -120 2l-6 -33c16 -3 46 -11 54 -16l15 -80l-188 -390h-11l-49 455l2 10c26 12 48 18 76 23l5 32c-39 -2 -76 -3 -115 -3c-43 0 -73 1 -115 3l-5 -33c24 -8 48 -20 66 -31l72 -598h59l219 446
l77 -446h67l256 603c19 12 38 20 67 27l4 32c-30 -2 -66 -3 -91 -3c-37 0 -64 1 -103 3l-5 -32c24 -6 43 -13 63 -23l2 -10l-187 -460h-12zM467 814c31 0 43 -27 43 -45c0 -42 -21 -65 -56 -65c-27 0 -45 22 -45 44c0 36 19 66 58 66zM652 814c31 0 43 -27 43 -45
c0 -42 -21 -65 -56 -65c-27 0 -45 22 -45 44c0 36 19 66 58 66z" />
    <glyph glyph-name="wdieresis" unicode="&#x1e85;" horiz-adv-x="696" 
d="M362 468l-10 -17c12 -20 17 -45 17 -72c0 -95 -73 -215 -133 -296h-7l-45 378l-13 13c-38 -8 -72 -14 -127 -13l-6 -33c10 -1 46 -8 66 -22l61 -418h56c55 64 118 147 158 230l34 -230h56c104 115 188 237 228 384c14 52 14 81 8 108l-100 -12l-10 -17
c12 -20 18 -45 18 -72c0 -95 -61 -217 -127 -298h-7l-38 249c27 81 27 123 21 150zM459 601c0 34 26 57 62 57c26 0 45 -19 45 -44c0 -37 -26 -61 -62 -61c-26 0 -45 20 -45 48zM259 601c0 34 26 57 62 57c26 0 45 -19 45 -44c0 -37 -26 -61 -62 -61c-26 0 -45 20 -45 48z
" />
    <glyph glyph-name="Ygrave" unicode="&#x1ef2;" horiz-adv-x="558" 
d="M266 166l14 90l-112 330c-18 11 -42 23 -67 31l5 33c43 -2 73 -3 115 -3c39 0 79 1 118 3l-4 -32c-30 -5 -49 -12 -76 -23l-3 -10l81 -263h11l170 263l-3 10c-18 10 -38 17 -61 23l5 32c39 -2 64 -3 102 -3c24 0 61 1 91 3l-5 -33c-30 -10 -49 -16 -65 -24l-220 -329
l-20 -130c-2 -24 -1 -49 2 -75c21 -14 42 -24 67 -30l-6 -31c-38 1 -76 2 -115 2c-44 0 -87 -1 -130 -2l6 33c24 5 46 11 69 24c13 32 20 59 31 111zM469 723l-25 -28l-177 101l-4 21c23 7 57 22 77 35z" />
    <glyph glyph-name="ygrave" unicode="&#x1ef3;" horiz-adv-x="455" 
d="M354 451l10 17l100 12c6 -27 6 -56 -8 -108c-39 -143 -115 -252 -193 -367c-77 -114 -160 -207 -251 -207c-11 0 -28 2 -37 6l11 91l14 5c9 -9 24 -16 46 -16c55 0 103 45 132 112l-71 405c-14 14 -58 26 -68 27l7 39c55 -1 91 1 127 7l13 -13l60 -382h7
c60 81 119 205 119 300c0 27 -6 52 -18 72zM339 556l-30 -23l-158 139v21c24 3 60 11 82 20z" />
    <glyph glyph-name="Ycircumflex" unicode="&#x176;" horiz-adv-x="558" 
d="M266 166l14 90l-112 330c-18 11 -42 23 -67 31l5 33c43 -2 73 -3 115 -3c39 0 79 1 118 3l-4 -32c-30 -5 -49 -12 -76 -23l-3 -10l81 -263h11l170 263l-3 10c-18 10 -38 17 -61 23l5 32c39 -2 64 -3 102 -3c24 0 61 1 91 3l-5 -33c-30 -10 -49 -16 -65 -24l-220 -329
l-20 -130c-2 -24 -1 -49 2 -75c21 -14 42 -24 67 -30l-6 -31c-38 1 -76 2 -115 2c-44 0 -87 -1 -130 -2l6 33c24 5 46 11 69 24c13 32 20 59 31 111zM412 771l-132 -74l-24 25l138 124h51l93 -128l-27 -21z" />
    <glyph glyph-name="ycircumflex" unicode="&#x177;" horiz-adv-x="455" 
d="M354 451l10 17l100 12c6 -27 6 -56 -8 -108c-39 -143 -115 -252 -193 -367c-77 -114 -160 -207 -251 -207c-11 0 -28 2 -37 6l11 91l14 5c9 -9 24 -16 46 -16c55 0 103 45 132 112l-71 405c-14 14 -58 26 -68 27l7 39c55 -1 91 1 127 7l13 -13l60 -382h7
c60 81 119 205 119 300c0 27 -6 52 -18 72zM295 632l-122 -99l-24 25l131 155h51l86 -159l-27 -21z" />
    <glyph glyph-name="Ydieresis" unicode="&#x178;" horiz-adv-x="558" 
d="M266 166l14 90l-112 330c-18 11 -42 23 -67 31l5 33c43 -2 73 -3 115 -3c39 0 79 1 118 3l-4 -32c-30 -5 -49 -12 -76 -23l-3 -10l81 -263h11l170 263l-3 10c-18 10 -38 17 -61 23l5 32c39 -2 64 -3 102 -3c24 0 61 1 91 3l-5 -33c-30 -10 -49 -16 -65 -24l-220 -329
l-20 -130c-2 -24 -1 -49 2 -75c21 -14 42 -24 67 -30l-6 -31c-38 1 -76 2 -115 2c-44 0 -87 -1 -130 -2l6 33c24 5 46 11 69 24c13 32 20 59 31 111zM316 814c31 0 43 -27 43 -45c0 -42 -21 -65 -56 -65c-27 0 -45 22 -45 44c0 36 19 66 58 66zM501 814c31 0 43 -27 43 -45
c0 -42 -21 -65 -56 -65c-27 0 -45 22 -45 44c0 36 19 66 58 66z" />
    <glyph glyph-name="Zacute" unicode="&#x179;" horiz-adv-x="549" 
d="M503 602h-284c-12 -26 -39 -106 -44 -133l-43 -7h-14c9 43 22 129 25 172l14 13h455l-7 -44l-464 -556h292c34 54 64 115 83 159l47 -8c-22 -63 -41 -132 -56 -198h-472l6 46zM323 697l-18 28l159 115c18 -17 39 -33 60 -44l-6 -20z" />
    <glyph glyph-name="zacute" unicode="&#x17a;" horiz-adv-x="441" 
d="M413 396l-285 -322c38 12 55 15 83 15c35 0 67 -11 99 -11c40 0 58 26 81 87h36l-28 -154c-15 -9 -33 -14 -54 -14c-73 0 -172 45 -226 39c-20 -8 -40 -23 -75 -48l-29 37c18 17 40 37 55 56l262 317c-27 -7 -40 -7 -56 -7c-35 0 -60 12 -94 12s-41 -16 -77 -92h-34
l29 156c15 9 33 14 56 14c71 0 154 -46 208 -40c20 8 40 23 75 48l30 -34c-18 -17 -37 -38 -56 -59zM249 533l-24 25l142 154c21 -13 55 -26 78 -33l-4 -21z" />
    <glyph glyph-name="Zdotaccent" unicode="&#x17b;" horiz-adv-x="549" 
d="M503 602h-284c-12 -26 -39 -106 -44 -133l-43 -7h-14c9 43 22 129 25 172l14 13h455l-7 -44l-464 -556h292c34 54 64 115 83 159l47 -8c-22 -63 -41 -132 -56 -198h-472l6 46zM398 820c29 0 41 -23 41 -45c0 -46 -21 -73 -67 -73c-24 0 -42 18 -42 44c0 40 19 74 68 74z
" />
    <glyph glyph-name="zdotaccent" unicode="&#x17c;" horiz-adv-x="441" 
d="M413 396l-285 -322c38 12 55 15 83 15c35 0 67 -11 99 -11c40 0 58 26 81 87h36l-28 -154c-15 -9 -33 -14 -54 -14c-73 0 -172 45 -226 39c-20 -8 -40 -23 -75 -48l-29 37c18 17 40 37 55 56l262 317c-27 -7 -40 -7 -56 -7c-35 0 -60 12 -94 12s-41 -16 -77 -92h-34
l29 156c15 9 33 14 56 14c71 0 154 -46 208 -40c20 8 40 23 75 48l30 -34c-18 -17 -37 -38 -56 -59zM312 699c29 0 41 -23 41 -45c0 -46 -21 -73 -67 -73c-24 0 -42 18 -42 44c0 40 19 74 68 74z" />
    <glyph glyph-name="Zcaron" unicode="&#x17d;" horiz-adv-x="549" 
d="M503 602h-284c-12 -26 -39 -106 -44 -133l-43 -7h-14c9 43 22 129 25 172l14 13h455l-7 -44l-464 -556h292c34 54 64 115 83 159l47 -8c-22 -63 -41 -132 -56 -198h-472l6 46zM385 770l139 93l21 -21l-140 -135h-51l-77 109c21 8 39 19 57 35z" />
    <glyph glyph-name="zcaron" unicode="&#x17e;" horiz-adv-x="441" 
d="M413 396l-285 -322c38 12 55 15 83 15c35 0 67 -11 99 -11c40 0 58 26 81 87h36l-28 -154c-15 -9 -33 -14 -54 -14c-73 0 -172 45 -226 39c-20 -8 -40 -23 -75 -48l-29 37c18 17 40 37 55 56l262 317c-27 -7 -40 -7 -56 -7c-35 0 -60 12 -94 12s-41 -16 -77 -92h-34
l29 156c15 9 33 14 56 14c71 0 154 -46 208 -40c20 8 40 23 75 48l30 -34c-18 -17 -37 -38 -56 -59zM291 598l129 115l24 -25l-131 -155h-51l-70 129c21 8 39 19 57 35z" />
    <glyph glyph-name="longs" unicode="&#x17f;" horiz-adv-x="341" 
d="M76 -55l76 513c6 43 17 89 32 117c40 72 118 109 189 109c38 0 73 -12 103 -30l-54 -79h-19c-16 34 -40 58 -76 58c-27 0 -62 -9 -84 -99c-3 -15 -9 -54 -12 -75l-64 -442c-6 -40 -19 -90 -33 -116c-40 -72 -104 -110 -166 -110c-37 0 -66 9 -88 20l24 93h19
c16 -34 41 -60 77 -60c37 0 65 33 76 101z" />
    <glyph glyph-name="dotlessj" unicode="&#x237;" horiz-adv-x="260" 
d="M172 78c-10 -64 -18 -107 -29 -152c-28 -24 -112 -103 -142 -130l-21 22c61 76 92 143 108 237l49 285c2 25 4 46 1 62c-14 6 -49 10 -81 11l-6 34c54 5 130 20 172 36l20 -18c-7 -18 -13 -42 -20 -83z" />
    <glyph glyph-name="fk" unicode="&#xf602;" horiz-adv-x="780" 
d="M550 598l-73 -468c-4 -26 -10 -91 -3 -123c-33 -4 -60 -10 -94 -20l-9 13c10 36 18 71 23 107l74 475c-32 29 -78 56 -123 56c-39 0 -84 -12 -101 -106l-11 -62c42 0 81 3 125 8c-8 -20 -14 -41 -19 -60h-114l-58 -399c-6 -40 -19 -90 -33 -116
c-40 -72 -104 -110 -166 -110c-37 0 -66 9 -88 20l24 93h19c16 -34 41 -60 77 -60c37 0 66 33 76 101l69 471h-66l8 37l69 15c7 40 16 80 31 106c38 67 120 110 186 110c24 0 59 -8 85 -17c37 7 67 17 91 26l20 -15c-7 -18 -12 -41 -19 -82zM666 401c0 28 -16 42 -39 62
l8 17l74 12c24 -15 46 -38 46 -75c0 -67 -100 -111 -164 -143l85 -173c5 -13 11 -24 21 -32c15 5 54 28 81 49l22 -23c-56 -63 -101 -107 -126 -107c-14 0 -47 21 -56 32l-112 237l4 15c35 15 156 75 156 129z" />
    <glyph glyph-name="fb" unicode="&#xf600;" horiz-adv-x="804" 
d="M367 17c10 30 18 60 23 90l75 477c-32 30 -74 54 -120 54c-39 0 -84 -12 -101 -106l-11 -62c42 0 81 3 125 8c-8 -20 -14 -41 -19 -60h-114l-58 -399c-6 -40 -19 -90 -33 -116c-40 -72 -104 -110 -166 -110c-37 0 -66 9 -88 20l24 93h19c16 -34 41 -60 77 -60
c37 0 66 33 76 101l69 471h-66l8 37l69 15c7 40 16 80 31 106c38 67 120 110 186 110c26 0 58 -8 85 -17c33 6 63 16 88 26l20 -15c-7 -18 -12 -41 -19 -82l-30 -187c-3 -19 -30 -122 -35 -138l6 -5c55 139 126 224 197 224s109 -41 109 -140c0 -222 -143 -364 -265 -364
c-42 0 -114 9 -162 29zM473 124l-10 -65c23 -12 62 -24 90 -24c118 0 152 208 152 303c0 64 -18 78 -46 78c-53 0 -166 -158 -186 -292z" />
    <glyph glyph-name="fh" unicode="&#xf604;" horiz-adv-x="830" 
d="M550 598l-28 -180c-9 -62 -32 -129 -42 -158l6 -5c86 200 180 237 234 237c48 0 70 -21 70 -75c0 -20 -3 -45 -9 -75l-44 -218c-3 -33 -5 -41 -2 -57c10 -5 46 21 78 51l22 -23c-56 -63 -114 -107 -146 -107c-19 0 -36 30 -41 53l52 287c4 23 6 41 6 55
c0 28 -9 38 -27 38c-53 0 -175 -144 -197 -278l-6 -37c-2 -26 -6 -66 1 -99c-33 -4 -60 -10 -94 -20l-9 13c10 36 18 71 23 107l71 476c-32 30 -77 55 -123 55c-39 0 -84 -12 -101 -106l-11 -62c42 0 81 3 125 8c-8 -20 -14 -41 -19 -60h-114l-58 -399
c-6 -40 -19 -90 -33 -116c-40 -72 -104 -110 -166 -110c-37 0 -66 9 -88 20l24 93h19c16 -34 41 -60 77 -60c37 0 66 33 76 101l69 471h-66l8 37l69 15c7 40 16 80 31 106c38 67 120 110 186 110c25 0 58 -8 84 -17c37 4 66 15 92 26l20 -15c-7 -18 -13 -41 -19 -82z" />
    <glyph glyph-name="st" unicode="&#xfb06;" horiz-adv-x="683" 
d="M388 453l-27 -96h-23c-14 47 -34 83 -93 83c-46 0 -83 -27 -83 -76c0 -38 27 -61 63 -77c60 -26 128 -48 128 -131c0 -108 -94 -168 -192 -168c-45 0 -97 9 -131 28l33 102h23c5 -48 33 -85 98 -85c55 0 92 32 92 85c0 55 -43 73 -98 95c-46 18 -91 47 -91 109
c0 100 85 158 176 158c16 0 26 -1 36 -2c-19 19 -43 60 -43 105c0 76 58 114 132 114c85 0 113 -45 221 -33l11 -12l-39 -195c37 1 86 3 125 8c-5 -16 -13 -47 -16 -62h-117l-50 -284c-1 -9 -2 -17 -2 -27c0 -27 11 -39 39 -39c32 0 74 24 107 47l23 -34
c-52 -37 -121 -78 -181 -78c-22 0 -56 20 -69 51c-2 17 1 54 4 72l51 294h-57l7 42c77 26 109 105 112 175c-72 2 -109 35 -170 35c-63 0 -84 -36 -84 -75c0 -54 37 -99 85 -129z" />
    <glyph glyph-name="ct" horiz-adv-x="732" 
d="M716 100l23 -34c-52 -37 -121 -78 -181 -78c-22 0 -56 20 -69 51c-2 17 1 54 4 72l51 294h-57l7 42c77 26 109 105 112 175c-72 2 -109 35 -176 35c-56 0 -81 -36 -81 -75c0 -60 55 -117 90 -137l-44 -116l-27 1c-6 63 -12 107 -74 107c-107 0 -141 -156 -141 -240
c0 -79 22 -138 90 -138c57 0 95 41 131 79l26 -29c-39 -44 -106 -121 -188 -121c-105 0 -147 88 -147 180c0 154 87 312 243 312c16 0 32 -2 47 -4c-19 18 -53 60 -53 113c0 70 55 108 129 108c85 0 119 -45 227 -33l11 -12l-39 -195c37 1 86 3 125 8
c-5 -16 -13 -47 -16 -62h-117l-50 -284c-1 -9 -2 -17 -2 -27c0 -27 11 -39 39 -39c32 0 74 24 107 47z" />
    <glyph glyph-name="ch" horiz-adv-x="914" 
d="M637 598l-28 -180c-9 -62 -32 -129 -42 -158l6 -5c86 200 178 225 232 225c48 0 70 -21 70 -75c0 -20 -3 -45 -9 -75l-42 -206c-3 -33 -5 -41 -2 -57c10 -5 46 21 78 51l22 -23c-56 -63 -114 -107 -146 -107c-19 0 -36 30 -41 53l50 275c4 23 6 41 6 55
c0 28 -9 38 -27 38c-53 0 -173 -132 -195 -266l-6 -37c-2 -26 -6 -66 1 -99c-33 -4 -60 -10 -94 -20l-9 13c10 36 18 71 23 107l80 543c-57 5 -84 22 -138 22c-53 0 -77 -41 -77 -84c0 -64 56 -121 90 -143l-44 -116l-27 1c-6 63 -12 107 -74 107
c-107 0 -141 -156 -141 -240c0 -79 22 -138 90 -138c57 0 95 41 131 79l26 -29c-39 -44 -106 -121 -188 -121c-105 0 -147 88 -147 180c0 154 87 312 243 312c16 0 30 -2 45 -4c-19 18 -51 60 -51 113c0 76 56 123 125 123c82 0 101 -31 209 -17l20 -15
c-7 -18 -13 -41 -19 -82z" />
    <glyph glyph-name="ck" horiz-adv-x="866" 
d="M637 598l-74 -468c-4 -26 -10 -91 -3 -123c-33 -4 -60 -10 -94 -20l-9 13c10 36 17 71 23 107l84 543c-57 5 -84 22 -138 22c-53 0 -77 -41 -77 -84c0 -64 56 -121 90 -143l-44 -116l-27 1c-6 63 -12 107 -74 107c-107 0 -141 -156 -141 -240c0 -79 22 -138 90 -138
c57 0 95 41 131 79l26 -29c-39 -44 -106 -121 -188 -121c-105 0 -147 88 -147 180c0 154 87 312 243 312c16 0 30 -2 45 -4c-19 18 -51 60 -51 113c0 76 56 123 125 123c82 0 101 -31 209 -17l20 -15c-7 -18 -13 -41 -19 -82zM752 389c0 28 -16 42 -39 62l8 17l74 12
c24 -15 46 -38 46 -75c0 -67 -97 -106 -161 -138l82 -166c5 -13 11 -24 21 -32c15 5 54 28 81 49l22 -23c-56 -63 -101 -107 -126 -107c-14 0 -47 21 -56 32l-109 230l4 15c35 15 153 70 153 124z" />
    <glyph glyph-name="circumflex" unicode="&#x2c6;" horiz-adv-x="500" 
d="M322 632l-122 -99l-24 25l131 155h51l86 -159l-27 -21z" />
    <glyph glyph-name="caron" unicode="&#x2c7;" horiz-adv-x="500" 
d="M283 598l129 115l24 -25l-131 -155h-51l-70 129c21 8 39 19 57 35z" />
    <glyph glyph-name="uni02C9" unicode="&#x2c9;" horiz-adv-x="470" 
d="M144 593l7 46h293l15 -15l-7 -45h-292z" />
    <glyph glyph-name="breve" unicode="&#x2d8;" horiz-adv-x="500" 
d="M180 670l32 13c18 -59 42 -86 83 -86c37 0 71 20 121 85l23 -23c-69 -113 -119 -131 -162 -131c-57 0 -86 56 -97 142z" />
    <glyph glyph-name="dieresis" unicode="&#xa8;" horiz-adv-x="500" 
d="M359 601c0 34 26 57 62 57c26 0 45 -19 45 -44c0 -37 -26 -61 -62 -61c-26 0 -45 20 -45 48zM159 601c0 34 26 57 62 57c26 0 45 -19 45 -44c0 -37 -26 -61 -62 -61c-26 0 -45 20 -45 48z" />
    <glyph glyph-name="macron" unicode="&#xaf;" horiz-adv-x="470" 
d="M83 603l7 46h293l15 -15l-7 -45h-292z" />
    <glyph glyph-name="degree" unicode="&#xb0;" horiz-adv-x="252" 
d="M145 542c0 -42 20 -79 67 -79c43 0 65 37 65 79c0 45 -22 79 -67 79c-43 0 -65 -37 -65 -79zM90 542c0 62 44 122 123 122c78 0 119 -53 119 -120c0 -65 -42 -125 -121 -125c-86 0 -121 57 -121 123z" />
    <glyph glyph-name="acute" unicode="&#xb4;" horiz-adv-x="500" 
d="M224 533l-24 25l142 154c21 -13 55 -26 78 -33l-4 -21z" />
    <glyph glyph-name="grave" unicode="`" horiz-adv-x="500" 
d="M404 556l-30 -23l-158 139v21c24 3 60 11 82 20z" />
    <glyph glyph-name="cedilla" unicode="&#xb8;" horiz-adv-x="500" 
d="M171 7l-11 -50c42 -7 67 -36 67 -64s-10 -53 -26 -70c-27 -29 -75 -45 -143 -49l-4 30c85 11 110 38 110 69c0 23 -22 36 -59 40l-6 12l24 82h48z" />
    <glyph glyph-name="dotaccent" unicode="&#x2d9;" horiz-adv-x="500" 
d="M413 699c29 0 41 -23 41 -45c0 -46 -21 -73 -67 -73c-24 0 -42 18 -42 44c0 40 19 74 68 74z" />
    <glyph glyph-name="ring" unicode="&#x2da;" horiz-adv-x="500" 
d="M315 704c-41 0 -62 -43 -62 -79c0 -33 11 -54 43 -54c39 0 63 38 63 79c0 32 -12 54 -44 54zM204 618c0 66 47 123 119 123c59 0 86 -37 86 -86c0 -64 -49 -122 -121 -122c-63 0 -84 41 -84 85z" />
    <glyph glyph-name="ogonek" unicode="&#x2db;" horiz-adv-x="500" 
d="M386 28l21 -22c-33 -22 -72 -52 -97 -86c-18 -24 -25 -46 -25 -71c0 -26 10 -52 40 -52c16 0 49 11 69 20l9 -28c-14 -8 -55 -30 -75 -39c-18 -8 -32 -11 -47 -11c-48 0 -77 37 -77 82s20 74 38 95c32 36 104 89 144 112z" />
    <glyph glyph-name="tilde" unicode="&#x2dc;" horiz-adv-x="500" 
d="M165 561l-22 23c44 51 71 80 122 80s76 -41 123 -41c27 0 48 10 67 35l22 -20c-36 -52 -68 -84 -108 -84c-56 0 -89 42 -137 42c-24 0 -41 -8 -67 -35z" />
    <glyph glyph-name="hungarumlaut" unicode="&#x2dd;" horiz-adv-x="500" 
d="M205 535l-26 17l87 168c21 -6 54 -9 73 -9l2 -21zM339 535l-28 17l87 169c23 -7 54 -10 74 -9l1 -22z" />
    <glyph glyph-name="perthousand" unicode="&#x2030;" horiz-adv-x="1052" 
d="M1003 195c0 -93 -56 -212 -170 -212c-80 0 -109 61 -109 127c0 93 54 207 169 207c76 0 110 -47 110 -122zM843 21c76 0 90 122 90 184c0 43 -11 77 -48 77c-74 0 -93 -128 -93 -173c0 -55 11 -88 51 -88zM689 195c0 -93 -56 -212 -170 -212c-80 0 -109 61 -109 127
c0 93 54 207 169 207c76 0 110 -47 110 -122zM529 21c76 0 90 122 90 184c0 43 -11 77 -48 77c-74 0 -93 -128 -93 -173c0 -55 11 -88 51 -88zM135 -17l464 639h68l-464 -639h-68zM399 501c0 -93 -56 -212 -170 -212c-80 0 -109 61 -109 127c0 93 54 207 169 207
c76 0 110 -47 110 -122zM239 327c76 0 90 122 90 184c0 43 -11 77 -48 77c-74 0 -93 -128 -93 -173c0 -55 11 -88 51 -88z" />
    <glyph glyph-name="percent" unicode="%" horiz-adv-x="862" 
d="M813 217c0 -102 -61 -234 -187 -234c-89 0 -125 73 -125 146c0 113 64 226 188 226c86 0 124 -59 124 -138zM635 23c85 0 103 144 103 213c0 43 -13 81 -57 81c-84 0 -106 -136 -106 -201c0 -56 15 -93 60 -93zM197 -17l464 639h68l-464 -639h-68zM432 484
c0 -102 -61 -234 -187 -234c-89 0 -125 73 -125 146c0 113 64 226 188 226c86 0 124 -59 124 -138zM254 290c85 0 103 144 103 213c0 43 -13 81 -57 81c-84 0 -106 -136 -106 -201c0 -56 15 -93 60 -93z" />
    <glyph glyph-name="fraction" unicode="&#x2044;" horiz-adv-x="328" 
d="M4 -17l402 649h62l-401 -649h-63z" />
    <glyph glyph-name="zerosuperior" unicode="&#x2070;" horiz-adv-x="375" 
d="M271 705c-76 0 -112 -129 -112 -214c0 -75 20 -130 66 -130c74 0 114 138 114 223c0 74 -27 121 -68 121zM73 496c0 116 58 240 211 240c111 0 139 -75 139 -169c0 -118 -67 -239 -207 -239c-84 0 -143 48 -143 168z" />
    <glyph glyph-name="onesuperior" unicode="&#xb9;" horiz-adv-x="375" 
d="M209 466l19 121c3 20 4 46 1 56l-75 -3l6 35c75 18 117 35 149 54l19 -10c-7 -16 -16 -44 -20 -68l-32 -204c-1 -18 -1 -37 1 -55c18 -10 45 -16 69 -20l-5 -32c-28 1 -86 2 -114 2c-31 0 -88 -2 -119 -4l5 32c28 5 61 12 74 21c10 23 14 39 22 75z" />
    <glyph glyph-name="twosuperior" unicode="&#xb2;" horiz-adv-x="375" 
d="M59 342l8 50c100 56 228 135 228 230c0 43 -22 69 -66 69c-20 0 -37 -4 -54 -9c-12 -21 -16 -43 -18 -66l-30 -8h-18c4 28 5 67 5 93c44 18 97 36 152 36c62 0 116 -37 116 -104c0 -113 -149 -187 -240 -235l2 -7c22 4 55 8 83 8h73c25 31 41 55 49 74l42 -6
c-18 -37 -34 -87 -43 -125h-289z" />
    <glyph glyph-name="threesuperior" unicode="&#xb3;" horiz-adv-x="375" 
d="M197 365c61 0 94 41 94 91c0 46 -23 65 -71 65c-12 0 -25 -1 -45 -6l-13 10l24 34c49 1 127 25 127 87c0 34 -19 56 -61 56c-56 0 -60 -28 -77 -76h-33c4 29 4 56 4 80c42 17 97 31 134 31c75 0 105 -35 105 -81c0 -64 -53 -91 -108 -106v-2c63 -3 97 -35 97 -87
c0 -91 -98 -132 -184 -132c-42 0 -68 5 -104 16c9 24 19 68 25 99l45 -6c-4 -22 -6 -48 -3 -66c10 -4 28 -7 44 -7z" />
    <glyph glyph-name="foursuperior" unicode="&#x2074;" horiz-adv-x="375" 
d="M371 732l2 -9l-39 -242h65l-6 -44h-65c-2 -19 -2 -30 2 -47c11 -9 26 -15 43 -19l-5 -31c-28 1 -72 2 -100 2c-31 0 -77 -3 -108 -4l5 32c27 3 66 12 80 21c7 16 9 26 14 46h-171l-10 43l219 238zM266 482l13 80c4 26 12 74 21 97l-2 3l-167 -180h135z" />
    <glyph glyph-name="fivesuperior" unicode="&#x2075;" horiz-adv-x="375" 
d="M184 364c62 0 111 33 111 108c0 57 -37 78 -75 78c-26 0 -49 -8 -86 -24l-10 5l39 194h235l-11 -51l-17 -9h-182l-24 -93l7 -4c32 15 64 25 97 25c53 0 110 -25 110 -108c0 -84 -69 -157 -203 -157c-34 0 -66 5 -102 15c8 27 20 72 25 103l43 -6c-4 -20 -7 -43 -2 -66
c14 -7 31 -10 45 -10z" />
    <glyph glyph-name="sixsuperior" unicode="&#x2076;" horiz-adv-x="375" 
d="M91 476c0 159 139 246 281 273l5 -21c-89 -28 -169 -89 -202 -163l5 -4c41 29 79 39 113 39c72 0 107 -46 107 -111c0 -96 -71 -161 -174 -161c-86 0 -135 62 -135 148zM239 366c57 0 79 57 79 115c0 56 -20 75 -63 75c-25 0 -53 -14 -77 -28c-7 -26 -8 -44 -8 -66
c0 -55 20 -96 69 -96z" />
    <glyph glyph-name="sevensuperior" unicode="&#x2077;" horiz-adv-x="375" 
d="M282 665h-99c-11 -28 -14 -40 -19 -57l-19 -2h-22c4 34 5 93 5 119h308l-4 -35c-115 -112 -172 -230 -186 -307c-3 -14 -2 -33 2 -48c-32 -5 -62 -12 -94 -18l-10 15c43 129 135 251 217 333l-8 7c-18 -4 -42 -7 -71 -7z" />
    <glyph glyph-name="eightsuperior" unicode="&#x2078;" horiz-adv-x="375" 
d="M297 735c61 0 104 -25 104 -77c0 -47 -42 -80 -95 -114c49 -29 75 -54 75 -94c0 -68 -70 -122 -167 -122c-82 0 -120 36 -120 86c0 56 44 88 100 121c-34 24 -49 52 -49 84c0 61 58 116 152 116zM216 643c0 -26 18 -50 63 -79c33 21 63 47 63 86c0 31 -20 53 -59 53
s-67 -24 -67 -60zM225 363c41 0 78 21 78 65c0 28 -30 57 -86 88c-34 -23 -62 -51 -62 -93c0 -38 29 -60 70 -60z" />
    <glyph glyph-name="ninesuperior" unicode="&#x2079;" horiz-adv-x="375" 
d="M404 587c0 -159 -139 -246 -281 -273l-5 21c89 28 169 91 202 165l-5 4c-41 -29 -75 -41 -109 -41c-72 0 -111 51 -111 116c0 96 71 156 174 156c86 0 135 -62 135 -148zM256 697c-57 0 -79 -52 -79 -110c0 -53 20 -80 61 -80c27 0 54 11 79 28c7 26 8 44 8 66
c0 55 -20 96 -69 96z" />
    <glyph glyph-name="parenleftsuperior" unicode="&#x207d;" horiz-adv-x="250" 
d="M132 465c0 121 68 238 152 321l26 -21c-69 -82 -118 -193 -118 -301c0 -82 18 -142 41 -186l-32 -16c-25 40 -69 121 -69 203z" />
    <glyph glyph-name="parenrightsuperior" unicode="&#x207e;" horiz-adv-x="250" 
d="M230 583c0 -121 -68 -238 -152 -321l-26 21c69 82 118 193 118 301c0 82 -18 142 -41 186l32 16c25 -40 69 -121 69 -203z" />
    <glyph glyph-name="hyphensuperior" unicode="&#xf6e6;" horiz-adv-x="328" 
d="M333 489h-228l10 68h228z" />
    <glyph glyph-name="commasuperior" unicode="&#xf6e2;" horiz-adv-x="239" 
d="M85 244c22 14 54 39 54 72c0 24 -22 36 -22 61c0 32 26 51 56 51c27 0 48 -19 48 -51c0 -69 -62 -125 -121 -160z" />
    <glyph glyph-name="periodsuperior" unicode="&#xf6e8;" horiz-adv-x="226" 
d="M108 371c0 31 23 55 57 55c28 0 45 -19 45 -43c0 -30 -25 -54 -58 -54c-29 0 -44 20 -44 42z" />
    <glyph glyph-name="minussuperior" unicode="&#x207b;" horiz-adv-x="375" 
d="M360 499h-228l9 58h228z" />
    <glyph glyph-name="plussuperior" unicode="&#x207a;" horiz-adv-x="375" 
d="M354 499h-85l-14 -85h-60l14 85h-85l9 58h85l14 85h60l-14 -85h85z" />
    <glyph glyph-name="equalsuperior" unicode="&#x207c;" horiz-adv-x="375" 
d="M350 439h-228l9 58h228zM368 549h-228l9 58h228z" />
    <glyph glyph-name="zeroinferior" unicode="&#x2080;" horiz-adv-x="375" 
d="M230 263c-76 0 -112 -129 -112 -214c0 -75 20 -130 66 -130c74 0 114 138 114 223c0 74 -27 121 -68 121zM32 54c0 116 58 240 211 240c111 0 139 -75 139 -169c0 -118 -67 -239 -207 -239c-84 0 -143 48 -143 168z" />
    <glyph glyph-name="oneinferior" unicode="&#x2081;" horiz-adv-x="375" 
d="M179 24l19 121c3 20 4 46 1 56l-75 -3l6 35c75 18 117 35 149 54l19 -10c-7 -16 -16 -44 -20 -68l-32 -204c-1 -18 -1 -37 1 -55c18 -10 45 -16 69 -20l-5 -32c-28 1 -86 2 -114 2c-31 0 -88 -2 -119 -4l5 32c28 5 61 12 74 21c10 23 14 39 22 75z" />
    <glyph glyph-name="twoinferior" unicode="&#x2082;" horiz-adv-x="375" 
d="M20 -100l8 50c100 56 228 135 228 230c0 43 -22 69 -66 69c-20 0 -37 -4 -54 -9c-12 -21 -16 -43 -18 -66l-30 -8h-18c4 28 5 67 5 93c44 18 97 36 152 36c62 0 116 -37 116 -104c0 -113 -149 -187 -240 -235l2 -7c22 4 55 8 83 8h73c25 31 41 55 49 74l42 -6
c-18 -37 -34 -87 -43 -125h-289z" />
    <glyph glyph-name="threeinferior" unicode="&#x2083;" horiz-adv-x="375" 
d="M155 -77c61 0 94 41 94 91c0 46 -23 65 -71 65c-12 0 -25 -1 -45 -6l-13 10l24 34c49 1 127 25 127 87c0 34 -19 56 -61 56c-56 0 -60 -28 -77 -76h-33c4 29 4 56 4 80c42 17 97 31 134 31c75 0 105 -35 105 -81c0 -64 -53 -91 -108 -106v-2c63 -3 97 -35 97 -87
c0 -91 -98 -132 -184 -132c-42 0 -68 5 -104 16c9 24 19 68 25 99l45 -6c-4 -22 -6 -48 -3 -66c10 -4 28 -7 44 -7z" />
    <glyph glyph-name="fourinferior" unicode="&#x2084;" horiz-adv-x="375" 
d="M331 290l2 -9l-39 -242h65l-6 -44h-65c-2 -19 -2 -30 2 -47c11 -9 26 -15 43 -19l-5 -31c-28 1 -72 2 -100 2c-31 0 -77 -3 -108 -4l5 32c27 3 66 12 80 21c7 16 9 26 14 46h-171l-10 43l219 238zM226 40l13 80c4 26 12 74 21 97l-2 3l-167 -180h135z" />
    <glyph glyph-name="fiveinferior" unicode="&#x2085;" horiz-adv-x="375" 
d="M143 -78c62 0 111 33 111 108c0 57 -37 78 -75 78c-26 0 -49 -8 -86 -24l-10 5l39 194h235l-11 -51l-17 -9h-182l-24 -93l7 -4c32 15 64 25 97 25c53 0 110 -25 110 -108c0 -84 -69 -157 -203 -157c-34 0 -66 5 -102 15c8 27 20 72 25 103l43 -6c-4 -20 -7 -43 -2 -66
c14 -7 31 -10 45 -10z" />
    <glyph glyph-name="sixinferior" unicode="&#x2086;" horiz-adv-x="375" 
d="M51 34c0 159 139 246 281 273l5 -21c-89 -28 -169 -89 -202 -163l5 -4c41 29 79 39 113 39c72 0 107 -46 107 -111c0 -96 -71 -161 -174 -161c-86 0 -135 62 -135 148zM199 -76c57 0 79 57 79 115c0 56 -20 75 -63 75c-25 0 -53 -14 -77 -28c-7 -26 -8 -44 -8 -66
c0 -55 20 -96 69 -96z" />
    <glyph glyph-name="seveninferior" unicode="&#x2087;" horiz-adv-x="375" 
d="M239 223h-99c-11 -28 -14 -40 -19 -57l-19 -2h-22c4 34 5 93 5 119h308l-4 -35c-115 -112 -172 -230 -186 -307c-3 -14 -2 -33 2 -48c-32 -5 -62 -12 -94 -18l-10 15c43 129 135 251 217 333l-8 7c-18 -4 -42 -7 -71 -7z" />
    <glyph glyph-name="eightinferior" unicode="&#x2088;" horiz-adv-x="375" 
d="M253 293c61 0 104 -25 104 -77c0 -47 -42 -80 -95 -114c49 -29 75 -54 75 -94c0 -68 -70 -122 -167 -122c-82 0 -120 36 -120 86c0 56 44 88 100 121c-34 24 -49 52 -49 84c0 61 58 116 152 116zM172 201c0 -26 18 -50 63 -79c33 21 63 47 63 86c0 31 -20 53 -59 53
s-67 -24 -67 -60zM181 -79c41 0 78 21 78 65c0 28 -30 57 -86 88c-34 -23 -62 -51 -62 -93c0 -38 29 -60 70 -60z" />
    <glyph glyph-name="nineinferior" unicode="&#x2089;" horiz-adv-x="375" 
d="M367 145c0 -159 -139 -246 -281 -273l-5 21c89 28 169 91 202 165l-5 4c-41 -29 -75 -41 -109 -41c-72 0 -111 51 -111 116c0 96 71 156 174 156c86 0 135 -62 135 -148zM219 255c-57 0 -79 -52 -79 -110c0 -53 20 -80 61 -80c27 0 54 11 79 28c7 26 8 44 8 66
c0 55 -20 96 -69 96z" />
    <glyph glyph-name="parenleftinferior" unicode="&#x208d;" horiz-adv-x="250" 
d="M132 27c0 121 68 238 152 321l26 -21c-69 -82 -118 -193 -118 -301c0 -82 18 -142 41 -186l-32 -16c-25 40 -69 121 -69 203z" />
    <glyph glyph-name="parenrightinferior" unicode="&#x208e;" horiz-adv-x="250" 
d="M230 145c0 -121 -68 -238 -152 -321l-26 21c69 82 118 193 118 301c0 82 -18 142 -41 186l32 16c25 -40 69 -121 69 -203z" />
    <glyph glyph-name="hypheninferior" unicode="&#xf6e5;" horiz-adv-x="328" 
d="M333 51h-228l10 68h228z" />
    <glyph glyph-name="commainferior" unicode="&#xf6e1;" horiz-adv-x="239" 
d="M85 -194c22 14 54 39 54 72c0 24 -22 36 -22 61c0 32 26 51 56 51c27 0 48 -19 48 -51c0 -69 -62 -125 -121 -160z" />
    <glyph glyph-name="periodinferior" unicode="&#xf6e7;" horiz-adv-x="226" 
d="M108 -67c0 31 23 55 57 55c28 0 45 -19 45 -43c0 -30 -25 -54 -58 -54c-29 0 -44 20 -44 42z" />
    <glyph glyph-name="minusinferior" horiz-adv-x="375" 
d="M360 61h-228l9 58h228z" />
    <glyph glyph-name="plusinferior" horiz-adv-x="375" 
d="M354 61h-85l-14 -85h-60l14 85h-85l9 58h85l14 85h60l-14 -85h85z" />
    <glyph glyph-name="equalinferior" horiz-adv-x="375" 
d="M350 1h-228l9 58h228zM368 111h-228l9 58h228z" />
    <glyph glyph-name="zero.num" horiz-adv-x="375" 
d="M277 616c-76 0 -112 -129 -112 -214c0 -75 20 -130 66 -130c74 0 114 138 114 223c0 74 -27 121 -68 121zM79 407c0 116 58 240 211 240c111 0 139 -75 139 -169c0 -118 -67 -239 -207 -239c-84 0 -143 48 -143 168z" />
    <glyph glyph-name="one.num" horiz-adv-x="375" 
d="M209 376l19 121c3 20 4 46 1 56l-75 -3l6 35c75 18 117 35 149 54l19 -10c-7 -16 -16 -44 -20 -68l-32 -204c-1 -18 -1 -37 1 -55c18 -10 45 -16 69 -20l-5 -32c-28 1 -86 2 -114 2c-31 0 -88 -2 -119 -4l5 32c28 5 61 12 74 21c10 23 14 39 22 75z" />
    <glyph glyph-name="two.num" horiz-adv-x="375" 
d="M69 252l8 50c100 56 228 135 228 230c0 43 -22 69 -66 69c-20 0 -37 -4 -54 -9c-12 -21 -16 -43 -18 -66l-30 -8h-18c4 28 5 67 5 93c44 18 97 36 152 36c62 0 116 -37 116 -104c0 -113 -149 -187 -240 -235l2 -7c22 4 55 8 83 8h73c25 31 41 55 49 74l42 -6
c-18 -37 -34 -87 -43 -125h-289z" />
    <glyph glyph-name="three.num" horiz-adv-x="375" 
d="M197 275c61 0 94 41 94 91c0 46 -23 65 -71 65c-12 0 -25 -1 -45 -6l-13 10l24 34c49 1 127 25 127 87c0 34 -19 56 -61 56c-56 0 -60 -28 -77 -76h-33c4 29 4 56 4 80c42 17 97 31 134 31c75 0 105 -35 105 -81c0 -64 -53 -91 -108 -106v-2c63 -3 97 -35 97 -87
c0 -91 -98 -132 -184 -132c-42 0 -68 5 -104 16c9 24 19 68 25 99l45 -6c-4 -22 -6 -48 -3 -66c10 -4 28 -7 44 -7z" />
    <glyph glyph-name="four.num" horiz-adv-x="375" 
d="M371 642l2 -9l-39 -242h65l-6 -44h-65c-2 -19 -2 -30 2 -47c11 -9 26 -15 43 -19l-5 -31c-28 1 -72 2 -100 2c-31 0 -77 -3 -108 -4l5 32c27 3 66 12 80 21c7 16 9 26 14 46h-171l-10 43l219 238zM266 392l13 80c4 26 12 74 21 97l-2 3l-167 -180h135z" />
    <glyph glyph-name="five.num" horiz-adv-x="375" 
d="M184 274c62 0 111 33 111 108c0 57 -37 78 -75 78c-26 0 -49 -8 -86 -24l-10 5l39 194h235l-11 -51l-17 -9h-182l-24 -93l7 -4c32 15 64 25 97 25c53 0 110 -25 110 -108c0 -84 -69 -157 -203 -157c-34 0 -66 5 -102 15c8 27 20 72 25 103l43 -6c-4 -20 -7 -43 -2 -66
c14 -7 31 -10 45 -10z" />
    <glyph glyph-name="six.num" horiz-adv-x="375" 
d="M95 386c0 159 139 246 281 273l5 -21c-89 -28 -169 -89 -202 -163l5 -4c41 29 79 39 113 39c72 0 107 -46 107 -111c0 -96 -71 -161 -174 -161c-86 0 -135 62 -135 148zM243 276c57 0 79 57 79 115c0 56 -20 75 -63 75c-25 0 -53 -14 -77 -28c-7 -26 -8 -44 -8 -66
c0 -55 20 -96 69 -96z" />
    <glyph glyph-name="seven.num" horiz-adv-x="375" 
d="M282 575h-99c-11 -28 -14 -40 -19 -57l-19 -2h-22c4 34 5 93 5 119h308l-4 -35c-115 -112 -172 -230 -186 -307c-3 -14 -2 -33 2 -48c-32 -5 -62 -12 -94 -18l-10 15c43 129 135 251 217 333l-8 7c-18 -4 -42 -7 -71 -7z" />
    <glyph glyph-name="eight.num" horiz-adv-x="375" 
d="M297 645c61 0 104 -25 104 -77c0 -47 -42 -80 -95 -114c49 -29 75 -54 75 -94c0 -68 -70 -122 -167 -122c-82 0 -120 36 -120 86c0 56 44 88 100 121c-34 24 -49 52 -49 84c0 61 58 116 152 116zM216 553c0 -26 18 -50 63 -79c33 21 63 47 63 86c0 31 -20 53 -59 53
s-67 -24 -67 -60zM225 273c41 0 78 21 78 65c0 28 -30 57 -86 88c-34 -23 -62 -51 -62 -93c0 -38 29 -60 70 -60z" />
    <glyph glyph-name="nine.num" horiz-adv-x="375" 
d="M412 497c0 -159 -139 -246 -281 -273l-5 21c89 28 169 91 202 165l-5 4c-41 -29 -75 -41 -109 -41c-72 0 -111 51 -111 116c0 96 71 156 174 156c86 0 135 -62 135 -148zM264 607c-57 0 -79 -52 -79 -110c0 -53 20 -80 61 -80c27 0 54 11 79 28c7 26 8 44 8 66
c0 55 -20 96 -69 96z" />
    <glyph glyph-name="onehalf" unicode="&#xbd;" horiz-adv-x="930" 
d="M248 -17l402 649h62l-401 -649h-63zM204 477l-19 -121c-8 -36 -12 -52 -22 -75c-13 -9 -46 -16 -74 -21l-5 -32c31 2 88 4 119 4c28 0 86 -1 114 -2l5 32c-24 4 -51 10 -69 20c-2 18 -2 37 -1 55l32 204c4 24 13 52 20 68l-19 10c-32 -19 -74 -36 -149 -54l-6 -35l75 3
c3 -10 2 -36 -1 -56zM584 50l-8 -50h289c9 38 25 88 43 125l-42 6c-8 -19 -24 -43 -49 -74h-73c-28 0 -61 -4 -83 -8l-2 7c91 48 240 122 240 235c0 67 -54 104 -116 104c-55 0 -108 -18 -152 -36c0 -26 -1 -65 -5 -93h18l30 8c2 23 6 45 18 66c17 5 34 9 54 9
c44 0 66 -26 66 -69c0 -95 -128 -174 -228 -230z" />
    <glyph glyph-name="onethird" unicode="&#x2153;" horiz-adv-x="930" 
d="M230 477l-19 -121c-8 -36 -12 -52 -22 -75c-13 -9 -46 -16 -74 -21l-5 -32c31 2 88 4 119 4c28 0 86 -1 114 -2l5 32c-24 4 -51 10 -69 20c-2 18 -2 37 -1 55l32 204c4 24 13 52 20 68l-19 10c-32 -19 -74 -36 -149 -54l-6 -35l75 3c3 -10 2 -36 -1 -56zM274 -17l402 649
h62l-401 -649h-63zM707 23c61 0 94 41 94 91c0 46 -23 65 -71 65c-12 0 -25 -1 -45 -6l-13 10l24 34c49 1 127 25 127 87c0 34 -19 56 -61 56c-56 0 -60 -28 -77 -76h-33c4 29 4 56 4 80c42 17 97 31 134 31c75 0 105 -35 105 -81c0 -64 -53 -91 -108 -106v-2
c63 -3 97 -35 97 -87c0 -91 -98 -132 -184 -132c-42 0 -68 5 -104 16c9 24 19 68 25 99l45 -6c-4 -22 -6 -48 -3 -66c10 -4 28 -7 44 -7z" />
    <glyph glyph-name="twothirds" unicode="&#x2154;" horiz-adv-x="930" 
d="M101 282l-8 -50h289c9 38 25 88 43 125l-42 6c-8 -19 -24 -43 -49 -74h-73c-28 0 -61 -4 -83 -8l-2 7c91 48 240 122 240 235c0 67 -54 104 -116 104c-55 0 -108 -18 -152 -36c0 -26 -1 -65 -5 -93h18l30 8c2 23 6 45 18 66c17 5 34 9 54 9c44 0 66 -26 66 -69
c0 -95 -128 -174 -228 -230zM298 -17l402 649h62l-401 -649h-63zM712 23c61 0 94 41 94 91c0 46 -23 65 -71 65c-12 0 -25 -1 -45 -6l-13 10l24 34c49 1 127 25 127 87c0 34 -19 56 -61 56c-56 0 -60 -28 -77 -76h-33c4 29 4 56 4 80c42 17 97 31 134 31
c75 0 105 -35 105 -81c0 -64 -53 -91 -108 -106v-2c63 -3 97 -35 97 -87c0 -91 -98 -132 -184 -132c-42 0 -68 5 -104 16c9 24 19 68 25 99l45 -6c-4 -22 -6 -48 -3 -66c10 -4 28 -7 44 -7z" />
    <glyph glyph-name="onequarter" unicode="&#xbc;" horiz-adv-x="930" 
d="M283 -17l402 649h62l-401 -649h-63zM232 477l-19 -121c-8 -36 -12 -52 -22 -75c-13 -9 -46 -16 -74 -21l-5 -32c31 2 88 4 119 4c28 0 86 -1 114 -2l5 32c-24 4 -51 10 -69 20c-2 18 -2 37 -1 55l32 204c4 24 13 52 20 68l-19 10c-32 -19 -74 -36 -149 -54l-6 -35l75 3
c3 -10 2 -36 -1 -56zM855 381l-2 9l-74 -14l-219 -238l10 -43h171c-5 -20 -7 -30 -14 -46c-14 -9 -53 -18 -80 -21l-5 -32c31 1 77 4 108 4c28 0 72 -1 100 -2l5 31c-17 4 -32 10 -43 19c-4 17 -4 28 -2 47h65l6 44h-65zM761 220l-13 -80h-135l167 180l2 -3
c-9 -23 -17 -71 -21 -97z" />
    <glyph glyph-name="threequarters" unicode="&#xbe;" horiz-adv-x="930" 
d="M291 -17l402 649h62l-401 -649h-63zM214 255c61 0 94 41 94 91c0 46 -23 65 -71 65c-12 0 -25 -1 -45 -6l-13 10l24 34c49 1 127 25 127 87c0 34 -19 56 -61 56c-56 0 -60 -28 -77 -76h-33c4 29 4 56 4 80c42 17 97 31 134 31c75 0 105 -35 105 -81
c0 -64 -53 -91 -108 -106v-2c63 -3 97 -35 97 -87c0 -91 -98 -132 -184 -132c-42 0 -68 5 -104 16c9 24 19 68 25 99l45 -6c-4 -22 -6 -48 -3 -66c10 -4 28 -7 44 -7zM859 381l-2 9l-74 -14l-219 -238l10 -43h171c-5 -20 -7 -30 -14 -46c-14 -9 -53 -18 -80 -21l-5 -32
c31 1 77 4 108 4c28 0 72 -1 100 -2l5 31c-17 4 -32 10 -43 19c-4 17 -4 28 -2 47h65l6 44h-65zM765 220l-13 -80h-135l167 180l2 -3c-9 -23 -17 -71 -21 -97z" />
    <glyph glyph-name="onefifth" unicode="&#xf500;" horiz-adv-x="930" 
d="M231 477l-19 -121c-8 -36 -12 -52 -22 -75c-13 -9 -46 -16 -74 -21l-5 -32c31 2 88 4 119 4c28 0 86 -1 114 -2l5 32c-24 4 -51 10 -69 20c-2 18 -2 37 -1 55l32 204c4 24 13 52 20 68l-19 10c-32 -19 -74 -36 -149 -54l-6 -35l75 3c3 -10 2 -36 -1 -56zM279 -17l402 649
h62l-401 -649h-63zM699 22c62 0 111 33 111 108c0 57 -37 78 -75 78c-26 0 -49 -8 -86 -24l-10 5l39 194h235l-11 -51l-17 -9h-182l-24 -93l7 -4c32 15 64 25 97 25c53 0 110 -25 110 -108c0 -84 -69 -157 -203 -157c-34 0 -66 5 -102 15c8 27 20 72 25 103l43 -6
c-4 -20 -7 -43 -2 -66c14 -7 31 -10 45 -10z" />
    <glyph glyph-name="twofifths" unicode="&#xf501;" horiz-adv-x="930" 
d="M101 282l-8 -50h289c9 38 25 88 43 125l-42 6c-8 -19 -24 -43 -49 -74h-73c-28 0 -61 -4 -83 -8l-2 7c91 48 240 122 240 235c0 67 -54 104 -116 104c-55 0 -108 -18 -152 -36c0 -26 -1 -65 -5 -93h18l30 8c2 23 6 45 18 66c17 5 34 9 54 9c44 0 66 -26 66 -69
c0 -95 -128 -174 -228 -230zM305 -17l402 649h62l-401 -649h-63zM709 22c62 0 111 33 111 108c0 57 -37 78 -75 78c-26 0 -49 -8 -86 -24l-10 5l39 194h235l-11 -51l-17 -9h-182l-24 -93l7 -4c32 15 64 25 97 25c53 0 110 -25 110 -108c0 -84 -69 -157 -203 -157
c-34 0 -66 5 -102 15c8 27 20 72 25 103l43 -6c-4 -20 -7 -43 -2 -66c14 -7 31 -10 45 -10z" />
    <glyph glyph-name="threefifths" unicode="&#xf502;" horiz-adv-x="930" 
d="M212 255c61 0 94 41 94 91c0 46 -23 65 -71 65c-12 0 -25 -1 -45 -6l-13 10l24 34c49 1 127 25 127 87c0 34 -19 56 -61 56c-56 0 -60 -28 -77 -76h-33c4 29 4 56 4 80c42 17 97 31 134 31c75 0 105 -35 105 -81c0 -64 -53 -91 -108 -106v-2c63 -3 97 -35 97 -87
c0 -91 -98 -132 -184 -132c-42 0 -68 5 -104 16c9 24 19 68 25 99l45 -6c-4 -22 -6 -48 -3 -66c10 -4 28 -7 44 -7zM282 -17l402 649h62l-401 -649h-63zM702 22c62 0 111 33 111 108c0 57 -37 78 -75 78c-26 0 -49 -8 -86 -24l-10 5l39 194h235l-11 -51l-17 -9h-182l-24 -93
l7 -4c32 15 64 25 97 25c53 0 110 -25 110 -108c0 -84 -69 -157 -203 -157c-34 0 -66 5 -102 15c8 27 20 72 25 103l43 -6c-4 -20 -7 -43 -2 -66c14 -7 31 -10 45 -10z" />
    <glyph glyph-name="fourfifths" unicode="&#xf503;" horiz-adv-x="930" 
d="M395 613l-2 9l-74 -14l-219 -238l10 -43h171c-5 -20 -7 -30 -14 -46c-14 -9 -53 -18 -80 -21l-5 -32c31 1 77 4 108 4c28 0 72 -1 100 -2l5 31c-17 4 -32 10 -43 19c-4 17 -4 28 -2 47h65l6 44h-65zM301 452l-13 -80h-135l167 180l2 -3c-9 -23 -17 -71 -21 -97zM305 -17
l402 649h62l-401 -649h-63zM709 22c62 0 111 33 111 108c0 57 -37 78 -75 78c-26 0 -49 -8 -86 -24l-10 5l39 194h235l-11 -51l-17 -9h-182l-24 -93l7 -4c32 15 64 25 97 25c53 0 110 -25 110 -108c0 -84 -69 -157 -203 -157c-34 0 -66 5 -102 15c8 27 20 72 25 103l43 -6
c-4 -20 -7 -43 -2 -66c14 -7 31 -10 45 -10z" />
    <glyph glyph-name="onesixth" unicode="&#xf504;" horiz-adv-x="930" 
d="M231 477l-19 -121c-8 -36 -12 -52 -22 -75c-13 -9 -46 -16 -74 -21l-5 -32c31 2 88 4 119 4c28 0 86 -1 114 -2l5 32c-24 4 -51 10 -69 20c-2 18 -2 37 -1 55l32 204c4 24 13 52 20 68l-19 10c-32 -19 -74 -36 -149 -54l-6 -35l75 3c3 -10 2 -36 -1 -56zM280 -17l402 649
h62l-401 -649h-63zM586 134c0 159 139 246 281 273l5 -21c-89 -28 -169 -89 -202 -163l5 -4c41 29 79 39 113 39c72 0 107 -46 107 -111c0 -96 -71 -161 -174 -161c-86 0 -135 62 -135 148zM734 24c57 0 79 57 79 115c0 56 -20 75 -63 75c-25 0 -53 -14 -77 -28
c-7 -26 -8 -44 -8 -66c0 -55 20 -96 69 -96z" />
    <glyph glyph-name="fivesixths" unicode="&#xf505;" horiz-adv-x="930" 
d="M216 254c62 0 111 33 111 108c0 57 -37 78 -75 78c-26 0 -49 -8 -86 -24l-10 5l39 194h235l-11 -51l-17 -9h-182l-24 -93l7 -4c32 15 64 25 97 25c53 0 110 -25 110 -108c0 -84 -69 -157 -203 -157c-34 0 -66 5 -102 15c8 27 20 72 25 103l43 -6c-4 -20 -7 -43 -2 -66
c14 -7 31 -10 45 -10zM287 -17l402 649h62l-401 -649h-63zM586 134c0 159 139 246 281 273l5 -21c-89 -28 -169 -89 -202 -163l5 -4c41 29 79 39 113 39c72 0 107 -46 107 -111c0 -96 -71 -161 -174 -161c-86 0 -135 62 -135 148zM734 24c57 0 79 57 79 115
c0 56 -20 75 -63 75c-25 0 -53 -14 -77 -28c-7 -26 -8 -44 -8 -66c0 -55 20 -96 69 -96z" />
    <glyph glyph-name="oneeighth" unicode="&#x215b;" horiz-adv-x="930" 
d="M242 477l-19 -121c-8 -36 -12 -52 -22 -75c-13 -9 -46 -16 -74 -21l-5 -32c31 2 88 4 119 4c28 0 86 -1 114 -2l5 32c-24 4 -51 10 -69 20c-2 18 -2 37 -1 55l32 204c4 24 13 52 20 68l-19 10c-32 -19 -74 -36 -149 -54l-6 -35l75 3c3 -10 2 -36 -1 -56zM295 -17l402 649
h62l-401 -649h-63zM808 393c61 0 104 -25 104 -77c0 -47 -42 -80 -95 -114c49 -29 75 -54 75 -94c0 -68 -70 -122 -167 -122c-82 0 -120 36 -120 86c0 56 44 88 100 121c-34 24 -49 52 -49 84c0 61 58 116 152 116zM727 301c0 -26 18 -50 63 -79c33 21 63 47 63 86
c0 31 -20 53 -59 53s-67 -24 -67 -60zM736 21c41 0 78 21 78 65c0 28 -30 57 -86 88c-34 -23 -62 -51 -62 -93c0 -38 29 -60 70 -60z" />
    <glyph glyph-name="threeeighths" unicode="&#x215c;" horiz-adv-x="930" 
d="M219 255c61 0 94 41 94 91c0 46 -23 65 -71 65c-12 0 -25 -1 -45 -6l-13 10l24 34c49 1 127 25 127 87c0 34 -19 56 -61 56c-56 0 -60 -28 -77 -76h-33c4 29 4 56 4 80c42 17 97 31 134 31c75 0 105 -35 105 -81c0 -64 -53 -91 -108 -106v-2c63 -3 97 -35 97 -87
c0 -91 -98 -132 -184 -132c-42 0 -68 5 -104 16c9 24 19 68 25 99l45 -6c-4 -22 -6 -48 -3 -66c10 -4 28 -7 44 -7zM285 -17l402 649h62l-401 -649h-63zM796 393c61 0 104 -25 104 -77c0 -47 -42 -80 -95 -114c49 -29 75 -54 75 -94c0 -68 -70 -122 -167 -122
c-82 0 -120 36 -120 86c0 56 44 88 100 121c-34 24 -49 52 -49 84c0 61 58 116 152 116zM715 301c0 -26 18 -50 63 -79c33 21 63 47 63 86c0 31 -20 53 -59 53s-67 -24 -67 -60zM724 21c41 0 78 21 78 65c0 28 -30 57 -86 88c-34 -23 -62 -51 -62 -93c0 -38 29 -60 70 -60z
" />
    <glyph glyph-name="fiveeighths" unicode="&#x215d;" horiz-adv-x="930" 
d="M222 254c62 0 111 33 111 108c0 57 -37 78 -75 78c-26 0 -49 -8 -86 -24l-10 5l39 194h235l-11 -51l-17 -9h-182l-24 -93l7 -4c32 15 64 25 97 25c53 0 110 -25 110 -108c0 -84 -69 -157 -203 -157c-34 0 -66 5 -102 15c8 27 20 72 25 103l43 -6c-4 -20 -7 -43 -2 -66
c14 -7 31 -10 45 -10zM297 -17l402 649h62l-401 -649h-63zM802 393c61 0 104 -25 104 -77c0 -47 -42 -80 -95 -114c49 -29 75 -54 75 -94c0 -68 -70 -122 -167 -122c-82 0 -120 36 -120 86c0 56 44 88 100 121c-34 24 -49 52 -49 84c0 61 58 116 152 116zM721 301
c0 -26 18 -50 63 -79c33 21 63 47 63 86c0 31 -20 53 -59 53s-67 -24 -67 -60zM730 21c41 0 78 21 78 65c0 28 -30 57 -86 88c-34 -23 -62 -51 -62 -93c0 -38 29 -60 70 -60z" />
    <glyph glyph-name="seveneighths" unicode="&#x215e;" horiz-adv-x="930" 
d="M196 555h99c29 0 53 3 71 7l8 -7c-82 -82 -174 -204 -217 -333l10 -15c32 6 62 13 94 18c-4 15 -5 34 -2 48c14 77 71 195 186 307l4 35h-308c0 -26 -1 -85 -5 -119h22l19 2c5 17 8 29 19 57zM241 -17l402 649h62l-401 -649h-63zM775 393c61 0 104 -25 104 -77
c0 -47 -42 -80 -95 -114c49 -29 75 -54 75 -94c0 -68 -70 -122 -167 -122c-82 0 -120 36 -120 86c0 56 44 88 100 121c-34 24 -49 52 -49 84c0 61 58 116 152 116zM694 301c0 -26 18 -50 63 -79c33 21 63 47 63 86c0 31 -20 53 -59 53s-67 -24 -67 -60zM703 21
c41 0 78 21 78 65c0 28 -30 57 -86 88c-34 -23 -62 -51 -62 -93c0 -38 29 -60 70 -60z" />
    <glyph glyph-name="oneseventh" unicode="&#xf506;" horiz-adv-x="930" 
d="M224 477l-19 -121c-8 -36 -12 -52 -22 -75c-13 -9 -46 -16 -74 -21l-5 -32c31 2 88 4 119 4c28 0 86 -1 114 -2l5 32c-24 4 -51 10 -69 20c-2 18 -2 37 -1 55l32 204c4 24 13 52 20 68l-19 10c-32 -19 -74 -36 -149 -54l-6 -35l75 3c3 -10 2 -36 -1 -56zM264 -17l402 649
h62l-401 -649h-63zM689 323h99c29 0 53 3 71 7l8 -7c-82 -82 -174 -204 -217 -333l10 -15c32 6 62 13 94 18c-4 15 -5 34 -2 48c14 77 71 195 186 307l4 35h-308c0 -26 -1 -85 -5 -119h22l19 2c5 17 8 29 19 57z" />
    <glyph glyph-name="twosevenths" unicode="&#xf507;" horiz-adv-x="930" 
d="M101 282l-8 -50h289c9 38 25 88 43 125l-42 6c-8 -19 -24 -43 -49 -74h-73c-28 0 -61 -4 -83 -8l-2 7c91 48 240 122 240 235c0 67 -54 104 -116 104c-55 0 -108 -18 -152 -36c0 -26 -1 -65 -5 -93h18l30 8c2 23 6 45 18 66c17 5 34 9 54 9c44 0 66 -26 66 -69
c0 -95 -128 -174 -228 -230zM292 -17l402 649h62l-401 -649h-63zM709 323h99c29 0 53 3 71 7l8 -7c-82 -82 -174 -204 -217 -333l10 -15c32 6 62 13 94 18c-4 15 -5 34 -2 48c14 77 71 195 186 307l4 35h-308c0 -26 -1 -85 -5 -119h22l19 2c5 17 8 29 19 57z" />
    <glyph glyph-name="threesevenths" unicode="&#xf508;" horiz-adv-x="930" 
d="M199 255c61 0 94 41 94 91c0 46 -23 65 -71 65c-12 0 -25 -1 -45 -6l-13 10l24 34c49 1 127 25 127 87c0 34 -19 56 -61 56c-56 0 -60 -28 -77 -76h-33c4 29 4 56 4 80c42 17 97 31 134 31c75 0 105 -35 105 -81c0 -64 -53 -91 -108 -106v-2c63 -3 97 -35 97 -87
c0 -91 -98 -132 -184 -132c-42 0 -68 5 -104 16c9 24 19 68 25 99l45 -6c-4 -22 -6 -48 -3 -66c10 -4 28 -7 44 -7zM271 -17l402 649h62l-401 -649h-63zM691 323h99c29 0 53 3 71 7l8 -7c-82 -82 -174 -204 -217 -333l10 -15c32 6 62 13 94 18c-4 15 -5 34 -2 48
c14 77 71 195 186 307l4 35h-308c0 -26 -1 -85 -5 -119h22l19 2c5 17 8 29 19 57z" />
    <glyph glyph-name="foursevenths" unicode="&#xf509;" horiz-adv-x="930" 
d="M395 613l-2 9l-74 -14l-219 -238l10 -43h171c-5 -20 -7 -30 -14 -46c-14 -9 -53 -18 -80 -21l-5 -32c31 1 77 4 108 4c28 0 72 -1 100 -2l5 31c-17 4 -32 10 -43 19c-4 17 -4 28 -2 47h65l6 44h-65zM301 452l-13 -80h-135l167 180l2 -3c-9 -23 -17 -71 -21 -97zM305 -17
l402 649h62l-401 -649h-63zM709 323h99c29 0 53 3 71 7l8 -7c-82 -82 -174 -204 -217 -333l10 -15c32 6 62 13 94 18c-4 15 -5 34 -2 48c14 77 71 195 186 307l4 35h-308c0 -26 -1 -85 -5 -119h22l19 2c5 17 8 29 19 57z" />
    <glyph glyph-name="fivesevenths" unicode="&#xf50a;" horiz-adv-x="930" 
d="M222 254c62 0 111 33 111 108c0 57 -37 78 -75 78c-26 0 -49 -8 -86 -24l-10 5l39 194h235l-11 -51l-17 -9h-182l-24 -93l7 -4c32 15 64 25 97 25c53 0 110 -25 110 -108c0 -84 -69 -157 -203 -157c-34 0 -66 5 -102 15c8 27 20 72 25 103l43 -6c-4 -20 -7 -43 -2 -66
c14 -7 31 -10 45 -10zM286 -17l402 649h62l-401 -649h-63zM709 323h99c29 0 53 3 71 7l8 -7c-82 -82 -174 -204 -217 -333l10 -15c32 6 62 13 94 18c-4 15 -5 34 -2 48c14 77 71 195 186 307l4 35h-308c0 -26 -1 -85 -5 -119h22l19 2c5 17 8 29 19 57z" />
    <glyph glyph-name="sixsevenths" unicode="&#xf50b;" horiz-adv-x="930" 
d="M106 366c0 159 139 246 281 273l5 -21c-89 -28 -169 -89 -202 -163l5 -4c41 29 79 39 113 39c72 0 107 -46 107 -111c0 -96 -71 -161 -174 -161c-86 0 -135 62 -135 148zM254 256c57 0 79 57 79 115c0 56 -20 75 -63 75c-25 0 -53 -14 -77 -28c-7 -26 -8 -44 -8 -66
c0 -55 20 -96 69 -96zM282 -17l402 649h62l-401 -649h-63zM696 323h99c29 0 53 3 71 7l8 -7c-82 -82 -174 -204 -217 -333l10 -15c32 6 62 13 94 18c-4 15 -5 34 -2 48c14 77 71 195 186 307l4 35h-308c0 -26 -1 -85 -5 -119h22l19 2c5 17 8 29 19 57z" />
    <glyph glyph-name="oneninth" unicode="&#xf50c;" horiz-adv-x="930" 
d="M225 477l-19 -121c-8 -36 -12 -52 -22 -75c-13 -9 -46 -16 -74 -21l-5 -32c31 2 88 4 119 4c28 0 86 -1 114 -2l5 32c-24 4 -51 10 -69 20c-2 18 -2 37 -1 55l32 204c4 24 13 52 20 68l-19 10c-32 -19 -74 -36 -149 -54l-6 -35l75 3c3 -10 2 -36 -1 -56zM258 -17l402 649
h62l-401 -649h-63zM907 245c0 -159 -139 -246 -281 -273l-5 21c89 28 169 91 202 165l-5 4c-41 -29 -75 -41 -109 -41c-72 0 -111 51 -111 116c0 96 71 156 174 156c86 0 135 -62 135 -148zM759 355c-57 0 -79 -52 -79 -110c0 -53 20 -80 61 -80c27 0 54 11 79 28
c7 26 8 44 8 66c0 55 -20 96 -69 96z" />
    <glyph glyph-name="twoninths" unicode="&#xf50d;" horiz-adv-x="930" 
d="M101 282l-8 -50h289c9 38 25 88 43 125l-42 6c-8 -19 -24 -43 -49 -74h-73c-28 0 -61 -4 -83 -8l-2 7c91 48 240 122 240 235c0 67 -54 104 -116 104c-55 0 -108 -18 -152 -36c0 -26 -1 -65 -5 -93h18l30 8c2 23 6 45 18 66c17 5 34 9 54 9c44 0 66 -26 66 -69
c0 -95 -128 -174 -228 -230zM296 -17l402 649h62l-401 -649h-63zM920 245c0 -159 -139 -246 -281 -273l-5 21c89 28 169 91 202 165l-5 4c-41 -29 -75 -41 -109 -41c-72 0 -111 51 -111 116c0 96 71 156 174 156c86 0 135 -62 135 -148zM772 355c-57 0 -79 -52 -79 -110
c0 -53 20 -80 61 -80c27 0 54 11 79 28c7 26 8 44 8 66c0 55 -20 96 -69 96z" />
    <glyph glyph-name="fourninths" unicode="&#xf50e;" horiz-adv-x="930" 
d="M395 613l-2 9l-74 -14l-219 -238l10 -43h171c-5 -20 -7 -30 -14 -46c-14 -9 -53 -18 -80 -21l-5 -32c31 1 77 4 108 4c28 0 72 -1 100 -2l5 31c-17 4 -32 10 -43 19c-4 17 -4 28 -2 47h65l6 44h-65zM301 452l-13 -80h-135l167 180l2 -3c-9 -23 -17 -71 -21 -97zM299 -17
l402 649h62l-401 -649h-63zM920 245c0 -159 -139 -246 -281 -273l-5 21c89 28 169 91 202 165l-5 4c-41 -29 -75 -41 -109 -41c-72 0 -111 51 -111 116c0 96 71 156 174 156c86 0 135 -62 135 -148zM772 355c-57 0 -79 -52 -79 -110c0 -53 20 -80 61 -80c27 0 54 11 79 28
c7 26 8 44 8 66c0 55 -20 96 -69 96z" />
    <glyph glyph-name="fiveninths" unicode="&#xf50f;" horiz-adv-x="930" 
d="M216 254c62 0 111 33 111 108c0 57 -37 78 -75 78c-26 0 -49 -8 -86 -24l-10 5l39 194h235l-11 -51l-17 -9h-182l-24 -93l7 -4c32 15 64 25 97 25c53 0 110 -25 110 -108c0 -84 -69 -157 -203 -157c-34 0 -66 5 -102 15c8 27 20 72 25 103l43 -6c-4 -20 -7 -43 -2 -66
c14 -7 31 -10 45 -10zM279 -17l402 649h62l-401 -649h-63zM916 245c0 -159 -139 -246 -281 -273l-5 21c89 28 169 91 202 165l-5 4c-41 -29 -75 -41 -109 -41c-72 0 -111 51 -111 116c0 96 71 156 174 156c86 0 135 -62 135 -148zM768 355c-57 0 -79 -52 -79 -110
c0 -53 20 -80 61 -80c27 0 54 11 79 28c7 26 8 44 8 66c0 55 -20 96 -69 96z" />
    <glyph glyph-name="sevenninths" unicode="&#xf510;" horiz-adv-x="930" 
d="M186 555h99c29 0 53 3 71 7l8 -7c-82 -82 -174 -204 -217 -333l10 -15c32 6 62 13 94 18c-4 15 -5 34 -2 48c14 77 71 195 186 307l4 35h-308c0 -26 -1 -85 -5 -119h22l19 2c5 17 8 29 19 57zM237 -17l402 649h62l-401 -649h-63zM880 245c0 -159 -139 -246 -281 -273
l-5 21c89 28 169 91 202 165l-5 4c-41 -29 -75 -41 -109 -41c-72 0 -111 51 -111 116c0 96 71 156 174 156c86 0 135 -62 135 -148zM732 355c-57 0 -79 -52 -79 -110c0 -53 20 -80 61 -80c27 0 54 11 79 28c7 26 8 44 8 66c0 55 -20 96 -69 96z" />
    <glyph glyph-name="eightninths" unicode="&#xf511;" horiz-adv-x="930" 
d="M323 625c61 0 104 -25 104 -77c0 -47 -42 -80 -95 -114c49 -29 75 -54 75 -94c0 -68 -70 -122 -167 -122c-82 0 -120 36 -120 86c0 56 44 88 100 121c-34 24 -49 52 -49 84c0 61 58 116 152 116zM242 533c0 -26 18 -50 63 -79c33 21 63 47 63 86c0 31 -20 53 -59 53
s-67 -24 -67 -60zM251 253c41 0 78 21 78 65c0 28 -30 57 -86 88c-34 -23 -62 -51 -62 -93c0 -38 29 -60 70 -60zM282 -17l402 649h62l-401 -649h-63zM920 245c0 -159 -139 -246 -281 -273l-5 21c89 28 169 91 202 165l-5 4c-41 -29 -75 -41 -109 -41
c-72 0 -111 51 -111 116c0 96 71 156 174 156c86 0 135 -62 135 -148zM772 355c-57 0 -79 -52 -79 -110c0 -53 20 -80 61 -80c27 0 54 11 79 28c7 26 8 44 8 66c0 55 -20 96 -69 96z" />
    <glyph glyph-name="partialdiff" unicode="&#x2202;" horiz-adv-x="506" 
d="M175 645c50 18 94 26 132 26c147 0 201 -121 201 -283c0 -179 -54 -405 -263 -405c-111 0 -168 72 -168 189c0 134 71 243 210 243c56 0 91 -22 122 -51l6 4c1 14 1 28 1 42c0 114 -25 218 -123 218c-13 0 -27 -1 -42 -5c-11 -23 -24 -72 -26 -98l-43 -9h-17
c5 40 10 96 10 129zM297 361c-100 0 -130 -104 -130 -187c0 -80 25 -145 101 -145c113 0 139 149 139 251c0 13 -1 28 -2 33c-26 29 -68 48 -108 48z" />
    <glyph glyph-name="Omega" unicode="&#x2126;" horiz-adv-x="754" 
d="M709 0h-290l8 52c123 69 210 168 210 317c0 129 -53 214 -171 214c-149 0 -230 -147 -230 -278c0 -120 53 -203 117 -253l-8 -52h-280c5 42 5 110 3 153l54 7c1 -29 14 -80 25 -106h125c-57 34 -131 123 -131 243c0 179 123 337 338 337c183 0 254 -114 254 -249
c0 -148 -99 -255 -228 -333h136c19 26 50 78 61 108l52 -7c-16 -43 -38 -111 -45 -153z" />
    <glyph glyph-name="Delta" unicode="&#x2206;" horiz-adv-x="592" 
d="M574 0h-566l355 637h89zM106 58h360l-87 500z" />
    <glyph glyph-name="product" unicode="&#x220f;" horiz-adv-x="702" 
d="M260 647h400c44 0 77 1 120 3l-5 -36c-24 -6 -43 -14 -66 -26c-12 -32 -20 -59 -31 -110l-75 -476c-3 -26 -3 -48 1 -73c20 -14 43 -23 70 -29l-6 -35c-41 1 -84 2 -124 2c-44 0 -75 -1 -119 -2l6 36c24 5 39 10 60 22c14 32 21 60 32 111l88 551h-311l-93 -583
c-2 -26 -2 -48 2 -73c20 -14 42 -23 69 -29l-6 -35c-40 1 -79 2 -120 2c-44 0 -80 -1 -124 -2l6 36c24 5 40 10 61 22c13 32 20 60 31 111l76 478c3 26 3 48 2 72c-20 14 -38 23 -65 29l5 36c41 -2 75 -2 116 -2z" />
    <glyph glyph-name="summation" unicode="&#x2211;" horiz-adv-x="585" 
d="M139 647h440c-9 -35 -23 -131 -28 -176h-19l-40 6c3 24 3 88 -1 115h-252l158 -323l-285 -343h312c13 31 29 89 33 110l42 6h19c-9 -45 -24 -141 -28 -176h-463l-6 35l286 350l-186 358z" />
    <glyph glyph-name="uni0394" unicode="&#x394;" horiz-adv-x="592" 
d="M574 0h-566l355 637h89zM106 58h360l-87 500z" />
    <glyph glyph-name="uni03A9" unicode="&#x3a9;" horiz-adv-x="754" 
d="M709 0h-290l8 52c123 69 210 168 210 317c0 129 -53 214 -171 214c-149 0 -230 -147 -230 -278c0 -120 53 -203 117 -253l-8 -52h-280c5 42 5 110 3 153l54 7c1 -29 14 -80 25 -106h125c-57 34 -131 123 -131 243c0 179 123 337 338 337c183 0 254 -114 254 -249
c0 -148 -99 -255 -228 -333h136c19 26 50 78 61 108l52 -7c-16 -43 -38 -111 -45 -153z" />
    <glyph glyph-name="uni03BC" unicode="&#x3bc;" horiz-adv-x="528" 
d="M371 94l38 237c3 28 13 117 13 138l82 11l17 -11c-8 -19 -16 -50 -23 -79l-42 -270c-2 -12 -3 -22 -3 -30c0 -26 11 -35 46 -35c9 0 19 1 31 3l2 -27c-23 -10 -96 -41 -113 -41c-8 0 -21 4 -28 10c-10 18 -12 35 -16 53l-7 2l-81 -55c-21 -8 -45 -12 -68 -12
c-39 0 -68 13 -88 45c-1 -18 -2 -36 -2 -55c0 -72 13 -146 69 -169l-5 -32l-120 -28c-3 11 -4 31 -4 56c0 100 20 283 29 338l30 188c5 31 12 117 11 138l83 11l18 -11c-8 -19 -20 -60 -24 -85l-35 -226c-2 -14 -4 -26 -4 -37c0 -47 22 -72 79 -72c51 0 115 45 115 45z" />
    <glyph glyph-name="pi" unicode="&#x3c0;" horiz-adv-x="549" 
d="M542 27l-79 -35c-17 -5 -26 -6 -40 -6c-41 0 -64 21 -64 73c0 69 44 218 68 320h-140c-19 -106 -65 -317 -86 -379h-121l5 29c36 19 56 37 75 89c28 75 57 189 73 262h-45c-39 0 -53 -10 -76 -47l-27 5l48 116c16 2 53 3 83 3h269c43 0 93 2 114 15l12 -11l-48 -82h-86
c-12 -54 -23 -121 -28 -154c-5 -29 -9 -60 -9 -89c0 -43 6 -85 60 -85c12 0 25 1 38 3z" />
    <glyph glyph-name="mu" unicode="&#xb5;" horiz-adv-x="528" 
d="M371 94l38 237c3 28 13 117 13 138l82 11l17 -11c-8 -19 -16 -50 -23 -79l-42 -270c-2 -12 -3 -22 -3 -30c0 -26 11 -35 46 -35c9 0 19 1 31 3l2 -27c-23 -10 -96 -41 -113 -41c-8 0 -21 4 -28 10c-10 18 -12 35 -16 53l-7 2l-81 -55c-21 -8 -45 -12 -68 -12
c-39 0 -68 13 -88 45c-1 -18 -2 -36 -2 -55c0 -72 13 -146 69 -169l-5 -32l-120 -28c-3 11 -4 31 -4 56c0 100 20 283 29 338l30 188c5 31 12 117 11 138l83 11l18 -11c-8 -19 -20 -60 -24 -85l-35 -226c-2 -14 -4 -26 -4 -37c0 -47 22 -72 79 -72c51 0 115 45 115 45z" />
    <glyph glyph-name="minus" unicode="&#x2212;" 
d="M528 278h-439l10 55h437z" />
    <glyph glyph-name="uni2215" unicode="&#x2215;" horiz-adv-x="440" 
d="M4 -17l402 649h62l-401 -649h-63z" />
    <glyph glyph-name="uni2219" unicode="&#x2219;" horiz-adv-x="217" 
d="M95 302c0 38 29 70 72 70c35 0 55 -25 55 -55c0 -37 -30 -68 -71 -68c-36 0 -56 25 -56 53z" />
    <glyph glyph-name="radical" unicode="&#x221a;" horiz-adv-x="547" 
d="M593 744l-168 -744h-70l-174 367l-71 -33l-16 40l142 69l152 -334l148 645z" />
    <glyph glyph-name="infinity" unicode="&#x221e;" horiz-adv-x="644" 
d="M624 241c0 -77 -63 -123 -128 -123c-51 0 -87 16 -151 78c-46 -45 -98 -78 -148 -78c-74 0 -117 49 -117 119c0 90 71 131 131 131c45 0 82 -16 149 -79c47 43 102 73 147 73c71 0 117 -39 117 -121zM564 242c0 43 -26 69 -64 69c-35 0 -70 -23 -107 -58
c46 -50 71 -70 110 -70s61 27 61 59zM207 171c33 0 62 20 103 60c-45 42 -80 72 -110 72c-36 0 -59 -27 -59 -61c0 -43 25 -71 66 -71z" />
    <glyph glyph-name="integral" unicode="&#x222b;" horiz-adv-x="427" 
d="M325 572c-7 -58 -1 -155 -7 -256c-4 -72 -8 -179 -22 -266c-7 -46 -21 -105 -37 -134c-48 -84 -110 -121 -190 -121c-38 0 -71 12 -101 30l53 79h19c16 -34 40 -58 76 -58c76 0 95 101 98 163c2 62 0 119 0 189c0 94 1 190 17 289c7 46 24 96 40 125
c48 84 115 123 190 123c32 0 66 -12 96 -30l-54 -79h-19c-16 34 -40 58 -76 58c-27 0 -72 -22 -83 -112z" />
    <glyph glyph-name="approxequal" unicode="&#x2248;" horiz-adv-x="509" 
d="M122 290l-32 16c10 33 61 98 140 98c72 0 139 -42 201 -42c32 0 43 14 54 38l34 -13c-7 -40 -42 -99 -115 -99c-82 0 -150 40 -212 40c-26 0 -52 -9 -70 -38zM92 133l-32 16c10 33 61 98 140 98c72 0 139 -42 201 -42c32 0 43 14 54 38l34 -13c-7 -40 -42 -99 -115 -99
c-82 0 -150 40 -212 40c-26 0 -52 -9 -70 -38z" />
    <glyph glyph-name="notequal" unicode="&#x2260;" 
d="M511 166h-281c-39 -40 -81 -81 -119 -122c-10 11 -21 23 -30 34l86 88h-94l9 55h138l99 103h-222l10 54h266l99 103l30 -34l-67 -69h109l-10 -54h-152l-100 -103h238z" />
    <glyph glyph-name="lessequal" unicode="&#x2264;" 
d="M486 0h-438l8 54h439zM494 64l-407 193l12 76l466 189l-10 -62l-408 -166l357 -168z" />
    <glyph glyph-name="greaterequal" unicode="&#x2265;" 
d="M518 255l-467 -193l11 65l409 169l-358 164l10 60l407 -189zM480 0h-438l8 54h439z" />
    <glyph glyph-name="less" unicode="&#x3c;" 
d="M491 42l-407 193l12 76l466 189l-10 -62l-408 -166l357 -168z" />
    <glyph glyph-name="equal" unicode="=" 
d="M536 334h-437l9 54h437zM511 166h-438l9 55h438z" />
    <glyph glyph-name="greater" unicode="&#x3e;" 
d="M521 235l-467 -193l11 65l409 169l-358 164l10 60l407 -189z" />
    <glyph glyph-name="lozenge" unicode="&#x25ca;" horiz-adv-x="475" 
d="M480 310l-202 -322l-203 322l203 322zM397 309l-121 194l-119 -192l124 -198z" />
    <glyph glyph-name="logicalnot" unicode="&#xac;" 
d="M455 163l19 115h-385l10 55h438l-27 -170h-55z" />
    <glyph glyph-name="plus" unicode="+" 
d="M528 278h-194l-32 -210h-57l32 210h-188l10 55h186l30 197h58l-30 -197h193z" />
    <glyph glyph-name="plusminus" unicode="&#xb1;" 
d="M528 278h-193l-28 -175h-57l27 175h-187l9 55h186l26 176h60l-28 -176h193zM486 0h-438l8 54h439z" />
    <glyph glyph-name="divide" unicode="&#xf7;" 
d="M272 438c0 35 26 64 65 64c32 0 51 -23 51 -50c0 -34 -28 -62 -65 -62c-33 0 -51 23 -51 48zM528 278h-439l10 55h437zM220 150c0 35 26 64 65 64c32 0 51 -23 51 -50c0 -34 -28 -62 -65 -62c-33 0 -51 23 -51 48z" />
    <glyph glyph-name="multiply" unicode="&#xd7;" 
d="M401 82l-113 138l-162 -141c-13 14 -24 28 -36 42l165 141l-116 136l52 41l112 -135l157 137l36 -43l-159 -136l114 -137c-18 -15 -31 -28 -50 -43z" />
    <glyph glyph-name="commaaccent" unicode="&#xf6c3;" horiz-adv-x="500" 
d="M234 -114v18c22 17 31 31 42 54c38 -16 66 -39 66 -72c0 -53 -55 -96 -97 -126l-22 23c35 29 51 50 51 73c0 21 -16 28 -40 30z" />
    <glyph glyph-name="revcommaaccent" horiz-adv-x="500" 
d="M266 615v-18c-22 -17 -31 -31 -42 -54c-38 16 -66 39 -66 72c0 53 55 96 97 126l22 -23c-35 -29 -51 -50 -51 -73c0 -21 16 -28 40 -30z" />
    <glyph glyph-name="tilde.cap" horiz-adv-x="500" 
d="M180 720l-22 23c44 51 71 80 122 80s76 -41 123 -41c27 0 48 10 67 35l22 -20c-36 -52 -68 -84 -108 -84c-56 0 -89 42 -137 42c-24 0 -41 -8 -67 -35z" />
    <glyph glyph-name="ring.cap" horiz-adv-x="500" 
d="M366 839c-41 0 -62 -43 -62 -79c0 -33 11 -54 43 -54c39 0 63 38 63 79c0 32 -12 54 -44 54zM255 753c0 66 47 123 119 123c59 0 86 -37 86 -86c0 -64 -49 -122 -121 -122c-63 0 -84 41 -84 85z" />
    <glyph glyph-name="circumflex.cap" horiz-adv-x="500" 
d="M342 771l-132 -74l-24 25l138 124h51l93 -128l-27 -21z" />
    <glyph glyph-name="acute.cap" horiz-adv-x="500" 
d="M266 697l-18 28l159 115c18 -17 39 -33 60 -44l-6 -20z" />
    <glyph glyph-name="grave.cap" horiz-adv-x="500" 
d="M440 723l-25 -28l-177 101l-4 21c23 7 57 22 77 35z" />
    <glyph glyph-name="dieresis.cap" horiz-adv-x="500" 
d="M252 814c31 0 43 -27 43 -45c0 -42 -21 -65 -56 -65c-27 0 -45 22 -45 44c0 36 19 66 58 66zM437 814c31 0 43 -27 43 -45c0 -42 -21 -65 -56 -65c-27 0 -45 22 -45 44c0 36 19 66 58 66z" />
    <glyph glyph-name="caron.cap" horiz-adv-x="500" 
d="M316 770l139 93l21 -21l-140 -135h-51l-77 109c21 8 39 19 57 35z" />
    <glyph glyph-name="macron.cap" horiz-adv-x="470" 
d="M169 740l7 46h293l15 -15l-7 -45h-292z" />
    <glyph glyph-name="dotaccent.cap" horiz-adv-x="500" 
d="M354 820c29 0 41 -23 41 -45c0 -46 -21 -73 -67 -73c-24 0 -42 18 -42 44c0 40 19 74 68 74z" />
    <glyph glyph-name="cedilla.cap" horiz-adv-x="500" 
d="M266 7l-14 -50c40 -11 67 -34 67 -70c0 -26 -11 -48 -28 -65c-28 -29 -79 -47 -148 -51l-3 31c86 11 111 40 111 71c0 23 -19 36 -56 40l-5 12l27 82h49z" />
    <glyph glyph-name="hungarumlaut.cap" horiz-adv-x="500" 
d="M193 694l-20 21l125 152c20 -10 51 -19 69 -24l-2 -21zM350 694l-22 25l133 135c21 -14 50 -26 69 -31l-6 -22z" />
    <glyph glyph-name="apostrophe" unicode="&#x2bc;" horiz-adv-x="211" 
d="M126 463l-14 22c18 14 53 45 53 77c0 22 -21 35 -21 58c0 28 22 46 50 46c26 0 43 -17 43 -50c0 -64 -56 -118 -111 -153z" />
    <glyph glyph-name="commaaccent.cap" horiz-adv-x="500" 
d="M234 -114v18c22 17 31 31 42 54c38 -16 66 -39 66 -72c0 -53 -55 -96 -97 -126l-22 23c35 29 51 50 51 73c0 21 -16 28 -40 30z" />
    <glyph glyph-name="breve.cap" horiz-adv-x="500" 
d="M176 841l32 13c18 -59 47 -78 88 -78c37 0 65 11 117 76l24 -19c-68 -111 -116 -126 -159 -126c-57 0 -91 48 -102 134z" />
    <glyph glyph-name="caron.alt" horiz-adv-x="233" 
d="M186 491h-37l28 178c21 4 60 16 82 26l8 -12z" />
    <glyph glyph-name="ogonek.cap" horiz-adv-x="500" 
d="M416 28l21 -22c-33 -22 -72 -52 -97 -86c-18 -24 -25 -46 -25 -71c0 -26 10 -52 40 -52c16 0 49 11 69 20l9 -28c-14 -8 -55 -30 -75 -39c-18 -8 -32 -11 -47 -11c-48 0 -77 37 -77 82s20 74 38 95c32 36 104 89 144 112z" />
    <glyph glyph-name="zero.lf" horiz-adv-x="533" 
d="M352 585c-127 0 -189 -250 -189 -387c0 -111 25 -165 88 -165c119 0 201 196 201 394c0 101 -28 158 -100 158zM72 217c0 168 81 414 291 414c126 0 181 -88 181 -226c0 -154 -82 -417 -291 -417c-114 0 -181 71 -181 229z" />
    <glyph glyph-name="one.lf" horiz-adv-x="339" 
d="M156 148l45 294c4 29 6 67 2 83c-33 -1 -71 -3 -105 -5l6 36c106 28 155 49 199 75l16 -10c-9 -23 -21 -61 -26 -96l-58 -386c-2 -27 -3 -54 0 -80c26 -14 65 -23 97 -29l-5 -32c-39 1 -107 2 -146 2c-41 0 -118 -3 -161 -5l5 34c40 7 86 16 108 30c11 28 14 49 23 89z
" />
    <glyph glyph-name="two.lf" horiz-adv-x="460" 
d="M10 2l9 54c139 105 342 259 342 416c0 71 -32 107 -96 107c-71 0 -99 -35 -124 -110h-36c4 37 6 80 6 115c48 20 123 47 193 47c95 0 156 -60 156 -151c0 -161 -211 -310 -327 -396l-23 -17l3 -11c29 6 69 12 107 12h113c35 41 56 75 68 100l45 -8
c-24 -49 -45 -107 -58 -158h-378z" />
    <glyph glyph-name="three.lf" horiz-adv-x="436" 
d="M161 31c109 0 159 83 159 174c0 62 -31 106 -108 106c-18 0 -36 -1 -59 -8l-16 13l28 40c73 5 185 52 185 142c0 52 -28 85 -87 85c-79 0 -93 -45 -119 -106h-35c4 37 6 79 5 114c55 23 127 40 177 40c93 0 145 -47 145 -121c0 -81 -73 -132 -161 -159l2 -7
c84 -5 133 -59 133 -136c0 -129 -103 -220 -251 -220c-60 0 -101 7 -144 22c12 36 26 90 34 130l49 -6c-6 -30 -7 -64 -1 -91c17 -7 32 -12 64 -12z" />
    <glyph glyph-name="four.lf" horiz-adv-x="486" 
d="M455 630l4 -12l-63 -396h78l-7 -50h-79l-6 -38c-2 -26 -3 -49 2 -74c15 -13 38 -21 61 -27l-5 -36c-40 2 -85 3 -125 3c-44 0 -104 -3 -148 -5l6 36c39 6 92 17 111 30c10 24 14 43 20 64l7 47h-248l-15 52l325 391zM319 224l29 183c6 36 19 100 32 133l-4 4l-260 -320
h203z" />
    <glyph glyph-name="five.lf" horiz-adv-x="445" 
d="M158 36c110 0 174 98 174 196c0 72 -28 118 -111 118c-38 0 -65 -7 -113 -27l-13 7l59 285h311l-11 -51l-23 -17h-237l-41 -161l5 -6c47 18 76 25 112 25c87 0 155 -49 155 -153c0 -140 -101 -264 -273 -264c-49 0 -86 6 -132 20c11 37 27 98 34 138l50 -7
c-6 -30 -8 -67 -2 -94c17 -7 37 -9 56 -9z" />
    <glyph glyph-name="six.lf" horiz-adv-x="484" 
d="M75 196c0 215 180 384 400 438l9 -28c-157 -61 -253 -150 -299 -271l6 -4c57 45 98 53 138 53c94 0 144 -74 144 -160c0 -133 -91 -236 -223 -236c-111 0 -175 87 -175 208zM265 32c85 0 118 98 118 182c0 72 -26 119 -92 119c-38 0 -76 -17 -114 -43
c-9 -38 -13 -68 -13 -114c0 -79 31 -144 101 -144z" />
    <glyph glyph-name="seven.lf" horiz-adv-x="422" 
d="M330 547h-161c-11 -25 -18 -46 -27 -82l-30 -4h-11c5 39 7 121 6 154h395l-6 -46c-156 -206 -267 -376 -293 -490c-6 -25 -4 -47 2 -65l-107 -20l-13 19c58 175 197 369 335 533l-5 6c-13 -2 -41 -5 -85 -5z" />
    <glyph glyph-name="eight.lf" horiz-adv-x="451" 
d="M321 621c85 0 140 -50 140 -126c0 -75 -58 -124 -124 -168c60 -43 98 -79 98 -141c0 -109 -93 -198 -224 -198c-108 0 -161 60 -161 135c0 85 63 142 139 185c-46 33 -68 71 -68 121c0 106 79 192 200 192zM305 344c45 32 86 78 86 142c0 44 -21 91 -84 91
c-69 0 -112 -47 -112 -105c0 -44 16 -79 110 -128zM231 35c64 0 122 41 122 116c0 44 -26 87 -135 140c-50 -34 -90 -87 -90 -157c0 -63 40 -99 103 -99z" />
    <glyph glyph-name="nine.lf" horiz-adv-x="469" 
d="M489 423c0 -215 -180 -384 -400 -438l-9 28c157 61 253 150 299 271l-6 4c-57 -45 -98 -53 -138 -53c-94 0 -144 74 -144 160c0 133 91 236 223 236c111 0 175 -87 175 -208zM299 587c-85 0 -118 -98 -118 -182c0 -72 26 -119 92 -119c38 0 76 17 114 43
c9 38 13 68 13 114c0 79 -31 144 -101 144z" />
    </font>
</defs>
</svg>
